BigshotOne-TTF.ufo
<glyph name="exclam" format="1">
  <advance width="312"/>
  <unicode hex="0021"/>
  <outline>
    <contour>
      <point x="213" y="198" type="line"/>
      <point x="160" y="198" type="line"/>
      <point x="100" y="492" type="line"/>
      <point x="100" y="535"/>
      <point x="141" y="586"/>
      <point x="186" y="586" type="qcurve"/>
      <point x="228" y="586"/>
      <point x="268" y="534"/>
      <point x="268" y="492" type="qcurve"/>
    </contour>
    <contour>
      <point x="106" y="62" type="qcurve"/>
      <point x="106" y="107"/>
      <point x="144" y="149"/>
      <point x="189" y="149" type="qcurve"/>
      <point x="237" y="149"/>
      <point x="272" y="107"/>
      <point x="272" y="62" type="qcurve"/>
      <point x="272" y="17"/>
      <point x="234" y="-24"/>
      <point x="189" y="-24" type="qcurve"/>
      <point x="144" y="-24"/>
      <point x="106" y="17"/>
    </contour>
  </outline>
</glyph>
<glyph name="numbersign" format="1">
  <advance width="464"/>
  <unicode hex="0023"/>
  <outline>
    <contour>
      <point x="116" y="240" type="line"/>
      <point x="136" y="342" type="line"/>
      <point x="64" y="342" type="line"/>
      <point x="64" y="400" type="line"/>
      <point x="148" y="400" type="line"/>
      <point x="183" y="577" type="line"/>
      <point x="245" y="577" type="line"/>
      <point x="210" y="400" type="line"/>
      <point x="298" y="400" type="line"/>
      <point x="333" y="577" type="line"/>
      <point x="395" y="577" type="line"/>
      <point x="360" y="400" type="line"/>
      <point x="424" y="400" type="line"/>
      <point x="424" y="342" type="line"/>
      <point x="348" y="342" type="line"/>
      <point x="328" y="240" type="line"/>
      <point x="400" y="240" type="line"/>
      <point x="400" y="182" type="line"/>
      <point x="317" y="182" type="line"/>
      <point x="281" y="0" type="line"/>
      <point x="219" y="0" type="line"/>
      <point x="255" y="182" type="line"/>
      <point x="167" y="182" type="line"/>
      <point x="131" y="0" type="line"/>
      <point x="69" y="0" type="line"/>
      <point x="105" y="182" type="line"/>
      <point x="40" y="182" type="line"/>
      <point x="40" y="240" type="line"/>
    </contour>
    <contour>
      <point x="178" y="240" type="line"/>
      <point x="266" y="240" type="line"/>
      <point x="286" y="342" type="line"/>
      <point x="198" y="342" type="line"/>
    </contour>
  </outline>
</glyph>
<glyph name="dollar" format="1">
  <advance width="563"/>
  <unicode hex="0024"/>
  <outline>
    <contour>
      <point x="50" y="404" type="qcurve"/>
      <point x="50" y="436"/>
      <point x="72" y="492"/>
      <point x="121" y="534"/>
      <point x="200" y="562"/>
      <point x="257" y="565" type="qcurve"/>
      <point x="257" y="624" type="line"/>
      <point x="319" y="624" type="line"/>
      <point x="319" y="565" type="line"/>
      <point x="342" y="563"/>
      <point x="381" y="555"/>
      <point x="397" y="550" type="qcurve"/>
      <point x="491" y="569" type="line"/>
      <point x="491" y="389" type="line"/>
      <point x="429" y="391"/>
      <point x="352" y="456"/>
      <point x="344" y="514" type="qcurve"/>
      <point x="319" y="519" type="line"/>
      <point x="319" y="344" type="line"/>
      <point x="326" y="342" type="line"/>
      <point x="357" y="332"/>
      <point x="425" y="302"/>
      <point x="481" y="259"/>
      <point x="518" y="202"/>
      <point x="518" y="165" type="qcurve"/>
      <point x="518" y="80"/>
      <point x="406" y="-6"/>
      <point x="309" y="-13" type="qcurve"/>
      <point x="309" y="-66" type="line"/>
      <point x="247" y="-66" type="line"/>
      <point x="247" y="-14" type="line"/>
      <point x="209" y="-13"/>
      <point x="161" y="-4"/>
      <point x="147" y="1" type="qcurve"/>
      <point x="63" y="-15" type="line"/>
      <point x="63" y="194" type="line"/>
      <point x="100" y="193"/>
      <point x="156" y="168"/>
      <point x="195" y="125"/>
      <point x="217" y="66"/>
      <point x="219" y="32" type="qcurve"/>
      <point x="247" y="30" type="line"/>
      <point x="247" y="220" type="line"/>
      <point x="214" y="234"/>
      <point x="145" y="263"/>
      <point x="87" y="303"/>
      <point x="50" y="360"/>
    </contour>
    <contour>
      <point x="345" y="106" type="qcurve"/>
      <point x="345" y="129"/>
      <point x="326" y="167"/>
      <point x="309" y="182" type="qcurve"/>
      <point x="309" y="32" type="line"/>
      <point x="333" y="34" type="line"/>
      <point x="336" y="41"/>
      <point x="339" y="52" type="qcurve"/>
      <point x="341" y="61"/>
      <point x="345" y="88"/>
    </contour>
    <contour>
      <point x="221" y="452" type="qcurve"/>
      <point x="221" y="423"/>
      <point x="239" y="386"/>
      <point x="257" y="373" type="qcurve"/>
      <point x="257" y="521" type="line"/>
      <point x="234" y="518" type="line"/>
      <point x="230" y="509"/>
      <point x="227" y="498" type="qcurve"/>
      <point x="225" y="489"/>
      <point x="221" y="465"/>
    </contour>
  </outline>
</glyph>
<glyph name="percent" format="1">
  <advance width="817"/>
  <unicode hex="0025"/>
  <outline>
    <contour>
      <point x="302" y="0" type="line"/>
      <point x="236" y="0" type="line"/>
      <point x="516" y="577" type="line"/>
      <point x="582" y="577" type="line"/>
    </contour>
    <contour>
      <point x="177" y="442" type="qcurve"/>
      <point x="177" y="420"/>
      <point x="179" y="384"/>
      <point x="181" y="370" type="qcurve"/>
      <point x="183" y="354"/>
      <point x="186" y="340" type="qcurve"/>
      <point x="196" y="336"/>
      <point x="204" y="336" type="qcurve"/>
      <point x="212" y="336"/>
      <point x="222" y="340" type="qcurve"/>
      <point x="224" y="354"/>
      <point x="226" y="371" type="qcurve"/>
      <point x="228" y="385"/>
      <point x="231" y="422"/>
      <point x="231" y="442" type="qcurve"/>
      <point x="231" y="464"/>
      <point x="228" y="502"/>
      <point x="226" y="516" type="qcurve"/>
      <point x="224" y="532"/>
      <point x="222" y="545" type="qcurve"/>
      <point x="214" y="549"/>
      <point x="204" y="549" type="qcurve"/>
      <point x="196" y="549"/>
      <point x="186" y="545" type="qcurve"/>
      <point x="183" y="531"/>
      <point x="181" y="514" type="qcurve"/>
      <point x="179" y="500"/>
      <point x="177" y="463"/>
    </contour>
    <contour>
      <point x="50" y="443" type="qcurve"/>
      <point x="50" y="520"/>
      <point x="119" y="586"/>
      <point x="205" y="586" type="qcurve"/>
      <point x="247" y="586"/>
      <point x="305" y="570"/>
      <point x="341" y="536"/>
      <point x="357" y="482"/>
      <point x="357" y="443" type="qcurve"/>
      <point x="357" y="404"/>
      <point x="341" y="350"/>
      <point x="305" y="316"/>
      <point x="247" y="300"/>
      <point x="205" y="300" type="qcurve"/>
      <point x="119" y="300"/>
      <point x="50" y="366"/>
    </contour>
    <contour>
      <point x="587" y="133" type="qcurve"/>
      <point x="587" y="111"/>
      <point x="589" y="75"/>
      <point x="591" y="61" type="qcurve"/>
      <point x="593" y="45"/>
      <point x="596" y="31" type="qcurve"/>
      <point x="606" y="27"/>
      <point x="614" y="27" type="qcurve"/>
      <point x="622" y="27"/>
      <point x="632" y="31" type="qcurve"/>
      <point x="634" y="45"/>
      <point x="636" y="62" type="qcurve"/>
      <point x="638" y="76"/>
      <point x="641" y="113"/>
      <point x="641" y="133" type="qcurve"/>
      <point x="641" y="155"/>
      <point x="638" y="193"/>
      <point x="636" y="207" type="qcurve"/>
      <point x="634" y="223"/>
      <point x="632" y="236" type="qcurve"/>
      <point x="624" y="240"/>
      <point x="614" y="240" type="qcurve"/>
      <point x="606" y="240"/>
      <point x="596" y="236" type="qcurve"/>
      <point x="593" y="222"/>
      <point x="591" y="205" type="qcurve"/>
      <point x="589" y="191"/>
      <point x="587" y="154"/>
    </contour>
    <contour>
      <point x="460" y="134" type="qcurve"/>
      <point x="460" y="211"/>
      <point x="529" y="277"/>
      <point x="615" y="277" type="qcurve"/>
      <point x="657" y="277"/>
      <point x="715" y="261"/>
      <point x="751" y="227"/>
      <point x="767" y="173"/>
      <point x="767" y="134" type="qcurve"/>
      <point x="767" y="95"/>
      <point x="751" y="41"/>
      <point x="715" y="7"/>
      <point x="657" y="-9"/>
      <point x="615" y="-9" type="qcurve"/>
      <point x="529" y="-9"/>
      <point x="460" y="57"/>
    </contour>
  </outline>
</glyph>
<glyph name="ampersand" format="1">
  <advance width="610"/>
  <unicode hex="0026"/>
  <outline>
    <contour>
      <point x="318" y="559" type="qcurve"/>
      <point x="306" y="559"/>
      <point x="285" y="558"/>
      <point x="277" y="557" type="qcurve"/>
      <point x="267" y="556"/>
      <point x="260" y="555" type="qcurve"/>
      <point x="256" y="546"/>
      <point x="252" y="534" type="qcurve"/>
      <point x="249" y="523"/>
      <point x="245" y="492"/>
      <point x="245" y="472" type="qcurve"/>
      <point x="245" y="451"/>
      <point x="247" y="417"/>
      <point x="249" y="404" type="qcurve"/>
      <point x="251" y="389"/>
      <point x="254" y="377" type="qcurve"/>
      <point x="600" y="377" type="line"/>
      <point x="600" y="319" type="line"/>
      <point x="496" y="319" type="line"/>
      <point x="496" y="181" type="line"/>
      <point x="496" y="128"/>
      <point x="465" y="58"/>
      <point x="408" y="16"/>
      <point x="325" y="-2"/>
      <point x="274" y="-2" type="qcurve"/>
      <point x="220" y="-2"/>
      <point x="134" y="15"/>
      <point x="76" y="57"/>
      <point x="45" y="127"/>
      <point x="45" y="180" type="qcurve"/>
      <point x="45" y="246"/>
      <point x="105" y="333"/>
      <point x="168" y="348" type="qcurve"/>
      <point x="116" y="363"/>
      <point x="66" y="423"/>
      <point x="66" y="474" type="qcurve"/>
      <point x="66" y="553"/>
      <point x="188" y="617"/>
      <point x="318" y="617" type="qcurve"/>
      <point x="345" y="617"/>
      <point x="407" y="608"/>
      <point x="460" y="583"/>
      <point x="495" y="538"/>
      <point x="495" y="502" type="qcurve"/>
      <point x="495" y="495" type="line"/>
      <point x="435" y="495" type="line"/>
      <point x="435" y="501" type="line"/>
      <point x="435" y="519"/>
      <point x="415" y="541"/>
      <point x="382" y="554"/>
      <point x="340" y="559"/>
    </contour>
    <contour>
      <point x="247" y="61" type="qcurve"/>
      <point x="251" y="59"/>
      <point x="255" y="58" type="qcurve"/>
      <point x="265" y="56"/>
      <point x="279" y="56" type="qcurve"/>
      <point x="360" y="56"/>
      <point x="438" y="115"/>
      <point x="438" y="188" type="qcurve"/>
      <point x="438" y="319" type="line"/>
      <point x="252" y="319" type="line"/>
      <point x="245" y="300"/>
      <point x="241" y="278" type="qcurve"/>
      <point x="237" y="259"/>
      <point x="231" y="209"/>
      <point x="231" y="183" type="qcurve"/>
      <point x="231" y="155"/>
      <point x="236" y="111"/>
      <point x="239" y="95" type="qcurve"/>
      <point x="243" y="77"/>
    </contour>
  </outline>
</glyph>
<glyph name="parenleft" format="1">
  <advance width="392"/>
  <unicode hex="0028"/>
  <outline>
    <contour>
      <point x="322" y="-135" type="line"/>
      <point x="252" y="-127"/>
      <point x="145" y="-63"/>
      <point x="72" y="42"/>
      <point x="35" y="185"/>
      <point x="35" y="272" type="qcurve"/>
      <point x="35" y="359"/>
      <point x="72" y="502"/>
      <point x="145" y="608"/>
      <point x="252" y="672"/>
      <point x="322" y="680" type="qcurve"/>
      <point x="322" y="619" type="line"/>
      <point x="297" y="615"/>
      <point x="261" y="602"/>
      <point x="249" y="595" type="qcurve"/>
      <point x="235" y="587"/>
      <point x="224" y="577" type="qcurve"/>
      <point x="219" y="529"/>
      <point x="215" y="477" type="qcurve"/>
      <point x="211" y="432"/>
      <point x="206" y="325"/>
      <point x="206" y="272" type="qcurve"/>
      <point x="206" y="219"/>
      <point x="211" y="111"/>
      <point x="215" y="67" type="qcurve"/>
      <point x="219" y="15"/>
      <point x="224" y="-32" type="qcurve"/>
      <point x="235" y="-42"/>
      <point x="249" y="-50" type="qcurve"/>
      <point x="261" y="-57"/>
      <point x="297" y="-71"/>
      <point x="322" y="-74" type="qcurve"/>
    </contour>
  </outline>
</glyph>
<glyph name="parenright" format="1">
  <advance width="392"/>
  <unicode hex="0029"/>
  <outline>
    <contour>
      <point x="70" y="-74" type="line"/>
      <point x="94" y="-71"/>
      <point x="131" y="-57"/>
      <point x="143" y="-50" type="qcurve"/>
      <point x="157" y="-42"/>
      <point x="168" y="-32" type="qcurve"/>
      <point x="173" y="15"/>
      <point x="177" y="67" type="qcurve"/>
      <point x="180" y="111"/>
      <point x="186" y="219"/>
      <point x="186" y="272" type="qcurve"/>
      <point x="186" y="325"/>
      <point x="180" y="432"/>
      <point x="177" y="477" type="qcurve"/>
      <point x="173" y="529"/>
      <point x="168" y="577" type="qcurve"/>
      <point x="157" y="587"/>
      <point x="143" y="595" type="qcurve"/>
      <point x="131" y="602"/>
      <point x="94" y="615"/>
      <point x="70" y="619" type="qcurve"/>
      <point x="70" y="680" type="line"/>
      <point x="140" y="672"/>
      <point x="247" y="608"/>
      <point x="320" y="502"/>
      <point x="357" y="359"/>
      <point x="357" y="272" type="qcurve"/>
      <point x="357" y="185"/>
      <point x="320" y="42"/>
      <point x="247" y="-63"/>
      <point x="140" y="-127"/>
      <point x="70" y="-135" type="qcurve"/>
    </contour>
  </outline>
</glyph>
<glyph name="asterisk" format="1">
  <advance width="436"/>
  <unicode hex="002A"/>
  <outline>
    <contour>
      <point x="188" y="496" type="line"/>
      <point x="165" y="592" type="line"/>
      <point x="165" y="609"/>
      <point x="186" y="631"/>
      <point x="208" y="631" type="qcurve"/>
      <point x="228" y="631"/>
      <point x="248" y="609"/>
      <point x="248" y="592" type="qcurve"/>
      <point x="227" y="498" type="line"/>
      <point x="309" y="550" type="line"/>
      <point x="317" y="552"/>
      <point x="323" y="552" type="qcurve"/>
      <point x="340" y="552"/>
      <point x="362" y="524"/>
      <point x="362" y="506" type="qcurve"/>
      <point x="362" y="494"/>
      <point x="346" y="476"/>
      <point x="334" y="471" type="qcurve"/>
      <point x="250" y="464" type="line"/>
      <point x="252" y="461"/>
      <point x="256" y="457" type="qcurve"/>
      <point x="259" y="453"/>
      <point x="266" y="443"/>
      <point x="271" y="438" type="qcurve"/>
      <point x="283" y="424"/>
      <point x="309" y="401"/>
      <point x="327" y="401" type="qcurve"/>
      <point x="341" y="401"/>
      <point x="370" y="406"/>
      <point x="386" y="411" type="qcurve"/>
      <point x="386" y="358" type="line"/>
      <point x="372" y="353"/>
      <point x="344" y="348"/>
      <point x="330" y="348" type="qcurve"/>
      <point x="281" y="348"/>
      <point x="230" y="395"/>
      <point x="210" y="440" type="qcurve"/>
      <point x="171" y="347" type="line"/>
      <point x="162" y="331"/>
      <point x="141" y="331" type="qcurve"/>
      <point x="125" y="331"/>
      <point x="97" y="355"/>
      <point x="97" y="372" type="qcurve"/>
      <point x="97" y="384"/>
      <point x="103" y="395" type="qcurve"/>
      <point x="179" y="460" type="line"/>
      <point x="78" y="468" type="line"/>
      <point x="66" y="472"/>
      <point x="50" y="489"/>
      <point x="50" y="502" type="qcurve"/>
      <point x="50" y="519"/>
      <point x="70" y="550"/>
      <point x="90" y="550" type="qcurve"/>
      <point x="97" y="550"/>
      <point x="103" y="547" type="qcurve"/>
    </contour>
  </outline>
</glyph>
<glyph name="comma" format="1">
  <advance width="266"/>
  <unicode hex="002C"/>
  <outline>
    <contour>
      <point x="50" y="62" type="qcurve"/>
      <point x="50" y="107"/>
      <point x="88" y="149"/>
      <point x="133" y="149" type="qcurve"/>
      <point x="181" y="149"/>
      <point x="216" y="107"/>
      <point x="216" y="62" type="qcurve"/>
      <point x="216" y="8"/>
      <point x="210" y="-63"/>
      <point x="183" y="-107"/>
      <point x="126" y="-125"/>
      <point x="74" y="-125" type="qcurve"/>
      <point x="74" y="-77" type="line"/>
      <point x="82" y="-77" type="line"/>
      <point x="124" y="-77"/>
      <point x="160" y="-55"/>
      <point x="162" y="-21" type="qcurve"/>
      <point x="148" y="-24"/>
      <point x="133" y="-24" type="qcurve"/>
      <point x="88" y="-24"/>
      <point x="50" y="17"/>
    </contour>
  </outline>
</glyph>
<glyph name="hyphen" format="1">
  <advance width="392"/>
  <unicode hex="002D"/>
  <outline>
    <contour>
      <point x="342" y="322" type="line"/>
      <point x="342" y="264" type="line"/>
      <point x="50" y="264" type="line"/>
      <point x="50" y="322" type="line"/>
    </contour>
  </outline>
</glyph>
<glyph name="period" format="1">
  <advance width="266"/>
  <unicode hex="002E"/>
  <outline>
    <contour>
      <point x="50" y="62" type="qcurve"/>
      <point x="50" y="107"/>
      <point x="88" y="149"/>
      <point x="133" y="149" type="qcurve"/>
      <point x="181" y="149"/>
      <point x="216" y="107"/>
      <point x="216" y="62" type="qcurve"/>
      <point x="216" y="17"/>
      <point x="178" y="-24"/>
      <point x="133" y="-24" type="qcurve"/>
      <point x="88" y="-24"/>
      <point x="50" y="17"/>
    </contour>
  </outline>
</glyph>
<glyph name="zero" format="1">
  <advance width="605"/>
  <unicode hex="0030"/>
  <outline>
    <contour>
      <point x="232" y="288" type="qcurve"/>
      <point x="232" y="237"/>
      <point x="239" y="149"/>
      <point x="244" y="117" type="qcurve"/>
      <point x="249" y="79"/>
      <point x="257" y="47" type="qcurve"/>
      <point x="263" y="45"/>
      <point x="270" y="43" type="qcurve"/>
      <point x="276" y="41"/>
      <point x="293" y="39"/>
      <point x="302" y="39" type="qcurve"/>
      <point x="311" y="39"/>
      <point x="328" y="41"/>
      <point x="334" y="43" type="qcurve"/>
      <point x="341" y="45"/>
      <point x="347" y="47" type="qcurve"/>
      <point x="354" y="80"/>
      <point x="360" y="119" type="qcurve"/>
      <point x="365" y="152"/>
      <point x="373" y="239"/>
      <point x="373" y="288" type="qcurve"/>
      <point x="373" y="339"/>
      <point x="365" y="426"/>
      <point x="360" y="458" type="qcurve"/>
      <point x="354" y="496"/>
      <point x="347" y="528" type="qcurve"/>
      <point x="341" y="530"/>
      <point x="334" y="532" type="qcurve"/>
      <point x="328" y="534"/>
      <point x="311" y="536"/>
      <point x="302" y="536" type="qcurve"/>
      <point x="293" y="536"/>
      <point x="276" y="534"/>
      <point x="270" y="532" type="qcurve"/>
      <point x="263" y="530"/>
      <point x="257" y="528" type="qcurve"/>
      <point x="249" y="495"/>
      <point x="244" y="456" type="qcurve"/>
      <point x="239" y="423"/>
      <point x="232" y="336"/>
    </contour>
    <contour>
      <point x="50" y="287" type="qcurve"/>
      <point x="50" y="368"/>
      <point x="78" y="481"/>
      <point x="140" y="553"/>
      <point x="235" y="586"/>
      <point x="303" y="586" type="qcurve"/>
      <point x="370" y="586"/>
      <point x="466" y="553"/>
      <point x="527" y="481"/>
      <point x="555" y="368"/>
      <point x="555" y="287" type="qcurve"/>
      <point x="555" y="207"/>
      <point x="527" y="94"/>
      <point x="466" y="22"/>
      <point x="370" y="-11"/>
      <point x="303" y="-11" type="qcurve"/>
      <point x="235" y="-11"/>
      <point x="140" y="22"/>
      <point x="78" y="94"/>
      <point x="50" y="207"/>
    </contour>
  </outline>
</glyph>
<glyph name="two" format="1">
  <advance width="477"/>
  <unicode hex="0032"/>
  <outline>
    <contour>
      <point x="225" y="588" type="qcurve"/>
      <point x="273" y="588"/>
      <point x="343" y="563"/>
      <point x="388" y="519"/>
      <point x="410" y="459"/>
      <point x="410" y="425" type="qcurve"/>
      <point x="410" y="364"/>
      <point x="351" y="294"/>
      <point x="291" y="269" type="qcurve"/>
      <point x="259" y="255"/>
      <point x="199" y="227"/>
      <point x="173" y="204" type="qcurve"/>
      <point x="162" y="194"/>
      <point x="144" y="176"/>
      <point x="137" y="168" type="qcurve"/>
      <point x="129" y="159"/>
      <point x="123" y="152" type="qcurve"/>
      <point x="369" y="152" type="line"/>
      <point x="369" y="219" type="line"/>
      <point x="421" y="219" type="line"/>
      <point x="423" y="208"/>
      <point x="426" y="193" type="qcurve"/>
      <point x="428" y="180"/>
      <point x="432" y="145"/>
      <point x="432" y="124" type="qcurve"/>
      <point x="432" y="64"/>
      <point x="381" y="0"/>
      <point x="314" y="0" type="qcurve"/>
      <point x="20" y="0" type="line"/>
      <point x="25" y="84"/>
      <point x="82" y="198"/>
      <point x="141" y="242" type="qcurve"/>
      <point x="156" y="253"/>
      <point x="185" y="272"/>
      <point x="196" y="279" type="qcurve"/>
      <point x="221" y="294" type="line"/>
      <point x="224" y="314"/>
      <point x="228" y="335" type="qcurve"/>
      <point x="230" y="353"/>
      <point x="235" y="397"/>
      <point x="235" y="419" type="qcurve"/>
      <point x="235" y="436"/>
      <point x="230" y="477"/>
      <point x="227" y="494" type="qcurve"/>
      <point x="223" y="514"/>
      <point x="220" y="535" type="qcurve"/>
      <point x="196" y="535"/>
      <point x="147" y="530"/>
      <point x="107" y="518"/>
      <point x="81" y="496"/>
      <point x="81" y="478" type="qcurve"/>
      <point x="81" y="452" type="line"/>
      <point x="21" y="452" type="line"/>
      <point x="21" y="479" type="line"/>
      <point x="21" y="517"/>
      <point x="65" y="560"/>
      <point x="128" y="582"/>
      <point x="198" y="588"/>
    </contour>
  </outline>
</glyph>
<glyph name="three" format="1">
  <advance width="460"/>
  <unicode hex="0033"/>
  <outline>
    <contour>
      <point x="226" y="339" type="line"/>
      <point x="228" y="356"/>
      <point x="234" y="396"/>
      <point x="234" y="419" type="qcurve"/>
      <point x="234" y="436"/>
      <point x="229" y="477"/>
      <point x="226" y="494" type="qcurve"/>
      <point x="222" y="514"/>
      <point x="219" y="535" type="qcurve"/>
      <point x="195" y="535"/>
      <point x="146" y="530"/>
      <point x="106" y="518"/>
      <point x="80" y="496"/>
      <point x="80" y="478" type="qcurve"/>
      <point x="80" y="452" type="line"/>
      <point x="20" y="452" type="line"/>
      <point x="20" y="479" type="line"/>
      <point x="20" y="517"/>
      <point x="64" y="560"/>
      <point x="127" y="582"/>
      <point x="197" y="588"/>
      <point x="224" y="588" type="qcurve"/>
      <point x="272" y="588"/>
      <point x="340" y="563"/>
      <point x="382" y="519"/>
      <point x="401" y="459"/>
      <point x="401" y="425" type="qcurve"/>
      <point x="401" y="380"/>
      <point x="374" y="323"/>
      <point x="343" y="303" type="qcurve"/>
      <point x="380" y="283"/>
      <point x="415" y="215"/>
      <point x="415" y="155" type="qcurve"/>
      <point x="415" y="77"/>
      <point x="327" y="-10"/>
      <point x="224" y="-10" type="qcurve"/>
      <point x="197" y="-10"/>
      <point x="127" y="-4"/>
      <point x="64" y="18"/>
      <point x="20" y="61"/>
      <point x="20" y="99" type="qcurve"/>
      <point x="20" y="131" type="line"/>
      <point x="80" y="131" type="line"/>
      <point x="80" y="100" type="line"/>
      <point x="80" y="82"/>
      <point x="106" y="60"/>
      <point x="146" y="48"/>
      <point x="195" y="43"/>
      <point x="219" y="43" type="qcurve"/>
      <point x="222" y="63"/>
      <point x="226" y="82" type="qcurve"/>
      <point x="229" y="99"/>
      <point x="234" y="138"/>
      <point x="234" y="156" type="qcurve"/>
      <point x="234" y="188"/>
      <point x="226" y="261"/>
      <point x="223" y="281" type="qcurve"/>
      <point x="129" y="281" type="line"/>
      <point x="129" y="339" type="line"/>
    </contour>
  </outline>
</glyph>
<glyph name="five" format="1">
  <advance width="455"/>
  <unicode hex="0035"/>
  <outline>
    <contour>
      <point x="121" y="426" type="line"/>
      <point x="121" y="339" type="line"/>
      <point x="203" y="339" type="line"/>
      <point x="254" y="339"/>
      <point x="336" y="328"/>
      <point x="394" y="291"/>
      <point x="425" y="220"/>
      <point x="425" y="160" type="qcurve"/>
      <point x="425" y="78"/>
      <point x="331" y="-10"/>
      <point x="234" y="-10" type="qcurve"/>
      <point x="207" y="-10"/>
      <point x="137" y="-4"/>
      <point x="74" y="18"/>
      <point x="30" y="61"/>
      <point x="30" y="99" type="qcurve"/>
      <point x="30" y="126" type="line"/>
      <point x="90" y="126" type="line"/>
      <point x="90" y="100" type="line"/>
      <point x="90" y="82"/>
      <point x="116" y="60"/>
      <point x="156" y="48"/>
      <point x="205" y="43"/>
      <point x="229" y="43" type="qcurve"/>
      <point x="232" y="65"/>
      <point x="236" y="87" type="qcurve"/>
      <point x="239" y="106"/>
      <point x="244" y="148"/>
      <point x="244" y="166" type="qcurve"/>
      <point x="244" y="186"/>
      <point x="240" y="227"/>
      <point x="238" y="244" type="qcurve"/>
      <point x="235" y="263"/>
      <point x="233" y="281" type="qcurve"/>
      <point x="63" y="281" type="line"/>
      <point x="63" y="574" type="line"/>
      <point x="339" y="574" type="line"/>
      <point x="339" y="631" type="line"/>
      <point x="390" y="631" type="line"/>
      <point x="392" y="623"/>
      <point x="395" y="612" type="qcurve"/>
      <point x="397" y="602"/>
      <point x="401" y="571"/>
      <point x="401" y="550" type="qcurve"/>
      <point x="401" y="490"/>
      <point x="350" y="426"/>
      <point x="283" y="426" type="qcurve"/>
    </contour>
  </outline>
</glyph>
<glyph name="six" format="1">
  <advance width="547"/>
  <unicode hex="0036"/>
  <outline>
    <contour>
      <point x="279" y="-10" type="qcurve"/>
      <point x="216" y="-10"/>
      <point x="129" y="23"/>
      <point x="74" y="94"/>
      <point x="50" y="207"/>
      <point x="50" y="287" type="qcurve"/>
      <point x="50" y="368"/>
      <point x="74" y="481"/>
      <point x="127" y="553"/>
      <point x="212" y="586"/>
      <point x="273" y="586" type="qcurve"/>
      <point x="300" y="586"/>
      <point x="370" y="580"/>
      <point x="433" y="558"/>
      <point x="476" y="514"/>
      <point x="476" y="477" type="qcurve"/>
      <point x="476" y="450" type="line"/>
      <point x="416" y="450" type="line"/>
      <point x="416" y="476" type="line"/>
      <point x="416" y="494"/>
      <point x="391" y="516"/>
      <point x="351" y="528"/>
      <point x="302" y="533"/>
      <point x="278" y="533" type="qcurve"/>
      <point x="268" y="533"/>
      <point x="254" y="532"/>
      <point x="249" y="531" type="qcurve"/>
      <point x="244" y="530"/>
      <point x="240" y="529" type="qcurve"/>
      <point x="237" y="500"/>
      <point x="233" y="434"/>
      <point x="233" y="399" type="qcurve"/>
      <point x="233" y="342" type="line"/>
      <point x="244" y="343"/>
      <point x="267" y="344"/>
      <point x="279" y="344" type="qcurve"/>
      <point x="331" y="344"/>
      <point x="416" y="332"/>
      <point x="475" y="295"/>
      <point x="507" y="228"/>
      <point x="507" y="174" type="qcurve"/>
      <point x="507" y="128"/>
      <point x="483" y="59"/>
      <point x="429" y="13"/>
      <point x="342" y="-10"/>
    </contour>
    <contour>
      <point x="232" y="166" type="line"/>
      <point x="232" y="139"/>
      <point x="236" y="93"/>
      <point x="238" y="76" type="qcurve"/>
      <point x="241" y="56"/>
      <point x="244" y="40" type="qcurve"/>
      <point x="248" y="38"/>
      <point x="253" y="37" type="qcurve"/>
      <point x="258" y="36"/>
      <point x="270" y="35"/>
      <point x="279" y="35" type="qcurve"/>
      <point x="287" y="35"/>
      <point x="300" y="36"/>
      <point x="305" y="37" type="qcurve"/>
      <point x="310" y="38"/>
      <point x="314" y="40" type="qcurve"/>
      <point x="317" y="56"/>
      <point x="320" y="76" type="qcurve"/>
      <point x="322" y="93"/>
      <point x="327" y="139"/>
      <point x="327" y="166" type="qcurve"/>
      <point x="327" y="193"/>
      <point x="322" y="240"/>
      <point x="320" y="257" type="qcurve"/>
      <point x="317" y="277"/>
      <point x="314" y="293" type="qcurve"/>
      <point x="304" y="295" type="line"/>
      <point x="299" y="296"/>
      <point x="287" y="298"/>
      <point x="279" y="298" type="qcurve"/>
      <point x="271" y="298"/>
      <point x="245" y="297"/>
      <point x="232" y="296" type="qcurve"/>
    </contour>
  </outline>
</glyph>
<glyph name="seven" format="1">
  <advance width="438"/>
  <unicode hex="0037"/>
  <outline>
    <contour>
      <point x="211" y="289" type="line"/>
      <point x="228" y="326"/>
      <point x="262" y="394"/>
      <point x="279" y="426" type="qcurve"/>
      <point x="128" y="426" type="line"/>
      <point x="94" y="426"/>
      <point x="49" y="442"/>
      <point x="22" y="474"/>
      <point x="10" y="520"/>
      <point x="10" y="550" type="qcurve"/>
      <point x="10" y="590"/>
      <point x="15" y="612" type="qcurve"/>
      <point x="18" y="623"/>
      <point x="21" y="631" type="qcurve"/>
      <point x="72" y="631" type="line"/>
      <point x="72" y="574" type="line"/>
      <point x="428" y="574" type="line"/>
      <point x="428" y="552" type="line"/>
      <point x="406" y="515"/>
      <point x="382" y="473" type="qcurve"/>
      <point x="362" y="437"/>
      <point x="312" y="342"/>
      <point x="289" y="289" type="qcurve"/>
      <point x="356" y="289" type="line"/>
      <point x="356" y="231" type="line"/>
      <point x="264" y="231" type="line"/>
      <point x="238" y="168"/>
      <point x="204" y="48"/>
      <point x="204" y="0" type="qcurve"/>
      <point x="131" y="0" type="line"/>
      <point x="131" y="50"/>
      <point x="162" y="169"/>
      <point x="187" y="231" type="qcurve"/>
      <point x="105" y="231" type="line"/>
      <point x="105" y="289" type="line"/>
    </contour>
  </outline>
</glyph>
<glyph name="eight" format="1">
  <advance width="576"/>
  <unicode hex="0038"/>
  <outline>
    <contour>
      <point x="73" y="442" type="qcurve"/>
      <point x="73" y="476"/>
      <point x="94" y="530"/>
      <point x="142" y="567"/>
      <point x="220" y="586"/>
      <point x="278" y="586" type="qcurve"/>
      <point x="298" y="586" type="line"/>
      <point x="329" y="586"/>
      <point x="376" y="587"/>
      <point x="408" y="596"/>
      <point x="425" y="614"/>
      <point x="425" y="631" type="qcurve"/>
      <point x="479" y="631" type="line"/>
      <point x="479" y="599"/>
      <point x="449" y="566"/>
      <point x="423" y="558" type="qcurve"/>
      <point x="456" y="540"/>
      <point x="484" y="481"/>
      <point x="484" y="442" type="qcurve"/>
      <point x="484" y="395"/>
      <point x="445" y="335"/>
      <point x="397" y="321" type="qcurve"/>
      <point x="454" y="305"/>
      <point x="507" y="231"/>
      <point x="507" y="167" type="qcurve"/>
      <point x="507" y="76"/>
      <point x="399" y="-10"/>
      <point x="278" y="-10" type="qcurve"/>
      <point x="158" y="-10"/>
      <point x="50" y="76"/>
      <point x="50" y="167" type="qcurve"/>
      <point x="50" y="231"/>
      <point x="103" y="305"/>
      <point x="160" y="321" type="qcurve"/>
      <point x="112" y="335"/>
      <point x="73" y="395"/>
    </contour>
    <contour>
      <point x="232" y="166" type="qcurve"/>
      <point x="232" y="139"/>
      <point x="236" y="92"/>
      <point x="238" y="75" type="qcurve"/>
      <point x="241" y="55"/>
      <point x="244" y="39" type="qcurve"/>
      <point x="248" y="38"/>
      <point x="253" y="37" type="qcurve"/>
      <point x="258" y="36"/>
      <point x="271" y="35"/>
      <point x="279" y="35" type="qcurve"/>
      <point x="287" y="35"/>
      <point x="301" y="36"/>
      <point x="306" y="37" type="qcurve"/>
      <point x="311" y="38"/>
      <point x="315" y="39" type="qcurve"/>
      <point x="318" y="55"/>
      <point x="321" y="75" type="qcurve"/>
      <point x="323" y="92"/>
      <point x="327" y="139"/>
      <point x="327" y="166" type="qcurve"/>
      <point x="327" y="193"/>
      <point x="323" y="241"/>
      <point x="321" y="258" type="qcurve"/>
      <point x="318" y="278"/>
      <point x="315" y="295" type="qcurve"/>
      <point x="244" y="295" type="line"/>
      <point x="241" y="278"/>
      <point x="238" y="258" type="qcurve"/>
      <point x="236" y="241"/>
      <point x="232" y="193"/>
    </contour>
    <contour>
      <point x="244" y="442" type="qcurve"/>
      <point x="244" y="422"/>
      <point x="246" y="388"/>
      <point x="248" y="375" type="qcurve"/>
      <point x="250" y="360"/>
      <point x="253" y="348" type="qcurve"/>
      <point x="306" y="348" type="line"/>
      <point x="308" y="360"/>
      <point x="310" y="375" type="qcurve"/>
      <point x="312" y="388"/>
      <point x="315" y="422"/>
      <point x="315" y="442" type="qcurve"/>
      <point x="315" y="462"/>
      <point x="312" y="497"/>
      <point x="310" y="510" type="qcurve"/>
      <point x="308" y="525"/>
      <point x="306" y="537" type="qcurve"/>
      <point x="302" y="537"/>
      <point x="298" y="538" type="qcurve"/>
      <point x="294" y="539"/>
      <point x="285" y="540"/>
      <point x="279" y="540" type="qcurve"/>
      <point x="268" y="540"/>
      <point x="260" y="538" type="qcurve"/>
      <point x="256" y="537"/>
      <point x="253" y="537" type="qcurve"/>
      <point x="250" y="525"/>
      <point x="248" y="510" type="qcurve"/>
      <point x="246" y="497"/>
      <point x="244" y="462"/>
    </contour>
  </outline>
</glyph>
<glyph name="nine" format="1">
  <advance width="547"/>
  <unicode hex="0039"/>
  <outline>
    <contour>
      <point x="268" y="586" type="qcurve"/>
      <point x="331" y="586"/>
      <point x="418" y="553"/>
      <point x="473" y="482"/>
      <point x="497" y="369"/>
      <point x="497" y="289" type="qcurve"/>
      <point x="497" y="208"/>
      <point x="473" y="95"/>
      <point x="420" y="23"/>
      <point x="335" y="-10"/>
      <point x="274" y="-10" type="qcurve"/>
      <point x="247" y="-10"/>
      <point x="177" y="-4"/>
      <point x="114" y="18"/>
      <point x="71" y="61"/>
      <point x="71" y="99" type="qcurve"/>
      <point x="71" y="126" type="line"/>
      <point x="131" y="126" type="line"/>
      <point x="131" y="100" type="line"/>
      <point x="131" y="82"/>
      <point x="156" y="60"/>
      <point x="196" y="48"/>
      <point x="245" y="43"/>
      <point x="269" y="43" type="qcurve"/>
      <point x="279" y="43"/>
      <point x="293" y="44"/>
      <point x="298" y="45" type="qcurve"/>
      <point x="303" y="46"/>
      <point x="307" y="47" type="qcurve"/>
      <point x="310" y="76"/>
      <point x="314" y="142"/>
      <point x="314" y="177" type="qcurve"/>
      <point x="314" y="234" type="line"/>
      <point x="303" y="233"/>
      <point x="280" y="232"/>
      <point x="268" y="232" type="qcurve"/>
      <point x="215" y="232"/>
      <point x="131" y="244"/>
      <point x="72" y="281"/>
      <point x="40" y="348"/>
      <point x="40" y="402" type="qcurve"/>
      <point x="40" y="448"/>
      <point x="64" y="517"/>
      <point x="118" y="563"/>
      <point x="205" y="586"/>
    </contour>
    <contour>
      <point x="315" y="410" type="line"/>
      <point x="315" y="437"/>
      <point x="311" y="483"/>
      <point x="309" y="500" type="qcurve"/>
      <point x="306" y="519"/>
      <point x="303" y="536" type="qcurve"/>
      <point x="299" y="537"/>
      <point x="294" y="538" type="qcurve"/>
      <point x="289" y="539"/>
      <point x="276" y="541"/>
      <point x="268" y="541" type="qcurve"/>
      <point x="259" y="541"/>
      <point x="247" y="539"/>
      <point x="242" y="538" type="qcurve"/>
      <point x="237" y="537"/>
      <point x="233" y="536" type="qcurve"/>
      <point x="229" y="519"/>
      <point x="226" y="500" type="qcurve"/>
      <point x="224" y="483"/>
      <point x="220" y="437"/>
      <point x="220" y="410" type="qcurve"/>
      <point x="220" y="382"/>
      <point x="224" y="336"/>
      <point x="226" y="319" type="qcurve"/>
      <point x="229" y="299"/>
      <point x="233" y="283" type="qcurve"/>
      <point x="238" y="281"/>
      <point x="243" y="280" type="qcurve"/>
      <point x="248" y="279"/>
      <point x="260" y="278"/>
      <point x="268" y="278" type="qcurve"/>
      <point x="276" y="278"/>
      <point x="302" y="279"/>
      <point x="315" y="280" type="qcurve"/>
    </contour>
  </outline>
</glyph>
<glyph name="colon" format="1">
  <advance width="286"/>
  <unicode hex="003A"/>
  <outline>
    <contour>
      <point x="80" y="62" type="qcurve"/>
      <point x="80" y="107"/>
      <point x="118" y="149"/>
      <point x="163" y="149" type="qcurve"/>
      <point x="211" y="149"/>
      <point x="246" y="107"/>
      <point x="246" y="62" type="qcurve"/>
      <point x="246" y="17"/>
      <point x="208" y="-24"/>
      <point x="163" y="-24" type="qcurve"/>
      <point x="118" y="-24"/>
      <point x="80" y="17"/>
    </contour>
    <contour>
      <point x="80" y="369" type="qcurve"/>
      <point x="80" y="414"/>
      <point x="118" y="456"/>
      <point x="163" y="456" type="qcurve"/>
      <point x="211" y="456"/>
      <point x="246" y="414"/>
      <point x="246" y="369" type="qcurve"/>
      <point x="246" y="324"/>
      <point x="208" y="283"/>
      <point x="163" y="283" type="qcurve"/>
      <point x="118" y="283"/>
      <point x="80" y="324"/>
    </contour>
  </outline>
</glyph>
<glyph name="semicolon" format="1">
  <advance width="286"/>
  <unicode hex="003B"/>
  <outline>
    <contour>
      <point x="80" y="369" type="qcurve"/>
      <point x="80" y="414"/>
      <point x="118" y="456"/>
      <point x="163" y="456" type="qcurve"/>
      <point x="211" y="456"/>
      <point x="246" y="414"/>
      <point x="246" y="369" type="qcurve"/>
      <point x="246" y="324"/>
      <point x="208" y="283"/>
      <point x="163" y="283" type="qcurve"/>
      <point x="118" y="283"/>
      <point x="80" y="324"/>
    </contour>
    <contour>
      <point x="80" y="62" type="qcurve"/>
      <point x="80" y="107"/>
      <point x="118" y="149"/>
      <point x="163" y="149" type="qcurve"/>
      <point x="211" y="149"/>
      <point x="246" y="107"/>
      <point x="246" y="62" type="qcurve"/>
      <point x="246" y="8"/>
      <point x="240" y="-63"/>
      <point x="213" y="-107"/>
      <point x="156" y="-125"/>
      <point x="104" y="-125" type="qcurve"/>
      <point x="104" y="-77" type="line"/>
      <point x="112" y="-77" type="line"/>
      <point x="154" y="-77"/>
      <point x="190" y="-55"/>
      <point x="192" y="-21" type="qcurve"/>
      <point x="178" y="-24"/>
      <point x="163" y="-24" type="qcurve"/>
      <point x="118" y="-24"/>
      <point x="80" y="17"/>
    </contour>
  </outline>
</glyph>
<glyph name="equal" format="1">
  <advance width="472"/>
  <unicode hex="003D"/>
  <outline>
    <contour>
      <point x="412" y="395" type="line"/>
      <point x="412" y="337" type="line"/>
      <point x="60" y="337" type="line"/>
      <point x="60" y="395" type="line"/>
    </contour>
    <contour>
      <point x="412" y="235" type="line"/>
      <point x="412" y="177" type="line"/>
      <point x="60" y="177" type="line"/>
      <point x="60" y="235" type="line"/>
    </contour>
  </outline>
</glyph>
<glyph name="question" format="1">
  <advance width="394"/>
  <unicode hex="003F"/>
  <outline>
    <contour>
      <point x="105" y="62" type="qcurve"/>
      <point x="105" y="107"/>
      <point x="143" y="149"/>
      <point x="188" y="149" type="qcurve"/>
      <point x="236" y="149"/>
      <point x="271" y="107"/>
      <point x="271" y="62" type="qcurve"/>
      <point x="271" y="17"/>
      <point x="233" y="-24"/>
      <point x="188" y="-24" type="qcurve"/>
      <point x="143" y="-24"/>
      <point x="105" y="17"/>
    </contour>
    <contour>
      <point x="159" y="198" type="line"/>
      <point x="159" y="294" type="line"/>
      <point x="170" y="306"/>
      <point x="179" y="324" type="qcurve"/>
      <point x="187" y="339"/>
      <point x="199" y="387"/>
      <point x="199" y="419" type="qcurve"/>
      <point x="199" y="444"/>
      <point x="196" y="486"/>
      <point x="194" y="502" type="qcurve"/>
      <point x="191" y="520"/>
      <point x="189" y="535" type="qcurve"/>
      <point x="141" y="535"/>
      <point x="80" y="511"/>
      <point x="80" y="478" type="qcurve"/>
      <point x="80" y="452" type="line"/>
      <point x="20" y="452" type="line"/>
      <point x="20" y="479" type="line"/>
      <point x="20" y="516"/>
      <point x="58" y="559"/>
      <point x="113" y="581"/>
      <point x="177" y="588"/>
      <point x="204" y="588" type="qcurve"/>
      <point x="252" y="588"/>
      <point x="318" y="563"/>
      <point x="357" y="519"/>
      <point x="374" y="459"/>
      <point x="374" y="425" type="qcurve"/>
      <point x="374" y="391"/>
      <point x="354" y="331"/>
      <point x="313" y="286"/>
      <point x="252" y="260"/>
      <point x="212" y="260" type="qcurve"/>
      <point x="212" y="198" type="line"/>
    </contour>
  </outline>
</glyph>
<glyph name="at" format="1">
  <advance width="836"/>
  <unicode hex="0040"/>
  <outline>
    <contour>
      <point x="594" y="94" type="line"/>
      <point x="604" y="94" type="line"/>
      <point x="666" y="94"/>
      <point x="707" y="180"/>
      <point x="707" y="260" type="qcurve"/>
      <point x="707" y="381"/>
      <point x="569" y="505"/>
      <point x="429" y="505" type="qcurve"/>
      <point x="360" y="505"/>
      <point x="251" y="467"/>
      <point x="175" y="395"/>
      <point x="134" y="289"/>
      <point x="134" y="220" type="qcurve"/>
      <point x="134" y="83"/>
      <point x="258" y="-62"/>
      <point x="389" y="-62" type="qcurve"/>
      <point x="414" y="-62"/>
      <point x="465" y="-57"/>
      <point x="506" y="-45"/>
      <point x="532" y="-26"/>
      <point x="532" y="-12" type="qcurve"/>
      <point x="532" y="0" type="line"/>
      <point x="594" y="0" type="line"/>
      <point x="594" y="-11" type="line"/>
      <point x="594" y="-37"/>
      <point x="564" y="-77"/>
      <point x="509" y="-104"/>
      <point x="433" y="-119"/>
      <point x="388" y="-119" type="qcurve"/>
      <point x="229" y="-119"/>
      <point x="70" y="56"/>
      <point x="70" y="221" type="qcurve"/>
      <point x="70" y="303"/>
      <point x="119" y="430"/>
      <point x="212" y="517"/>
      <point x="345" y="562"/>
      <point x="428" y="562" type="qcurve"/>
      <point x="596" y="562"/>
      <point x="771" y="414"/>
      <point x="771" y="261" type="qcurve"/>
      <point x="771" y="214"/>
      <point x="754" y="134"/>
      <point x="714" y="76"/>
      <point x="647" y="42"/>
      <point x="597" y="42" type="qcurve"/>
      <point x="551" y="42"/>
      <point x="473" y="62"/>
      <point x="453" y="82" type="qcurve"/>
      <point x="430" y="63"/>
      <point x="377" y="42"/>
      <point x="347" y="42" type="qcurve"/>
      <point x="280" y="42"/>
      <point x="209" y="125"/>
      <point x="209" y="225" type="qcurve"/>
      <point x="209" y="276"/>
      <point x="229" y="345"/>
      <point x="274" y="389"/>
      <point x="346" y="408"/>
      <point x="399" y="408" type="qcurve"/>
      <point x="429" y="408"/>
      <point x="483" y="398"/>
      <point x="499" y="394" type="qcurve"/>
      <point x="594" y="398" type="line"/>
    </contour>
    <contour>
      <point x="436" y="361" type="line"/>
      <point x="431" y="362"/>
      <point x="423" y="363"/>
      <point x="419" y="363" type="qcurve"/>
      <point x="411" y="363"/>
      <point x="399" y="361"/>
      <point x="394" y="360" type="qcurve"/>
      <point x="389" y="359"/>
      <point x="385" y="358" type="qcurve"/>
      <point x="382" y="342"/>
      <point x="379" y="322" type="qcurve"/>
      <point x="377" y="305"/>
      <point x="373" y="256"/>
      <point x="373" y="225" type="qcurve"/>
      <point x="373" y="187"/>
      <point x="377" y="138"/>
      <point x="379" y="123" type="qcurve"/>
      <point x="382" y="105"/>
      <point x="385" y="96" type="qcurve"/>
      <point x="410" y="96"/>
      <point x="436" y="120" type="qcurve"/>
    </contour>
  </outline>
</glyph>
<glyph name="B" format="1">
  <advance width="639"/>
  <unicode hex="0042"/>
  <outline>
    <contour>
      <point x="114" y="58" type="line"/>
      <point x="114" y="557" type="line"/>
      <point x="25" y="557" type="line"/>
      <point x="25" y="615" type="line"/>
      <point x="255" y="615" type="line"/>
      <point x="273" y="615"/>
      <point x="305" y="617"/>
      <point x="321" y="617" type="qcurve"/>
      <point x="450" y="617"/>
      <point x="573" y="548"/>
      <point x="573" y="463" type="qcurve"/>
      <point x="573" y="404"/>
      <point x="514" y="340"/>
      <point x="470" y="327" type="qcurve"/>
      <point x="533" y="311"/>
      <point x="594" y="236"/>
      <point x="594" y="170" type="qcurve"/>
      <point x="594" y="123"/>
      <point x="563" y="57"/>
      <point x="501" y="16"/>
      <point x="405" y="-2"/>
      <point x="341" y="-2" type="qcurve"/>
      <point x="324" y="-2"/>
      <point x="284" y="0"/>
      <point x="261" y="0" type="qcurve"/>
      <point x="25" y="0" type="line"/>
      <point x="25" y="58" type="line"/>
    </contour>
    <contour>
      <point x="282" y="300" type="line"/>
      <point x="282" y="51" type="line"/>
      <point x="307" y="48"/>
      <point x="341" y="48" type="qcurve"/>
      <point x="352" y="48"/>
      <point x="371" y="49"/>
      <point x="378" y="50" type="qcurve"/>
      <point x="386" y="51"/>
      <point x="392" y="53" type="qcurve"/>
      <point x="396" y="68"/>
      <point x="400" y="86" type="qcurve"/>
      <point x="403" y="102"/>
      <point x="408" y="145"/>
      <point x="408" y="173" type="qcurve"/>
      <point x="408" y="199"/>
      <point x="401" y="246"/>
      <point x="397" y="263" type="qcurve"/>
      <point x="393" y="283"/>
      <point x="387" y="300" type="qcurve"/>
    </contour>
    <contour>
      <point x="321" y="566" type="qcurve"/>
      <point x="300" y="566"/>
      <point x="282" y="563" type="qcurve"/>
      <point x="282" y="352" type="line"/>
      <point x="385" y="352" type="line"/>
      <point x="387" y="366"/>
      <point x="389" y="384" type="qcurve"/>
      <point x="391" y="399"/>
      <point x="394" y="438"/>
      <point x="394" y="461" type="qcurve"/>
      <point x="394" y="484"/>
      <point x="389" y="521"/>
      <point x="386" y="535" type="qcurve"/>
      <point x="382" y="550"/>
      <point x="379" y="562" type="qcurve"/>
      <point x="372" y="563"/>
      <point x="362" y="564" type="qcurve"/>
      <point x="354" y="565"/>
      <point x="332" y="566"/>
    </contour>
  </outline>
</glyph>
<glyph name="C" format="1">
  <advance width="572"/>
  <unicode hex="0043"/>
  <outline>
    <contour>
      <point x="328" y="0" type="move" name="bottom"/>
    </contour>
    <contour>
      <point x="516" y="411" type="line"/>
      <point x="454" y="411"/>
      <point x="382" y="459"/>
      <point x="345" y="519"/>
      <point x="333" y="573"/>
      <point x="333" y="580" type="qcurve"/>
      <point x="316" y="579"/>
      <point x="289" y="577"/>
      <point x="280" y="575" type="qcurve"/>
      <point x="269" y="573"/>
      <point x="261" y="571" type="qcurve"/>
      <point x="252" y="536"/>
      <point x="246" y="494" type="qcurve"/>
      <point x="241" y="458"/>
      <point x="232" y="362"/>
      <point x="232" y="308" type="qcurve"/>
      <point x="232" y="253"/>
      <point x="241" y="158"/>
      <point x="246" y="122" type="qcurve"/>
      <point x="252" y="80"/>
      <point x="261" y="44" type="qcurve"/>
      <point x="267" y="42"/>
      <point x="277" y="40" type="qcurve"/>
      <point x="293" y="37"/>
      <point x="328" y="37" type="qcurve"/>
      <point x="361" y="37"/>
      <point x="416" y="52"/>
      <point x="456" y="85"/>
      <point x="479" y="138"/>
      <point x="479" y="175" type="qcurve"/>
      <point x="479" y="206" type="line"/>
      <point x="537" y="206" type="line"/>
      <point x="537" y="178" type="line"/>
      <point x="537" y="127"/>
      <point x="503" y="54"/>
      <point x="445" y="7"/>
      <point x="370" y="-15"/>
      <point x="328" y="-15" type="qcurve"/>
      <point x="256" y="-15"/>
      <point x="150" y="20"/>
      <point x="79" y="98"/>
      <point x="45" y="221"/>
      <point x="45" y="308" type="qcurve"/>
      <point x="45" y="395"/>
      <point x="80" y="517"/>
      <point x="153" y="595"/>
      <point x="266" y="630"/>
      <point x="344" y="630" type="qcurve"/>
      <point x="378" y="630"/>
      <point x="440" y="625"/>
      <point x="464" y="622" type="qcurve"/>
      <point x="492" y="618"/>
      <point x="516" y="615" type="qcurve"/>
    </contour>
  </outline>
</glyph>
<glyph name="D" format="1">
  <advance width="710"/>
  <unicode hex="0044"/>
  <outline>
    <contour>
      <point x="151" y="615" type="line"/>
      <point x="168" y="615"/>
      <point x="223" y="617"/>
      <point x="283" y="618"/>
      <point x="343" y="620"/>
      <point x="365" y="620" type="qcurve"/>
      <point x="443" y="620"/>
      <point x="557" y="588"/>
      <point x="630" y="514"/>
      <point x="665" y="395"/>
      <point x="665" y="308" type="qcurve"/>
      <point x="665" y="221"/>
      <point x="630" y="101"/>
      <point x="557" y="28"/>
      <point x="443" y="-4"/>
      <point x="365" y="-4" type="qcurve"/>
      <point x="337" y="-4"/>
      <point x="276" y="-3"/>
      <point x="218" y="-1"/>
      <point x="167" y="0"/>
      <point x="151" y="0" type="qcurve"/>
      <point x="25" y="0" type="line"/>
      <point x="25" y="58" type="line"/>
      <point x="114" y="58" type="line"/>
      <point x="114" y="557" type="line"/>
      <point x="25" y="557" type="line"/>
      <point x="25" y="615" type="line"/>
    </contour>
    <contour>
      <point x="282" y="570" type="line"/>
      <point x="282" y="48" type="line"/>
      <point x="402" y="48" type="line"/>
      <point x="418" y="48"/>
      <point x="429" y="49" type="qcurve"/>
      <point x="441" y="50"/>
      <point x="449" y="51" type="qcurve"/>
      <point x="457" y="85"/>
      <point x="463" y="126" type="qcurve"/>
      <point x="468" y="161"/>
      <point x="478" y="254"/>
      <point x="478" y="308" type="qcurve"/>
      <point x="478" y="364"/>
      <point x="468" y="457"/>
      <point x="463" y="491" type="qcurve"/>
      <point x="457" y="531"/>
      <point x="449" y="563" type="qcurve"/>
      <point x="441" y="564"/>
      <point x="429" y="566" type="qcurve"/>
      <point x="418" y="568"/>
      <point x="387" y="570"/>
      <point x="365" y="570" type="qcurve"/>
    </contour>
  </outline>
</glyph>
<glyph name="E" format="1">
  <advance width="617"/>
  <unicode hex="0045"/>
  <outline>
    <contour>
      <point x="316" y="615" type="move" name="topUC"/>
    </contour>
    <contour>
      <point x="552" y="615" type="line"/>
      <point x="552" y="411" type="line"/>
      <point x="502" y="411"/>
      <point x="437" y="443"/>
      <point x="396" y="489"/>
      <point x="376" y="539"/>
      <point x="372" y="557" type="qcurve"/>
      <point x="282" y="557" type="line"/>
      <point x="282" y="335" type="line"/>
      <point x="457" y="335" type="line"/>
      <point x="457" y="277" type="line"/>
      <point x="282" y="277" type="line"/>
      <point x="282" y="58" type="line"/>
      <point x="387" y="58" type="line"/>
      <point x="391" y="76"/>
      <point x="411" y="126"/>
      <point x="451" y="172"/>
      <point x="517" y="205"/>
      <point x="567" y="205" type="qcurve"/>
      <point x="567" y="0" type="line"/>
      <point x="25" y="0" type="line"/>
      <point x="25" y="58" type="line"/>
      <point x="114" y="58" type="line"/>
      <point x="114" y="557" type="line"/>
      <point x="25" y="557" type="line"/>
      <point x="25" y="615" type="line"/>
    </contour>
  </outline>
</glyph>
<glyph name="F" format="1">
  <advance width="562"/>
  <unicode hex="0046"/>
  <outline>
    <contour>
      <point x="542" y="615" type="line"/>
      <point x="542" y="396" type="line"/>
      <point x="492" y="396"/>
      <point x="425" y="432"/>
      <point x="385" y="483"/>
      <point x="365" y="538"/>
      <point x="362" y="557" type="qcurve"/>
      <point x="282" y="557" type="line"/>
      <point x="282" y="315" type="line"/>
      <point x="447" y="315" type="line"/>
      <point x="447" y="257" type="line"/>
      <point x="282" y="257" type="line"/>
      <point x="282" y="58" type="line"/>
      <point x="373" y="58" type="line"/>
      <point x="373" y="0" type="line"/>
      <point x="25" y="0" type="line"/>
      <point x="25" y="58" type="line"/>
      <point x="114" y="58" type="line"/>
      <point x="114" y="257" type="line"/>
      <point x="25" y="257" type="line"/>
      <point x="25" y="315" type="line"/>
      <point x="114" y="315" type="line"/>
      <point x="114" y="557" type="line"/>
      <point x="25" y="557" type="line"/>
      <point x="25" y="615" type="line"/>
    </contour>
  </outline>
</glyph>
<glyph name="G" format="1">
  <advance width="661"/>
  <unicode hex="0047"/>
  <outline>
    <contour>
      <point x="596" y="411" type="line"/>
      <point x="536" y="411"/>
      <point x="465" y="456"/>
      <point x="426" y="514"/>
      <point x="414" y="568"/>
      <point x="413" y="578" type="qcurve"/>
      <point x="394" y="580"/>
      <point x="376" y="580" type="qcurve"/>
      <point x="344" y="580" type="line"/>
      <point x="324" y="580"/>
      <point x="294" y="577"/>
      <point x="283" y="575" type="qcurve"/>
      <point x="271" y="573"/>
      <point x="261" y="571" type="qcurve"/>
      <point x="252" y="536"/>
      <point x="246" y="494" type="qcurve"/>
      <point x="241" y="458"/>
      <point x="232" y="362"/>
      <point x="232" y="308" type="qcurve"/>
      <point x="232" y="253"/>
      <point x="241" y="158"/>
      <point x="246" y="122" type="qcurve"/>
      <point x="252" y="80"/>
      <point x="261" y="44" type="qcurve"/>
      <point x="272" y="41"/>
      <point x="285" y="39" type="qcurve"/>
      <point x="296" y="37"/>
      <point x="326" y="35"/>
      <point x="344" y="35" type="qcurve"/>
      <point x="364" y="35"/>
      <point x="414" y="43"/>
      <point x="438" y="53" type="qcurve"/>
      <point x="438" y="242" type="line"/>
      <point x="380" y="242" type="line"/>
      <point x="380" y="300" type="line"/>
      <point x="606" y="300" type="line"/>
      <point x="606" y="4" type="line"/>
      <point x="487" y="17" type="line"/>
      <point x="452" y="0"/>
      <point x="375" y="-15"/>
      <point x="344" y="-15" type="qcurve"/>
      <point x="266" y="-15"/>
      <point x="153" y="20"/>
      <point x="80" y="98"/>
      <point x="45" y="221"/>
      <point x="45" y="308" type="qcurve"/>
      <point x="45" y="395"/>
      <point x="80" y="517"/>
      <point x="153" y="595"/>
      <point x="266" y="630"/>
      <point x="344" y="630" type="qcurve"/>
      <point x="378" y="630"/>
      <point x="465" y="625"/>
      <point x="504" y="622" type="qcurve"/>
      <point x="550" y="618"/>
      <point x="596" y="615" type="qcurve"/>
    </contour>
  </outline>
</glyph>
<glyph name="H" format="1">
  <advance width="736"/>
  <unicode hex="0048"/>
  <outline>
    <contour>
      <point x="711" y="615" type="line"/>
      <point x="711" y="557" type="line"/>
      <point x="622" y="557" type="line"/>
      <point x="622" y="58" type="line"/>
      <point x="711" y="58" type="line"/>
      <point x="711" y="0" type="line"/>
      <point x="454" y="0" type="line"/>
      <point x="454" y="277" type="line"/>
      <point x="282" y="277" type="line"/>
      <point x="282" y="58" type="line"/>
      <point x="355" y="58" type="line"/>
      <point x="355" y="0" type="line"/>
      <point x="25" y="0" type="line"/>
      <point x="25" y="58" type="line"/>
      <point x="114" y="58" type="line"/>
      <point x="114" y="557" type="line"/>
      <point x="25" y="557" type="line"/>
      <point x="25" y="615" type="line"/>
      <point x="332" y="615" type="line"/>
      <point x="332" y="557" type="line"/>
      <point x="282" y="557" type="line"/>
      <point x="282" y="335" type="line"/>
      <point x="454" y="335" type="line"/>
      <point x="454" y="557" type="line"/>
      <point x="404" y="557" type="line"/>
      <point x="404" y="615" type="line"/>
    </contour>
  </outline>
</glyph>
<glyph name="I" format="1">
  <advance width="396"/>
  <unicode hex="0049"/>
  <outline>
    <contour>
      <point x="199" y="615" type="move" name="topUC"/>
    </contour>
    <contour>
      <point x="371" y="615" type="line"/>
      <point x="371" y="557" type="line"/>
      <point x="282" y="557" type="line"/>
      <point x="282" y="58" type="line"/>
      <point x="371" y="58" type="line"/>
      <point x="371" y="0" type="line"/>
      <point x="25" y="0" type="line"/>
      <point x="25" y="58" type="line"/>
      <point x="114" y="58" type="line"/>
      <point x="114" y="557" type="line"/>
      <point x="25" y="557" type="line"/>
      <point x="25" y="615" type="line"/>
    </contour>
  </outline>
</glyph>
<glyph name="J" format="1">
  <advance width="498"/>
  <unicode hex="004A"/>
  <outline>
    <contour>
      <point x="188" y="236" type="line"/>
      <point x="188" y="178" type="line"/>
      <point x="121" y="178" type="line"/>
      <point x="121" y="122" type="line"/>
      <point x="121" y="109"/>
      <point x="127" y="83"/>
      <point x="140" y="62"/>
      <point x="162" y="49"/>
      <point x="178" y="49" type="qcurve"/>
      <point x="221" y="49" type="line"/>
      <point x="221" y="557" type="line"/>
      <point x="132" y="557" type="line"/>
      <point x="132" y="615" type="line"/>
      <point x="478" y="615" type="line"/>
      <point x="478" y="557" type="line"/>
      <point x="389" y="557" type="line"/>
      <point x="389" y="130" type="line"/>
      <point x="389" y="90"/>
      <point x="368" y="37"/>
      <point x="324" y="4"/>
      <point x="256" y="-10"/>
      <point x="209" y="-10" type="qcurve"/>
      <point x="164" y="-10"/>
      <point x="106" y="8"/>
      <point x="72" y="41"/>
      <point x="58" y="90"/>
      <point x="58" y="120" type="qcurve"/>
      <point x="58" y="178" type="line"/>
      <point x="-15" y="178" type="line"/>
      <point x="-15" y="236" type="line"/>
    </contour>
  </outline>
</glyph>
<glyph name="K" format="1">
  <advance width="658"/>
  <unicode hex="004B"/>
  <outline>
    <contour>
      <point x="658" y="0" type="line"/>
      <point x="474" y="0" type="line"/>
      <point x="290" y="286" type="line"/>
      <point x="282" y="286" type="line"/>
      <point x="282" y="58" type="line"/>
      <point x="351" y="58" type="line"/>
      <point x="351" y="0" type="line"/>
      <point x="25" y="0" type="line"/>
      <point x="25" y="58" type="line"/>
      <point x="114" y="58" type="line"/>
      <point x="114" y="557" type="line"/>
      <point x="25" y="557" type="line"/>
      <point x="25" y="615" type="line"/>
      <point x="282" y="615" type="line"/>
      <point x="282" y="347" type="line"/>
      <point x="471" y="557" type="line"/>
      <point x="395" y="557" type="line"/>
      <point x="395" y="615" type="line"/>
      <point x="652" y="615" type="line"/>
      <point x="652" y="557" type="line"/>
      <point x="551" y="557" type="line"/>
      <point x="409" y="399" type="line"/>
      <point x="658" y="21" type="line"/>
    </contour>
  </outline>
</glyph>
<glyph name="L" format="1">
  <advance width="567"/>
  <unicode hex="004C"/>
  <outline>
    <contour>
      <point x="25" y="0" type="line"/>
      <point x="25" y="58" type="line"/>
      <point x="114" y="58" type="line"/>
      <point x="114" y="557" type="line"/>
      <point x="25" y="557" type="line"/>
      <point x="25" y="615" type="line"/>
      <point x="371" y="615" type="line"/>
      <point x="371" y="557" type="line"/>
      <point x="282" y="557" type="line"/>
      <point x="282" y="58" type="line"/>
      <point x="366" y="58" type="line"/>
      <point x="368" y="76"/>
      <point x="384" y="130"/>
      <point x="422" y="180"/>
      <point x="486" y="215"/>
      <point x="537" y="215" type="qcurve"/>
      <point x="537" y="0" type="line"/>
    </contour>
  </outline>
</glyph>
<glyph name="M" format="1">
  <advance width="853"/>
  <unicode hex="004D"/>
  <outline>
    <contour>
      <point x="288" y="615" type="line"/>
      <point x="437" y="264" type="line"/>
      <point x="571" y="615" type="line"/>
      <point x="828" y="615" type="line"/>
      <point x="828" y="557" type="line"/>
      <point x="739" y="557" type="line"/>
      <point x="739" y="58" type="line"/>
      <point x="828" y="58" type="line"/>
      <point x="828" y="0" type="line"/>
      <point x="571" y="0" type="line"/>
      <point x="571" y="450" type="line"/>
      <point x="399" y="2" type="line"/>
      <point x="398" y="3" type="line"/>
      <point x="397" y="0" type="line"/>
      <point x="366" y="0" type="line"/>
      <point x="177" y="456" type="line"/>
      <point x="177" y="58" type="line"/>
      <point x="266" y="58" type="line"/>
      <point x="266" y="0" type="line"/>
      <point x="25" y="0" type="line"/>
      <point x="25" y="58" type="line"/>
      <point x="114" y="58" type="line"/>
      <point x="114" y="557" type="line"/>
      <point x="25" y="557" type="line"/>
      <point x="25" y="615" type="line"/>
    </contour>
  </outline>
</glyph>
<glyph name="O" format="1">
  <advance width="690"/>
  <unicode hex="004F"/>
  <outline>
    <contour>
      <point x="344" y="615" type="move" name="topUC"/>
    </contour>
    <contour>
      <point x="45" y="308" type="qcurve"/>
      <point x="45" y="395"/>
      <point x="80" y="517"/>
      <point x="153" y="595"/>
      <point x="266" y="630"/>
      <point x="344" y="630" type="qcurve"/>
      <point x="354" y="630"/>
      <point x="372" y="629"/>
      <point x="381" y="629" type="qcurve"/>
      <point x="441" y="629" type="line"/>
      <point x="477" y="629"/>
      <point x="533" y="633"/>
      <point x="571" y="648"/>
      <point x="591" y="676"/>
      <point x="591" y="701" type="qcurve"/>
      <point x="645" y="701" type="line"/>
      <point x="645" y="644"/>
      <point x="589" y="595"/>
      <point x="534" y="587" type="qcurve"/>
      <point x="591" y="551"/>
      <point x="644" y="415"/>
      <point x="644" y="308" type="qcurve"/>
      <point x="644" y="221"/>
      <point x="609" y="98"/>
      <point x="536" y="20"/>
      <point x="422" y="-15"/>
      <point x="344" y="-15" type="qcurve"/>
      <point x="266" y="-15"/>
      <point x="153" y="20"/>
      <point x="80" y="98"/>
      <point x="45" y="221"/>
    </contour>
    <contour>
      <point x="232" y="308" type="qcurve"/>
      <point x="232" y="251"/>
      <point x="241" y="155"/>
      <point x="246" y="120" type="qcurve"/>
      <point x="252" y="79"/>
      <point x="261" y="44" type="qcurve"/>
      <point x="271" y="41"/>
      <point x="283" y="39" type="qcurve"/>
      <point x="294" y="37"/>
      <point x="324" y="35"/>
      <point x="344" y="35" type="qcurve"/>
      <point x="364" y="35"/>
      <point x="396" y="37"/>
      <point x="407" y="39" type="qcurve"/>
      <point x="419" y="41"/>
      <point x="428" y="44" type="qcurve"/>
      <point x="436" y="81"/>
      <point x="442" y="123" type="qcurve"/>
      <point x="447" y="159"/>
      <point x="457" y="254"/>
      <point x="457" y="308" type="qcurve"/>
      <point x="457" y="364"/>
      <point x="447" y="460"/>
      <point x="442" y="495" type="qcurve"/>
      <point x="436" y="536"/>
      <point x="428" y="571" type="qcurve"/>
      <point x="418" y="573"/>
      <point x="406" y="575" type="qcurve"/>
      <point x="395" y="577"/>
      <point x="364" y="580"/>
      <point x="344" y="580" type="qcurve"/>
      <point x="324" y="580"/>
      <point x="294" y="577"/>
      <point x="283" y="575" type="qcurve"/>
      <point x="271" y="573"/>
      <point x="261" y="571" type="qcurve"/>
      <point x="252" y="534"/>
      <point x="246" y="492" type="qcurve"/>
      <point x="241" y="456"/>
      <point x="232" y="361"/>
    </contour>
  </outline>
</glyph>
<glyph name="P" format="1">
  <advance width="604"/>
  <unicode hex="0050"/>
  <outline>
    <contour>
      <point x="261" y="615" type="line"/>
      <point x="272" y="615"/>
      <point x="298" y="616"/>
      <point x="321" y="616"/>
      <point x="338" y="617"/>
      <point x="341" y="617" type="qcurve"/>
      <point x="470" y="617"/>
      <point x="594" y="533"/>
      <point x="594" y="431" type="qcurve"/>
      <point x="594" y="330"/>
      <point x="471" y="246"/>
      <point x="341" y="246" type="qcurve"/>
      <point x="313" y="246" type="line"/>
      <point x="298" y="246"/>
      <point x="282" y="247" type="qcurve"/>
      <point x="282" y="58" type="line"/>
      <point x="371" y="58" type="line"/>
      <point x="371" y="0" type="line"/>
      <point x="25" y="0" type="line"/>
      <point x="25" y="58" type="line"/>
      <point x="114" y="58" type="line"/>
      <point x="114" y="557" type="line"/>
      <point x="25" y="557" type="line"/>
      <point x="25" y="615" type="line"/>
    </contour>
    <contour>
      <point x="341" y="566" type="qcurve"/>
      <point x="324" y="566"/>
      <point x="294" y="564"/>
      <point x="282" y="562" type="qcurve"/>
      <point x="282" y="302" type="line"/>
      <point x="307" y="299"/>
      <point x="341" y="299" type="qcurve"/>
      <point x="364" y="299"/>
      <point x="378" y="302" type="qcurve"/>
      <point x="386" y="303"/>
      <point x="392" y="305" type="qcurve"/>
      <point x="396" y="319"/>
      <point x="400" y="337" type="qcurve"/>
      <point x="403" y="353"/>
      <point x="408" y="400"/>
      <point x="408" y="430" type="qcurve"/>
      <point x="408" y="461"/>
      <point x="403" y="509"/>
      <point x="400" y="526" type="qcurve"/>
      <point x="396" y="545"/>
      <point x="392" y="560" type="qcurve"/>
      <point x="386" y="561"/>
      <point x="378" y="563" type="qcurve"/>
      <point x="371" y="564"/>
      <point x="352" y="566"/>
    </contour>
  </outline>
</glyph>
<glyph name="Q" format="1">
  <advance width="689"/>
  <unicode hex="0051"/>
  <outline>
    <contour>
      <point x="45" y="308" type="qcurve"/>
      <point x="45" y="395"/>
      <point x="80" y="517"/>
      <point x="153" y="595"/>
      <point x="266" y="630"/>
      <point x="344" y="630" type="qcurve"/>
      <point x="422" y="630"/>
      <point x="536" y="595"/>
      <point x="609" y="517"/>
      <point x="644" y="395"/>
      <point x="644" y="308" type="qcurve"/>
      <point x="644" y="225"/>
      <point x="612" y="106"/>
      <point x="546" y="28"/>
      <point x="444" y="-11"/>
      <point x="374" y="-14" type="qcurve"/>
      <point x="374" y="-78" type="line"/>
      <point x="374" y="-99"/>
      <point x="393" y="-115"/>
      <point x="407" y="-115" type="qcurve"/>
      <point x="425" y="-115"/>
      <point x="438" y="-93"/>
      <point x="438" y="-81" type="qcurve"/>
      <point x="438" y="-50" type="line"/>
      <point x="496" y="-50" type="line"/>
      <point x="496" y="-80" type="line"/>
      <point x="496" y="-91"/>
      <point x="489" y="-120"/>
      <point x="470" y="-147"/>
      <point x="435" y="-166"/>
      <point x="407" y="-166" type="qcurve"/>
      <point x="359" y="-166"/>
      <point x="316" y="-119"/>
      <point x="316" y="-78" type="qcurve"/>
      <point x="316" y="-14" type="line"/>
      <point x="245" y="-11"/>
      <point x="143" y="28"/>
      <point x="77" y="105"/>
      <point x="45" y="224"/>
    </contour>
    <contour>
      <point x="374" y="138" type="line"/>
      <point x="374" y="36" type="line"/>
      <point x="398" y="37"/>
      <point x="414" y="41" type="qcurve"/>
      <point x="422" y="43"/>
      <point x="428" y="44" type="qcurve"/>
      <point x="436" y="81"/>
      <point x="442" y="123" type="qcurve"/>
      <point x="447" y="159"/>
      <point x="457" y="254"/>
      <point x="457" y="308" type="qcurve"/>
      <point x="457" y="364"/>
      <point x="447" y="460"/>
      <point x="442" y="495" type="qcurve"/>
      <point x="436" y="536"/>
      <point x="428" y="571" type="qcurve"/>
      <point x="418" y="573"/>
      <point x="406" y="575" type="qcurve"/>
      <point x="395" y="577"/>
      <point x="364" y="580"/>
      <point x="344" y="580" type="qcurve"/>
      <point x="324" y="580"/>
      <point x="294" y="577"/>
      <point x="283" y="575" type="qcurve"/>
      <point x="271" y="573"/>
      <point x="261" y="571" type="qcurve"/>
      <point x="252" y="534"/>
      <point x="246" y="492" type="qcurve"/>
      <point x="241" y="456"/>
      <point x="232" y="361"/>
      <point x="232" y="308" type="qcurve"/>
      <point x="232" y="251"/>
      <point x="241" y="155"/>
      <point x="246" y="120" type="qcurve"/>
      <point x="252" y="79"/>
      <point x="261" y="44" type="qcurve"/>
      <point x="267" y="43"/>
      <point x="275" y="41" type="qcurve"/>
      <point x="282" y="39"/>
      <point x="302" y="36"/>
      <point x="316" y="35" type="qcurve"/>
      <point x="316" y="138" type="line"/>
    </contour>
  </outline>
</glyph>
<glyph name="R" format="1">
  <advance width="650"/>
  <unicode hex="0052"/>
  <outline>
    <contour>
      <point x="114" y="58" type="line"/>
      <point x="114" y="557" type="line"/>
      <point x="25" y="557" type="line"/>
      <point x="25" y="615" type="line"/>
      <point x="255" y="615" type="line"/>
      <point x="273" y="615"/>
      <point x="316" y="617"/>
      <point x="321" y="617" type="qcurve"/>
      <point x="451" y="617"/>
      <point x="573" y="533"/>
      <point x="573" y="448" type="qcurve"/>
      <point x="573" y="389"/>
      <point x="516" y="320"/>
      <point x="473" y="303" type="qcurve"/>
      <point x="648" y="21" type="line"/>
      <point x="648" y="0" type="line"/>
      <point x="464" y="0" type="line"/>
      <point x="299" y="280" type="line"/>
      <point x="282" y="280" type="line"/>
      <point x="282" y="58" type="line"/>
      <point x="351" y="58" type="line"/>
      <point x="351" y="0" type="line"/>
      <point x="25" y="0" type="line"/>
      <point x="25" y="58" type="line"/>
    </contour>
    <contour>
      <point x="321" y="566" type="qcurve"/>
      <point x="300" y="566"/>
      <point x="282" y="563" type="qcurve"/>
      <point x="282" y="325" type="line"/>
      <point x="385" y="325" type="line"/>
      <point x="387" y="343"/>
      <point x="389" y="363" type="qcurve"/>
      <point x="391" y="380"/>
      <point x="394" y="423"/>
      <point x="394" y="446" type="qcurve"/>
      <point x="394" y="469"/>
      <point x="389" y="511"/>
      <point x="386" y="527" type="qcurve"/>
      <point x="382" y="545"/>
      <point x="379" y="562" type="qcurve"/>
      <point x="372" y="563"/>
      <point x="362" y="564" type="qcurve"/>
      <point x="354" y="565"/>
      <point x="332" y="566"/>
    </contour>
  </outline>
</glyph>
<glyph name="S" format="1">
  <advance width="553"/>
  <unicode hex="0053"/>
  <outline>
    <contour>
      <point x="287" y="626" type="qcurve"/>
      <point x="319" y="626"/>
      <point x="372" y="617"/>
      <point x="392" y="610" type="qcurve"/>
      <point x="486" y="629" type="line"/>
      <point x="486" y="425" type="line"/>
      <point x="414" y="427"/>
      <point x="326" y="505"/>
      <point x="319" y="573" type="qcurve"/>
      <point x="299" y="577"/>
      <point x="272" y="577" type="qcurve"/>
      <point x="262" y="577"/>
      <point x="249" y="575"/>
      <point x="244" y="574" type="qcurve"/>
      <point x="234" y="572" type="line"/>
      <point x="230" y="564"/>
      <point x="227" y="553" type="qcurve"/>
      <point x="225" y="544"/>
      <point x="221" y="519"/>
      <point x="221" y="504" type="qcurve"/>
      <point x="221" y="451"/>
      <point x="268" y="401"/>
      <point x="321" y="384" type="qcurve"/>
      <point x="352" y="373"/>
      <point x="418" y="340"/>
      <point x="473" y="292"/>
      <point x="508" y="227"/>
      <point x="508" y="186" type="qcurve"/>
      <point x="508" y="82"/>
      <point x="380" y="-15"/>
      <point x="265" y="-15" type="qcurve"/>
      <point x="216" y="-15"/>
      <point x="158" y="-4"/>
      <point x="142" y="1" type="qcurve"/>
      <point x="58" y="-15" type="line"/>
      <point x="58" y="209" type="line"/>
      <point x="97" y="208"/>
      <point x="157" y="181"/>
      <point x="199" y="135"/>
      <point x="223" y="73"/>
      <point x="225" y="36" type="qcurve"/>
      <point x="233" y="35"/>
      <point x="240" y="35" type="qcurve"/>
      <point x="257" y="35" type="line"/>
      <point x="267" y="35"/>
      <point x="290" y="36"/>
      <point x="300" y="37" type="qcurve"/>
      <point x="311" y="38"/>
      <point x="323" y="39" type="qcurve"/>
      <point x="326" y="46"/>
      <point x="329" y="57" type="qcurve"/>
      <point x="331" y="66"/>
      <point x="335" y="94"/>
      <point x="335" y="114" type="qcurve"/>
      <point x="335" y="158"/>
      <point x="293" y="211"/>
      <point x="229" y="249"/>
      <point x="156" y="281"/>
      <point x="92" y="325"/>
      <point x="50" y="391"/>
      <point x="50" y="444" type="qcurve"/>
      <point x="50" y="483"/>
      <point x="74" y="549"/>
      <point x="129" y="598"/>
      <point x="220" y="626"/>
    </contour>
  </outline>
</glyph>
<glyph name="T" format="1">
  <advance width="658"/>
  <unicode hex="0054"/>
  <outline>
    <contour>
      <point x="623" y="615" type="line"/>
      <point x="623" y="426" type="line"/>
      <point x="574" y="426"/>
      <point x="515" y="455"/>
      <point x="482" y="495"/>
      <point x="470" y="540"/>
      <point x="469" y="557" type="qcurve"/>
      <point x="413" y="557" type="line"/>
      <point x="413" y="58" type="line"/>
      <point x="502" y="58" type="line"/>
      <point x="502" y="0" type="line"/>
      <point x="156" y="0" type="line"/>
      <point x="156" y="58" type="line"/>
      <point x="245" y="58" type="line"/>
      <point x="245" y="557" type="line"/>
      <point x="188" y="557" type="line"/>
      <point x="187" y="540"/>
      <point x="176" y="495"/>
      <point x="143" y="455"/>
      <point x="83" y="426"/>
      <point x="35" y="426" type="qcurve"/>
      <point x="35" y="615" type="line"/>
    </contour>
  </outline>
</glyph>
<glyph name="U" format="1">
  <advance width="666"/>
  <unicode hex="0055"/>
  <outline>
    <contour>
      <point x="369" y="615" type="move" name="topUC"/>
    </contour>
    <contour>
      <point x="109" y="557" type="line"/>
      <point x="20" y="557" type="line"/>
      <point x="20" y="615" type="line"/>
      <point x="277" y="615" type="line"/>
      <point x="277" y="140" type="line"/>
      <point x="277" y="123"/>
      <point x="281" y="88"/>
      <point x="284" y="74" type="qcurve"/>
      <point x="287" y="57"/>
      <point x="291" y="42" type="qcurve"/>
      <point x="294" y="40"/>
      <point x="305" y="39" type="qcurve"/>
      <point x="313" y="38"/>
      <point x="345" y="37"/>
      <point x="371" y="37" type="qcurve"/>
      <point x="430" y="37"/>
      <point x="499" y="79"/>
      <point x="499" y="130" type="qcurve"/>
      <point x="499" y="557" type="line"/>
      <point x="395" y="557" type="line"/>
      <point x="395" y="615" type="line"/>
      <point x="661" y="615" type="line"/>
      <point x="661" y="557" type="line"/>
      <point x="562" y="557" type="line"/>
      <point x="562" y="130" type="line"/>
      <point x="562" y="86"/>
      <point x="526" y="30"/>
      <point x="466" y="-2"/>
      <point x="387" y="-15"/>
      <point x="344" y="-15" type="qcurve"/>
      <point x="291" y="-15"/>
      <point x="204" y="-3"/>
      <point x="142" y="30"/>
      <point x="109" y="86"/>
      <point x="109" y="130" type="qcurve"/>
    </contour>
  </outline>
</glyph>
<glyph name="V" format="1">
  <advance width="623"/>
  <unicode hex="0056"/>
  <outline>
    <contour>
      <point x="550" y="557" type="line"/>
      <point x="345" y="-14" type="line"/>
      <point x="320" y="-14" type="line"/>
      <point x="10" y="594" type="line"/>
      <point x="10" y="615" type="line"/>
      <point x="192" y="615" type="line"/>
      <point x="377" y="249" type="line"/>
      <point x="488" y="557" type="line"/>
      <point x="381" y="557" type="line"/>
      <point x="381" y="615" type="line"/>
      <point x="618" y="615" type="line"/>
      <point x="618" y="557" type="line"/>
    </contour>
  </outline>
</glyph>
<glyph name="X" format="1">
  <advance width="626"/>
  <unicode hex="0058"/>
  <outline>
    <contour>
      <point x="518" y="557" type="line"/>
      <point x="386" y="370" type="line"/>
      <point x="621" y="22" type="line"/>
      <point x="621" y="0" type="line"/>
      <point x="409" y="0" type="line"/>
      <point x="260" y="226" type="line"/>
      <point x="155" y="58" type="line"/>
      <point x="252" y="58" type="line"/>
      <point x="252" y="0" type="line"/>
      <point x="15" y="0" type="line"/>
      <point x="15" y="58" type="line"/>
      <point x="83" y="58" type="line"/>
      <point x="223" y="281" type="line"/>
      <point x="18" y="593" type="line"/>
      <point x="18" y="615" type="line"/>
      <point x="221" y="615" type="line"/>
      <point x="350" y="423" type="line"/>
      <point x="445" y="557" type="line"/>
      <point x="353" y="557" type="line"/>
      <point x="353" y="615" type="line"/>
      <point x="590" y="615" type="line"/>
      <point x="590" y="557" type="line"/>
    </contour>
  </outline>
</glyph>
<glyph name="Y" format="1">
  <advance width="598"/>
  <unicode hex="0059"/>
  <outline>
    <contour>
      <point x="308" y="615" type="move" name="topUC"/>
    </contour>
    <contour>
      <point x="15" y="615" type="line"/>
      <point x="197" y="615" type="line"/>
      <point x="353" y="332" type="line"/>
      <point x="453" y="557" type="line"/>
      <point x="351" y="557" type="line"/>
      <point x="351" y="615" type="line"/>
      <point x="588" y="615" type="line"/>
      <point x="588" y="557" type="line"/>
      <point x="514" y="557" type="line"/>
      <point x="379" y="257" type="line"/>
      <point x="379" y="58" type="line"/>
      <point x="468" y="58" type="line"/>
      <point x="468" y="0" type="line"/>
      <point x="122" y="0" type="line"/>
      <point x="122" y="58" type="line"/>
      <point x="211" y="58" type="line"/>
      <point x="211" y="253" type="line"/>
      <point x="15" y="594" type="line"/>
    </contour>
  </outline>
</glyph>
<glyph name="Z" format="1">
  <advance width="593"/>
  <unicode hex="005A"/>
  <outline>
    <contour>
      <point x="55" y="18" type="line"/>
      <point x="332" y="567" type="line"/>
      <point x="210" y="567" type="line"/>
      <point x="210" y="552"/>
      <point x="200" y="504"/>
      <point x="168" y="459"/>
      <point x="107" y="426"/>
      <point x="56" y="426" type="qcurve"/>
      <point x="56" y="615" type="line"/>
      <point x="536" y="615" type="line"/>
      <point x="536" y="596" type="line"/>
      <point x="266" y="48" type="line"/>
      <point x="385" y="48" type="line"/>
      <point x="386" y="65"/>
      <point x="398" y="119"/>
      <point x="432" y="171"/>
      <point x="496" y="209"/>
      <point x="548" y="209" type="qcurve"/>
      <point x="548" y="0" type="line"/>
      <point x="55" y="0" type="line"/>
    </contour>
  </outline>
</glyph>
<glyph name="bracketright" format="1">
  <advance width="382"/>
  <unicode hex="005D"/>
  <outline>
    <contour>
      <point x="75" y="-105" type="line"/>
      <point x="75" y="-47" type="line"/>
      <point x="164" y="-47" type="line"/>
      <point x="164" y="586" type="line"/>
      <point x="75" y="586" type="line"/>
      <point x="75" y="644" type="line"/>
      <point x="332" y="644" type="line"/>
      <point x="332" y="-105" type="line"/>
    </contour>
  </outline>
</glyph>
<glyph name="asciicircum" format="1">
  <advance width="520"/>
  <unicode hex="005E"/>
  <outline>
    <contour>
      <point x="270" y="615" type="line"/>
      <point x="445" y="363" type="line"/>
      <point x="395" y="328" type="line"/>
      <point x="258" y="524" type="line"/>
      <point x="123" y="330" type="line"/>
      <point x="75" y="363" type="line"/>
      <point x="250" y="615" type="line"/>
    </contour>
  </outline>
</glyph>
<glyph name="grave" format="1">
  <advance width="520"/>
  <unicode hex="0060"/>
  <outline>
    <contour>
      <point x="357" y="449" type="move" name="_top"/>
    </contour>
    <contour>
      <point x="382" y="514" type="line"/>
      <point x="357" y="486" type="line"/>
      <point x="160" y="595" type="line"/>
      <point x="139" y="613"/>
      <point x="139" y="638" type="qcurve"/>
      <point x="139" y="650"/>
      <point x="150" y="673"/>
      <point x="167" y="692"/>
      <point x="189" y="703"/>
      <point x="200" y="703" type="qcurve"/>
      <point x="220" y="703"/>
      <point x="237" y="689" type="qcurve"/>
    </contour>
  </outline>
</glyph>
<glyph name="a" format="1">
  <advance width="516"/>
  <unicode hex="0061"/>
  <outline>
    <contour>
      <point x="245" y="449" type="move" name="top"/>
    </contour>
    <contour>
      <point x="448" y="50" type="line"/>
      <point x="461" y="50" type="line"/>
      <point x="470" y="50"/>
      <point x="479" y="51" type="qcurve"/>
      <point x="501" y="53" type="line"/>
      <point x="501" y="5" type="line"/>
      <point x="483" y="2"/>
      <point x="466" y="0" type="qcurve"/>
      <point x="452" y="-2"/>
      <point x="420" y="-4"/>
      <point x="410" y="-4" type="qcurve"/>
      <point x="361" y="-4"/>
      <point x="311" y="32"/>
      <point x="300" y="53" type="qcurve"/>
      <point x="278" y="25"/>
      <point x="221" y="-8"/>
      <point x="184" y="-8" type="qcurve"/>
      <point x="116" y="-8"/>
      <point x="50" y="43"/>
      <point x="50" y="106" type="qcurve"/>
      <point x="50" y="128"/>
      <point x="51" y="168"/>
      <point x="53" y="183" type="qcurve"/>
      <point x="55" y="201"/>
      <point x="57" y="215" type="qcurve"/>
      <point x="289" y="272" type="line"/>
      <point x="288" y="301"/>
      <point x="286" y="350"/>
      <point x="285" y="367" type="qcurve"/>
      <point x="283" y="387"/>
      <point x="282" y="403" type="qcurve"/>
      <point x="279" y="404"/>
      <point x="273" y="405" type="qcurve"/>
      <point x="268" y="406"/>
      <point x="248" y="408"/>
      <point x="234" y="408" type="qcurve"/>
      <point x="225" y="408"/>
      <point x="209" y="407"/>
      <point x="201" y="406" type="qcurve"/>
      <point x="198" y="392"/>
      <point x="184" y="353"/>
      <point x="154" y="318"/>
      <point x="105" y="293"/>
      <point x="67" y="293" type="qcurve"/>
      <point x="67" y="444" type="line"/>
      <point x="99" y="447"/>
      <point x="132" y="450" type="qcurve"/>
      <point x="161" y="452"/>
      <point x="227" y="456"/>
      <point x="258" y="456" type="qcurve"/>
      <point x="323" y="456"/>
      <point x="398" y="434"/>
      <point x="437" y="380"/>
      <point x="448" y="290"/>
      <point x="448" y="223" type="qcurve"/>
    </contour>
    <contour>
      <point x="216" y="46" type="qcurve"/>
      <point x="236" y="51"/>
      <point x="273" y="92"/>
      <point x="290" y="121" type="qcurve"/>
      <point x="290" y="227" type="line"/>
      <point x="214" y="206" type="line"/>
      <point x="212" y="190"/>
      <point x="210" y="157"/>
      <point x="210" y="141" type="qcurve"/>
      <point x="210" y="121"/>
      <point x="211" y="87"/>
      <point x="213" y="74" type="qcurve"/>
      <point x="214" y="59"/>
    </contour>
  </outline>
</glyph>
<glyph name="b" format="1">
  <advance width="559"/>
  <unicode hex="0062"/>
  <outline>
    <contour>
      <point x="5" y="615" type="line"/>
      <point x="64" y="615" type="line"/>
      <point x="222" y="644" type="line"/>
      <point x="222" y="403" type="line"/>
      <point x="250" y="427"/>
      <point x="317" y="455"/>
      <point x="354" y="455" type="qcurve"/>
      <point x="395" y="455"/>
      <point x="459" y="430"/>
      <point x="502" y="375"/>
      <point x="524" y="286"/>
      <point x="524" y="223" type="qcurve"/>
      <point x="524" y="159"/>
      <point x="500" y="70"/>
      <point x="444" y="15"/>
      <point x="355" y="-9"/>
      <point x="291" y="-9" type="qcurve"/>
      <point x="253" y="-9"/>
      <point x="184" y="4"/>
      <point x="164" y="9" type="qcurve"/>
      <point x="64" y="4" type="line"/>
      <point x="64" y="565" type="line"/>
      <point x="5" y="565" type="line"/>
    </contour>
    <contour>
      <point x="342" y="401" type="qcurve"/>
      <point x="309" y="401"/>
      <point x="246" y="358"/>
      <point x="222" y="326" type="qcurve"/>
      <point x="222" y="45" type="line"/>
      <point x="239" y="40"/>
      <point x="275" y="36"/>
      <point x="291" y="36" type="qcurve"/>
      <point x="315" y="36"/>
      <point x="329" y="39" type="qcurve"/>
      <point x="337" y="40"/>
      <point x="342" y="42" type="qcurve"/>
      <point x="347" y="65"/>
      <point x="351" y="93" type="qcurve"/>
      <point x="354" y="117"/>
      <point x="360" y="184"/>
      <point x="360" y="223" type="qcurve"/>
      <point x="360" y="271"/>
      <point x="354" y="338"/>
      <point x="351" y="360" type="qcurve"/>
      <point x="347" y="386"/>
    </contour>
  </outline>
</glyph>
<glyph name="d" format="1">
  <advance width="568"/>
  <unicode hex="0064"/>
  <outline>
    <contour>
      <point x="278" y="615" type="line"/>
      <point x="337" y="615" type="line"/>
      <point x="495" y="644" type="line"/>
      <point x="495" y="50" type="line"/>
      <point x="508" y="50" type="line"/>
      <point x="517" y="50"/>
      <point x="526" y="51" type="qcurve"/>
      <point x="548" y="53" type="line"/>
      <point x="548" y="5" type="line"/>
      <point x="530" y="2"/>
      <point x="513" y="0" type="qcurve"/>
      <point x="499" y="-2"/>
      <point x="467" y="-4"/>
      <point x="457" y="-4" type="qcurve"/>
      <point x="408" y="-4"/>
      <point x="358" y="32"/>
      <point x="347" y="53" type="qcurve"/>
      <point x="318" y="24"/>
      <point x="245" y="-8"/>
      <point x="205" y="-8" type="qcurve"/>
      <point x="164" y="-8"/>
      <point x="100" y="17"/>
      <point x="57" y="72"/>
      <point x="35" y="161"/>
      <point x="35" y="224" type="qcurve"/>
      <point x="35" y="288"/>
      <point x="59" y="377"/>
      <point x="115" y="432"/>
      <point x="203" y="456"/>
      <point x="268" y="456" type="qcurve"/>
      <point x="286" y="456"/>
      <point x="303" y="454" type="qcurve"/>
      <point x="337" y="450" type="line"/>
      <point x="337" y="565" type="line"/>
      <point x="278" y="565" type="line"/>
    </contour>
    <contour>
      <point x="217" y="46" type="qcurve"/>
      <point x="250" y="46"/>
      <point x="313" y="88"/>
      <point x="337" y="120" type="qcurve"/>
      <point x="337" y="401" type="line"/>
      <point x="320" y="406"/>
      <point x="283" y="411"/>
      <point x="268" y="411" type="qcurve"/>
      <point x="255" y="411"/>
      <point x="237" y="409"/>
      <point x="230" y="408" type="qcurve"/>
      <point x="222" y="406"/>
      <point x="217" y="405" type="qcurve"/>
      <point x="212" y="381"/>
      <point x="208" y="353" type="qcurve"/>
      <point x="204" y="329"/>
      <point x="199" y="263"/>
      <point x="199" y="224" type="qcurve"/>
      <point x="199" y="176"/>
      <point x="204" y="109"/>
      <point x="208" y="87" type="qcurve"/>
      <point x="212" y="61"/>
    </contour>
  </outline>
</glyph>
<glyph name="f" format="1">
  <advance width="369"/>
  <unicode hex="0066"/>
  <outline>
    <contour>
      <point x="373" y="489" type="line"/>
      <point x="332" y="489"/>
      <point x="280" y="517"/>
      <point x="250" y="555"/>
      <point x="238" y="593"/>
      <point x="237" y="604" type="qcurve"/>
      <point x="203" y="604" type="line"/>
      <point x="201" y="597"/>
      <point x="200" y="586" type="qcurve"/>
      <point x="197" y="566"/>
      <point x="197" y="526" type="qcurve"/>
      <point x="197" y="491"/>
      <point x="233" y="449"/>
      <point x="265" y="449" type="qcurve"/>
      <point x="343" y="449" type="line"/>
      <point x="343" y="398" type="line"/>
      <point x="237" y="398" type="line"/>
      <point x="237" y="51" type="line"/>
      <point x="296" y="51" type="line"/>
      <point x="296" y="0" type="line"/>
      <point x="20" y="0" type="line"/>
      <point x="20" y="51" type="line"/>
      <point x="79" y="51" type="line"/>
      <point x="79" y="488" type="line"/>
      <point x="79" y="522"/>
      <point x="99" y="582"/>
      <point x="140" y="626"/>
      <point x="203" y="651"/>
      <point x="245" y="651" type="qcurve"/>
      <point x="270" y="651"/>
      <point x="337" y="646"/>
      <point x="373" y="643" type="qcurve"/>
    </contour>
  </outline>
</glyph>
<glyph name="g" format="1">
  <advance width="538"/>
  <unicode hex="0067"/>
  <outline>
    <contour>
      <point x="377" y="-114" type="line"/>
      <point x="417" y="-114" type="line"/>
      <point x="450" y="-114"/>
      <point x="467" y="-101"/>
      <point x="467" y="-85" type="qcurve"/>
      <point x="467" y="-70" type="line"/>
      <point x="210" y="-70" type="line"/>
      <point x="162" y="-70"/>
      <point x="96" y="-55"/>
      <point x="57" y="-24"/>
      <point x="40" y="25"/>
      <point x="40" y="59" type="qcurve"/>
      <point x="40" y="85"/>
      <point x="54" y="123"/>
      <point x="75" y="149"/>
      <point x="100" y="165"/>
      <point x="111" y="169" type="qcurve"/>
      <point x="79" y="187"/>
      <point x="52" y="250"/>
      <point x="52" y="298" type="qcurve"/>
      <point x="52" y="341"/>
      <point x="75" y="402"/>
      <point x="127" y="439"/>
      <point x="211" y="456"/>
      <point x="272" y="456" type="qcurve"/>
      <point x="392" y="456" type="line"/>
      <point x="417" y="456"/>
      <point x="446" y="464"/>
      <point x="460" y="481"/>
      <point x="463" y="506"/>
      <point x="463" y="524" type="qcurve"/>
      <point x="517" y="524" type="line"/>
      <point x="517" y="470"/>
      <point x="483" y="422"/>
      <point x="451" y="413" type="qcurve"/>
      <point x="492" y="376"/>
      <point x="492" y="298" type="qcurve"/>
      <point x="492" y="254"/>
      <point x="469" y="194"/>
      <point x="417" y="157"/>
      <point x="333" y="140"/>
      <point x="272" y="140" type="qcurve"/>
      <point x="207" y="140"/>
      <point x="164" y="149" type="qcurve"/>
      <point x="152" y="146"/>
      <point x="127" y="135"/>
      <point x="105" y="118"/>
      <point x="91" y="96"/>
      <point x="91" y="82" type="qcurve"/>
      <point x="381" y="82" type="line"/>
      <point x="464" y="82"/>
      <point x="533" y="21"/>
      <point x="533" y="-43" type="qcurve"/>
      <point x="533" y="-75"/>
      <point x="523" y="-121"/>
      <point x="498" y="-151"/>
      <point x="452" y="-166"/>
      <point x="416" y="-166" type="qcurve"/>
      <point x="377" y="-166" type="line"/>
    </contour>
    <contour>
      <point x="216" y="298" type="qcurve"/>
      <point x="216" y="274"/>
      <point x="220" y="234"/>
      <point x="223" y="220" type="qcurve"/>
      <point x="226" y="203"/>
      <point x="230" y="189" type="qcurve"/>
      <point x="235" y="188"/>
      <point x="241" y="187" type="qcurve"/>
      <point x="246" y="186"/>
      <point x="261" y="185"/>
      <point x="271" y="185" type="qcurve"/>
      <point x="281" y="185"/>
      <point x="297" y="186"/>
      <point x="302" y="187" type="qcurve"/>
      <point x="308" y="188"/>
      <point x="313" y="189" type="qcurve"/>
      <point x="316" y="203"/>
      <point x="320" y="220" type="qcurve"/>
      <point x="322" y="234"/>
      <point x="327" y="274"/>
      <point x="327" y="298" type="qcurve"/>
      <point x="327" y="321"/>
      <point x="322" y="362"/>
      <point x="320" y="376" type="qcurve"/>
      <point x="316" y="393"/>
      <point x="313" y="407" type="qcurve"/>
      <point x="301" y="409" type="line"/>
      <point x="296" y="410"/>
      <point x="280" y="411"/>
      <point x="271" y="411" type="qcurve"/>
      <point x="261" y="411"/>
      <point x="246" y="410"/>
      <point x="241" y="409" type="qcurve"/>
      <point x="235" y="408"/>
      <point x="230" y="407" type="qcurve"/>
      <point x="226" y="393"/>
      <point x="223" y="376" type="qcurve"/>
      <point x="220" y="362"/>
      <point x="216" y="321"/>
    </contour>
  </outline>
</glyph>
<glyph name="h" format="1">
  <advance width="593"/>
  <unicode hex="0068"/>
  <outline>
    <contour>
      <point x="25" y="615" type="line"/>
      <point x="84" y="615" type="line"/>
      <point x="242" y="644" type="line"/>
      <point x="242" y="399" type="line"/>
      <point x="254" y="415"/>
      <point x="274" y="427" type="qcurve"/>
      <point x="291" y="438"/>
      <point x="348" y="456"/>
      <point x="391" y="456" type="qcurve"/>
      <point x="414" y="456"/>
      <point x="461" y="448"/>
      <point x="500" y="427"/>
      <point x="524" y="391"/>
      <point x="524" y="362" type="qcurve"/>
      <point x="524" y="51" type="line"/>
      <point x="583" y="51" type="line"/>
      <point x="583" y="0" type="line"/>
      <point x="366" y="0" type="line"/>
      <point x="366" y="394" type="line"/>
      <point x="364" y="394"/>
      <point x="360" y="395" type="qcurve"/>
      <point x="352" y="397"/>
      <point x="338" y="397" type="qcurve"/>
      <point x="317" y="397"/>
      <point x="284" y="380"/>
      <point x="260" y="358"/>
      <point x="245" y="335"/>
      <point x="242" y="329" type="qcurve"/>
      <point x="242" y="51" type="line"/>
      <point x="301" y="51" type="line"/>
      <point x="301" y="0" type="line"/>
      <point x="25" y="0" type="line"/>
      <point x="25" y="51" type="line"/>
      <point x="84" y="51" type="line"/>
      <point x="84" y="565" type="line"/>
      <point x="25" y="565" type="line"/>
    </contour>
  </outline>
</glyph>
<glyph name="i" format="1">
  <advance width="326"/>
  <unicode hex="0069"/>
  <outline>
    <contour>
      <point x="30" y="441" type="line"/>
      <point x="89" y="441" type="line"/>
      <point x="247" y="465" type="line"/>
      <point x="247" y="51" type="line"/>
      <point x="306" y="51" type="line"/>
      <point x="306" y="0" type="line"/>
      <point x="30" y="0" type="line"/>
      <point x="30" y="51" type="line"/>
      <point x="89" y="51" type="line"/>
      <point x="89" y="391" type="line"/>
      <point x="30" y="391" type="line"/>
    </contour>
    <contour>
      <point x="89" y="597" type="qcurve"/>
      <point x="89" y="639"/>
      <point x="125" y="680"/>
      <point x="168" y="680" type="qcurve"/>
      <point x="213" y="680"/>
      <point x="247" y="639"/>
      <point x="247" y="597" type="qcurve"/>
      <point x="247" y="554"/>
      <point x="210" y="515"/>
      <point x="168" y="515" type="qcurve"/>
      <point x="125" y="515"/>
      <point x="89" y="554"/>
    </contour>
  </outline>
</glyph>
<glyph name="j" format="1">
  <advance width="309"/>
  <unicode hex="006A"/>
  <outline>
    <contour>
      <point x="27" y="441" type="line"/>
      <point x="86" y="441" type="line"/>
      <point x="244" y="465" type="line"/>
      <point x="244" y="-39" type="line"/>
      <point x="244" y="-77"/>
      <point x="210" y="-116"/>
      <point x="166" y="-131" type="qcurve"/>
      <point x="27" y="-179" type="line"/>
      <point x="10" y="-128" type="line"/>
      <point x="86" y="-101" type="line"/>
      <point x="86" y="391" type="line"/>
      <point x="27" y="391" type="line"/>
    </contour>
    <contour>
      <point x="86" y="597" type="qcurve"/>
      <point x="86" y="639"/>
      <point x="122" y="680"/>
      <point x="165" y="680" type="qcurve"/>
      <point x="210" y="680"/>
      <point x="244" y="639"/>
      <point x="244" y="597" type="qcurve"/>
      <point x="244" y="554"/>
      <point x="207" y="515"/>
      <point x="165" y="515" type="qcurve"/>
      <point x="122" y="515"/>
      <point x="86" y="554"/>
    </contour>
  </outline>
</glyph>
<glyph name="k" format="1">
  <advance width="568"/>
  <unicode hex="006B"/>
  <outline>
    <contour>
      <point x="288" y="238" type="line"/>
      <point x="242" y="238" type="line"/>
      <point x="242" y="51" type="line"/>
      <point x="301" y="51" type="line"/>
      <point x="301" y="0" type="line"/>
      <point x="25" y="0" type="line"/>
      <point x="25" y="51" type="line"/>
      <point x="84" y="51" type="line"/>
      <point x="84" y="565" type="line"/>
      <point x="25" y="565" type="line"/>
      <point x="25" y="615" type="line"/>
      <point x="84" y="615" type="line"/>
      <point x="242" y="644" type="line"/>
      <point x="242" y="292" type="line"/>
      <point x="311" y="292" type="line"/>
      <point x="358" y="292"/>
      <point x="397" y="315"/>
      <point x="397" y="352" type="qcurve"/>
      <point x="397" y="398" type="line"/>
      <point x="317" y="398" type="line"/>
      <point x="317" y="449" type="line"/>
      <point x="555" y="449" type="line"/>
      <point x="555" y="398" type="line"/>
      <point x="460" y="398" type="line"/>
      <point x="460" y="339" type="line"/>
      <point x="460" y="298"/>
      <point x="438" y="273" type="qcurve"/>
      <point x="536" y="50" type="line"/>
      <point x="548" y="50" type="line"/>
      <point x="556" y="50"/>
      <point x="564" y="51" type="qcurve"/>
      <point x="573" y="52"/>
      <point x="583" y="53" type="qcurve"/>
      <point x="583" y="5" type="line"/>
      <point x="571" y="2"/>
      <point x="554" y="0" type="qcurve"/>
      <point x="540" y="-2"/>
      <point x="496" y="-4"/>
      <point x="466" y="-4" type="qcurve"/>
      <point x="443" y="-4"/>
      <point x="411" y="4"/>
      <point x="389" y="19"/>
      <point x="374" y="40"/>
      <point x="368" y="54" type="qcurve"/>
    </contour>
  </outline>
</glyph>
<glyph name="l" format="1">
  <advance width="348"/>
  <unicode hex="006C"/>
  <outline>
    <contour>
      <point x="10" y="615" type="line"/>
      <point x="69" y="615" type="line"/>
      <point x="227" y="644" type="line"/>
      <point x="227" y="50" type="line"/>
      <point x="266" y="50"/>
      <point x="287" y="90"/>
      <point x="287" y="138" type="qcurve"/>
      <point x="338" y="138" type="line"/>
      <point x="338" y="107"/>
      <point x="332" y="55"/>
      <point x="303" y="17"/>
      <point x="243" y="-4"/>
      <point x="189" y="-4" type="qcurve"/>
      <point x="152" y="-4"/>
      <point x="105" y="18"/>
      <point x="79" y="49"/>
      <point x="69" y="82"/>
      <point x="69" y="93" type="qcurve"/>
      <point x="69" y="565" type="line"/>
      <point x="10" y="565" type="line"/>
    </contour>
  </outline>
</glyph>
<glyph name="m" format="1">
  <advance width="855"/>
  <unicode hex="006D"/>
  <outline>
    <contour>
      <point x="30" y="431" type="line"/>
      <point x="89" y="431" type="line"/>
      <point x="240" y="460" type="line"/>
      <point x="240" y="393" type="line"/>
      <point x="244" y="399"/>
      <point x="265" y="421"/>
      <point x="299" y="441"/>
      <point x="348" y="456"/>
      <point x="381" y="456" type="qcurve"/>
      <point x="400" y="456"/>
      <point x="440" y="450"/>
      <point x="475" y="436"/>
      <point x="503" y="412"/>
      <point x="509" y="393" type="qcurve"/>
      <point x="512" y="397"/>
      <point x="530" y="418"/>
      <point x="563" y="440"/>
      <point x="613" y="456"/>
      <point x="648" y="456" type="qcurve"/>
      <point x="671" y="456"/>
      <point x="718" y="448"/>
      <point x="757" y="427"/>
      <point x="781" y="391"/>
      <point x="781" y="362" type="qcurve"/>
      <point x="781" y="51" type="line"/>
      <point x="840" y="51" type="line"/>
      <point x="840" y="0" type="line"/>
      <point x="623" y="0" type="line"/>
      <point x="623" y="394" type="line"/>
      <point x="620" y="395" type="line"/>
      <point x="618" y="396"/>
      <point x="610" y="397"/>
      <point x="602" y="397" type="qcurve"/>
      <point x="585" y="397"/>
      <point x="556" y="379"/>
      <point x="533" y="356"/>
      <point x="517" y="333"/>
      <point x="514" y="328" type="qcurve"/>
      <point x="514" y="51" type="line"/>
      <point x="573" y="51" type="line"/>
      <point x="573" y="0" type="line"/>
      <point x="356" y="0" type="line"/>
      <point x="356" y="394" type="line"/>
      <point x="353" y="395" type="line"/>
      <point x="351" y="396"/>
      <point x="343" y="397"/>
      <point x="335" y="397" type="qcurve"/>
      <point x="318" y="397"/>
      <point x="289" y="379"/>
      <point x="266" y="356"/>
      <point x="250" y="333"/>
      <point x="247" y="328" type="qcurve"/>
      <point x="247" y="51" type="line"/>
      <point x="306" y="51" type="line"/>
      <point x="306" y="0" type="line"/>
      <point x="30" y="0" type="line"/>
      <point x="30" y="51" type="line"/>
      <point x="89" y="51" type="line"/>
      <point x="89" y="381" type="line"/>
      <point x="30" y="381" type="line"/>
    </contour>
  </outline>
</glyph>
<glyph name="n" format="1">
  <advance width="603"/>
  <unicode hex="006E"/>
  <outline>
    <contour>
      <point x="343" y="449" type="move" name="top"/>
    </contour>
    <contour>
      <point x="30" y="431" type="line"/>
      <point x="89" y="431" type="line"/>
      <point x="240" y="460" type="line"/>
      <point x="240" y="390" type="line"/>
      <point x="242" y="393"/>
      <point x="260" y="415"/>
      <point x="296" y="438"/>
      <point x="354" y="456"/>
      <point x="396" y="456" type="qcurve"/>
      <point x="419" y="456"/>
      <point x="466" y="448"/>
      <point x="505" y="427"/>
      <point x="529" y="391"/>
      <point x="529" y="362" type="qcurve"/>
      <point x="529" y="51" type="line"/>
      <point x="588" y="51" type="line"/>
      <point x="588" y="0" type="line"/>
      <point x="371" y="0" type="line"/>
      <point x="371" y="394" type="line"/>
      <point x="369" y="394"/>
      <point x="365" y="395" type="qcurve"/>
      <point x="357" y="397"/>
      <point x="343" y="397" type="qcurve"/>
      <point x="322" y="397"/>
      <point x="289" y="380"/>
      <point x="265" y="358"/>
      <point x="250" y="335"/>
      <point x="247" y="329" type="qcurve"/>
      <point x="247" y="51" type="line"/>
      <point x="306" y="51" type="line"/>
      <point x="306" y="0" type="line"/>
      <point x="30" y="0" type="line"/>
      <point x="30" y="51" type="line"/>
      <point x="89" y="51" type="line"/>
      <point x="89" y="381" type="line"/>
      <point x="30" y="381" type="line"/>
    </contour>
  </outline>
</glyph>
<glyph name="o" format="1">
  <advance width="536"/>
  <unicode hex="006F"/>
  <outline>
    <contour>
      <point x="270" y="449" type="move" name="top"/>
    </contour>
    <contour>
      <point x="199" y="223" type="qcurve"/>
      <point x="199" y="184"/>
      <point x="204" y="117"/>
      <point x="208" y="93" type="qcurve"/>
      <point x="212" y="64"/>
      <point x="217" y="41" type="qcurve"/>
      <point x="222" y="39"/>
      <point x="230" y="38" type="qcurve"/>
      <point x="243" y="35"/>
      <point x="268" y="35" type="qcurve"/>
      <point x="292" y="35"/>
      <point x="306" y="38" type="qcurve"/>
      <point x="314" y="39"/>
      <point x="319" y="41" type="qcurve"/>
      <point x="324" y="64"/>
      <point x="328" y="93" type="qcurve"/>
      <point x="331" y="117"/>
      <point x="337" y="184"/>
      <point x="337" y="223" type="qcurve"/>
      <point x="337" y="262"/>
      <point x="331" y="328"/>
      <point x="328" y="353" type="qcurve"/>
      <point x="324" y="381"/>
      <point x="319" y="405" type="qcurve"/>
      <point x="313" y="406"/>
      <point x="305" y="408" type="qcurve"/>
      <point x="298" y="409"/>
      <point x="279" y="411"/>
      <point x="268" y="411" type="qcurve"/>
      <point x="255" y="411"/>
      <point x="237" y="409"/>
      <point x="230" y="408" type="qcurve"/>
      <point x="222" y="406"/>
      <point x="217" y="405" type="qcurve"/>
      <point x="212" y="381"/>
      <point x="208" y="353" type="qcurve"/>
      <point x="204" y="328"/>
      <point x="199" y="262"/>
    </contour>
    <contour>
      <point x="35" y="223" type="qcurve"/>
      <point x="35" y="287"/>
      <point x="59" y="376"/>
      <point x="115" y="431"/>
      <point x="203" y="456"/>
      <point x="268" y="456" type="qcurve"/>
      <point x="332" y="456"/>
      <point x="421" y="431"/>
      <point x="477" y="376"/>
      <point x="501" y="287"/>
      <point x="501" y="223" type="qcurve"/>
      <point x="501" y="159"/>
      <point x="477" y="70"/>
      <point x="421" y="15"/>
      <point x="332" y="-10"/>
      <point x="268" y="-10" type="qcurve"/>
      <point x="203" y="-10"/>
      <point x="115" y="15"/>
      <point x="59" y="70"/>
      <point x="35" y="159"/>
    </contour>
  </outline>
</glyph>
<glyph name="p" format="1">
  <advance width="578"/>
  <unicode hex="0070"/>
  <outline>
    <contour>
      <point x="25" y="431" type="line"/>
      <point x="84" y="431" type="line"/>
      <point x="235" y="460" type="line"/>
      <point x="235" y="397" type="line"/>
      <point x="264" y="424"/>
      <point x="334" y="455"/>
      <point x="373" y="455" type="qcurve"/>
      <point x="414" y="455"/>
      <point x="478" y="430"/>
      <point x="521" y="375"/>
      <point x="543" y="286"/>
      <point x="543" y="223" type="qcurve"/>
      <point x="543" y="159"/>
      <point x="519" y="70"/>
      <point x="463" y="15"/>
      <point x="374" y="-9"/>
      <point x="310" y="-9" type="qcurve"/>
      <point x="292" y="-9"/>
      <point x="258" y="-5"/>
      <point x="242" y="-3" type="qcurve"/>
      <point x="242" y="-165" type="line"/>
      <point x="25" y="-165" type="line"/>
      <point x="25" y="-114" type="line"/>
      <point x="84" y="-114" type="line"/>
      <point x="84" y="381" type="line"/>
      <point x="25" y="381" type="line"/>
    </contour>
    <contour>
      <point x="361" y="401" type="qcurve"/>
      <point x="328" y="401"/>
      <point x="266" y="359"/>
      <point x="242" y="328" type="qcurve"/>
      <point x="242" y="45" type="line"/>
      <point x="259" y="40"/>
      <point x="295" y="36"/>
      <point x="310" y="36" type="qcurve"/>
      <point x="334" y="36"/>
      <point x="348" y="39" type="qcurve"/>
      <point x="356" y="40"/>
      <point x="361" y="42" type="qcurve"/>
      <point x="366" y="65"/>
      <point x="370" y="93" type="qcurve"/>
      <point x="373" y="117"/>
      <point x="379" y="184"/>
      <point x="379" y="223" type="qcurve"/>
      <point x="379" y="271"/>
      <point x="373" y="338"/>
      <point x="370" y="360" type="qcurve"/>
      <point x="366" y="386"/>
    </contour>
  </outline>
</glyph>
<glyph name="q" format="1">
  <advance width="555"/>
  <unicode hex="0071"/>
  <outline>
    <contour>
      <point x="278" y="-114" type="line"/>
      <point x="337" y="-114" type="line"/>
      <point x="337" y="44" type="line"/>
      <point x="309" y="20"/>
      <point x="242" y="-8"/>
      <point x="205" y="-8" type="qcurve"/>
      <point x="164" y="-8"/>
      <point x="100" y="17"/>
      <point x="57" y="72"/>
      <point x="35" y="161"/>
      <point x="35" y="224" type="qcurve"/>
      <point x="35" y="288"/>
      <point x="59" y="377"/>
      <point x="115" y="432"/>
      <point x="203" y="456"/>
      <point x="268" y="456" type="qcurve"/>
      <point x="306" y="456"/>
      <point x="375" y="442"/>
      <point x="395" y="437" type="qcurve"/>
      <point x="495" y="443" type="line"/>
      <point x="495" y="-165" type="line"/>
      <point x="278" y="-165" type="line"/>
    </contour>
    <contour>
      <point x="217" y="46" type="qcurve"/>
      <point x="250" y="46"/>
      <point x="313" y="88"/>
      <point x="337" y="120" type="qcurve"/>
      <point x="337" y="402" type="line"/>
      <point x="320" y="406"/>
      <point x="283" y="411"/>
      <point x="268" y="411" type="qcurve"/>
      <point x="255" y="411"/>
      <point x="237" y="409"/>
      <point x="230" y="408" type="qcurve"/>
      <point x="222" y="406"/>
      <point x="217" y="405" type="qcurve"/>
      <point x="212" y="381"/>
      <point x="208" y="353" type="qcurve"/>
      <point x="204" y="329"/>
      <point x="199" y="263"/>
      <point x="199" y="224" type="qcurve"/>
      <point x="199" y="176"/>
      <point x="204" y="109"/>
      <point x="208" y="87" type="qcurve"/>
      <point x="212" y="61"/>
    </contour>
  </outline>
</glyph>
<glyph name="r" format="1">
  <advance width="445"/>
  <unicode hex="0072"/>
  <outline>
    <contour>
      <point x="30" y="431" type="line"/>
      <point x="89" y="431" type="line"/>
      <point x="240" y="460" type="line"/>
      <point x="240" y="396" type="line"/>
      <point x="241" y="399"/>
      <point x="254" y="418"/>
      <point x="283" y="439"/>
      <point x="330" y="456"/>
      <point x="366" y="456" type="qcurve"/>
      <point x="388" y="456"/>
      <point x="413" y="454"/>
      <point x="420" y="453" type="qcurve"/>
      <point x="428" y="452"/>
      <point x="430" y="451" type="qcurve"/>
      <point x="430" y="258" type="line"/>
      <point x="394" y="258"/>
      <point x="346" y="286"/>
      <point x="316" y="328"/>
      <point x="300" y="374"/>
      <point x="297" y="392" type="qcurve"/>
      <point x="288" y="387"/>
      <point x="272" y="370"/>
      <point x="259" y="351"/>
      <point x="249" y="334"/>
      <point x="247" y="329" type="qcurve"/>
      <point x="247" y="51" type="line"/>
      <point x="306" y="51" type="line"/>
      <point x="306" y="0" type="line"/>
      <point x="30" y="0" type="line"/>
      <point x="30" y="51" type="line"/>
      <point x="89" y="51" type="line"/>
      <point x="89" y="381" type="line"/>
      <point x="30" y="381" type="line"/>
    </contour>
  </outline>
</glyph>
<glyph name="s" format="1">
  <advance width="457"/>
  <unicode hex="0073"/>
  <outline>
    <contour>
      <point x="248" y="454" type="qcurve"/>
      <point x="271" y="454"/>
      <point x="309" y="447"/>
      <point x="324" y="442" type="qcurve"/>
      <point x="391" y="457" type="line"/>
      <point x="391" y="303" type="line"/>
      <point x="353" y="303"/>
      <point x="304" y="326"/>
      <point x="274" y="359"/>
      <point x="259" y="396"/>
      <point x="256" y="409" type="qcurve"/>
      <point x="248" y="409" type="line"/>
      <point x="239" y="409"/>
      <point x="226" y="408"/>
      <point x="221" y="407" type="qcurve"/>
      <point x="216" y="406"/>
      <point x="213" y="405" type="qcurve"/>
      <point x="210" y="401"/>
      <point x="208" y="395" type="qcurve"/>
      <point x="206" y="390"/>
      <point x="204" y="372"/>
      <point x="204" y="360" type="qcurve"/>
      <point x="204" y="341"/>
      <point x="212" y="317"/>
      <point x="229" y="301"/>
      <point x="257" y="291"/>
      <point x="278" y="285" type="qcurve"/>
      <point x="305" y="278"/>
      <point x="358" y="257"/>
      <point x="400" y="223"/>
      <point x="427" y="172"/>
      <point x="427" y="136" type="qcurve"/>
      <point x="427" y="96"/>
      <point x="399" y="41"/>
      <point x="348" y="7"/>
      <point x="273" y="-8"/>
      <point x="227" y="-8" type="qcurve"/>
      <point x="189" y="-8"/>
      <point x="138" y="-1"/>
      <point x="123" y="4" type="qcurve"/>
      <point x="54" y="-11" type="line"/>
      <point x="54" y="153" type="line"/>
      <point x="91" y="153"/>
      <point x="141" y="127"/>
      <point x="171" y="91"/>
      <point x="185" y="52"/>
      <point x="188" y="38" type="qcurve"/>
      <point x="194" y="37"/>
      <point x="199" y="37" type="qcurve"/>
      <point x="228" y="37" type="line"/>
      <point x="237" y="37"/>
      <point x="244" y="38" type="qcurve"/>
      <point x="252" y="39"/>
      <point x="259" y="40" type="qcurve"/>
      <point x="261" y="44"/>
      <point x="263" y="51" type="qcurve"/>
      <point x="265" y="57"/>
      <point x="268" y="77"/>
      <point x="268" y="91" type="qcurve"/>
      <point x="268" y="120"/>
      <point x="235" y="154"/>
      <point x="185" y="177"/>
      <point x="128" y="198"/>
      <point x="78" y="229"/>
      <point x="45" y="280"/>
      <point x="45" y="323" type="qcurve"/>
      <point x="45" y="353"/>
      <point x="66" y="402"/>
      <point x="113" y="436"/>
      <point x="191" y="454"/>
    </contour>
  </outline>
</glyph>
<glyph name="t" format="1">
  <advance width="368"/>
  <unicode hex="0074"/>
  <outline>
    <contour>
      <point x="65" y="495" type="line"/>
      <point x="223" y="538" type="line"/>
      <point x="223" y="449" type="line"/>
      <point x="343" y="449" type="line"/>
      <point x="343" y="399" type="line"/>
      <point x="223" y="399" type="line"/>
      <point x="223" y="50" type="line"/>
      <point x="244" y="50" type="line"/>
      <point x="302" y="50"/>
      <point x="302" y="138" type="qcurve"/>
      <point x="353" y="138" type="line"/>
      <point x="353" y="106"/>
      <point x="346" y="54"/>
      <point x="315" y="16"/>
      <point x="254" y="-4"/>
      <point x="200" y="-4" type="qcurve"/>
      <point x="163" y="-4"/>
      <point x="111" y="13"/>
      <point x="79" y="41"/>
      <point x="65" y="75"/>
      <point x="65" y="93" type="qcurve"/>
    </contour>
  </outline>
</glyph>
<glyph name="w" format="1">
  <advance width="734"/>
  <unicode hex="0077"/>
  <outline>
    <contour>
      <point x="-15" y="449" type="line"/>
      <point x="185" y="449" type="line"/>
      <point x="301" y="204" type="line"/>
      <point x="353" y="310" type="line"/>
      <point x="296" y="429" type="line"/>
      <point x="296" y="449" type="line"/>
      <point x="443" y="449" type="line"/>
      <point x="556" y="200" type="line"/>
      <point x="620" y="398" type="line"/>
      <point x="546" y="398" type="line"/>
      <point x="546" y="449" type="line"/>
      <point x="744" y="449" type="line"/>
      <point x="744" y="398" type="line"/>
      <point x="681" y="398" type="line"/>
      <point x="537" y="-30" type="line"/>
      <point x="516" y="-30" type="line"/>
      <point x="387" y="239" type="line"/>
      <point x="257" y="-30" type="line"/>
      <point x="236" y="-30" type="line"/>
      <point x="36" y="398" type="line"/>
      <point x="-15" y="398" type="line"/>
    </contour>
  </outline>
</glyph>
<glyph name="y" format="1">
  <advance width="531"/>
  <unicode hex="0079"/>
  <outline>
    <contour>
      <point x="292" y="449" type="move" name="top"/>
    </contour>
    <contour>
      <point x="-15" y="449" type="line"/>
      <point x="194" y="449" type="line"/>
      <point x="309" y="158" type="line"/>
      <point x="413" y="398" type="line"/>
      <point x="333" y="398" type="line"/>
      <point x="333" y="449" type="line"/>
      <point x="541" y="449" type="line"/>
      <point x="541" y="398" type="line"/>
      <point x="471" y="398" type="line"/>
      <point x="271" y="-70" type="line"/>
      <point x="262" y="-92"/>
      <point x="241" y="-127"/>
      <point x="214" y="-152"/>
      <point x="177" y="-165"/>
      <point x="151" y="-165" type="qcurve"/>
      <point x="123" y="-165"/>
      <point x="90" y="-146"/>
      <point x="72" y="-119"/>
      <point x="67" y="-90"/>
      <point x="67" y="-79" type="qcurve"/>
      <point x="67" y="-49" type="line"/>
      <point x="120" y="-49" type="line"/>
      <point x="120" y="-80" type="line"/>
      <point x="120" y="-92"/>
      <point x="133" y="-114"/>
      <point x="151" y="-114" type="qcurve"/>
      <point x="178" y="-114"/>
      <point x="207" y="-76"/>
      <point x="218" y="-50" type="qcurve"/>
      <point x="229" y="-24" type="line"/>
      <point x="35" y="398" type="line"/>
      <point x="-15" y="398" type="line"/>
    </contour>
  </outline>
</glyph>
<glyph name="z" format="1">
  <advance width="468"/>
  <unicode hex="007A"/>
  <outline>
    <contour>
      <point x="426" y="430" type="line"/>
      <point x="221" y="48" type="line"/>
      <point x="295" y="48" type="line"/>
      <point x="300" y="64"/>
      <point x="319" y="106"/>
      <point x="352" y="143"/>
      <point x="402" y="169"/>
      <point x="438" y="169" type="qcurve"/>
      <point x="438" y="0" type="line"/>
      <point x="35" y="0" type="line"/>
      <point x="35" y="18" type="line"/>
      <point x="248" y="401" type="line"/>
      <point x="166" y="401" type="line"/>
      <point x="163" y="386"/>
      <point x="148" y="349"/>
      <point x="119" y="316"/>
      <point x="72" y="294"/>
      <point x="36" y="294" type="qcurve"/>
      <point x="36" y="449" type="line"/>
      <point x="426" y="449" type="line"/>
    </contour>
  </outline>
</glyph>
<glyph name="braceleft" format="1">
  <advance width="425"/>
  <unicode hex="007B"/>
  <outline>
    <contour>
      <point x="30" y="281" type="line"/>
      <point x="117" y="341" type="line"/>
      <point x="114" y="381"/>
      <point x="114" y="415" type="qcurve"/>
      <point x="114" y="468"/>
      <point x="143" y="555"/>
      <point x="207" y="622"/>
      <point x="308" y="668"/>
      <point x="380" y="680" type="qcurve"/>
      <point x="380" y="619" type="line"/>
      <point x="355" y="615"/>
      <point x="319" y="602"/>
      <point x="307" y="595" type="qcurve"/>
      <point x="293" y="587"/>
      <point x="282" y="577" type="qcurve"/>
      <point x="279" y="559"/>
      <point x="276" y="536" type="qcurve"/>
      <point x="274" y="516"/>
      <point x="270" y="462"/>
      <point x="270" y="429" type="qcurve"/>
      <point x="270" y="409"/>
      <point x="255" y="377"/>
      <point x="232" y="352"/>
      <point x="204" y="330"/>
      <point x="190" y="321" type="qcurve"/>
      <point x="122" y="275" type="line"/>
      <point x="194" y="222" type="line"/>
      <point x="207" y="213"/>
      <point x="234" y="191"/>
      <point x="256" y="166"/>
      <point x="270" y="135"/>
      <point x="270" y="116" type="qcurve"/>
      <point x="270" y="82"/>
      <point x="274" y="29"/>
      <point x="276" y="9" type="qcurve"/>
      <point x="279" y="-14"/>
      <point x="282" y="-32" type="qcurve"/>
      <point x="293" y="-42"/>
      <point x="307" y="-50" type="qcurve"/>
      <point x="319" y="-57"/>
      <point x="355" y="-71"/>
      <point x="380" y="-74" type="qcurve"/>
      <point x="380" y="-135" type="line"/>
      <point x="308" y="-123"/>
      <point x="207" y="-77"/>
      <point x="143" y="-10"/>
      <point x="114" y="77"/>
      <point x="114" y="130" type="qcurve"/>
      <point x="114" y="143"/>
      <point x="115" y="184"/>
      <point x="117" y="204" type="qcurve"/>
      <point x="30" y="265" type="line"/>
    </contour>
  </outline>
</glyph>
<glyph name="bar" format="1">
  <advance width="462"/>
  <unicode hex="007C"/>
  <outline>
    <contour>
      <point x="200" y="644" type="line"/>
      <point x="262" y="644" type="line"/>
      <point x="262" y="-46" type="line"/>
      <point x="200" y="-46" type="line"/>
    </contour>
  </outline>
</glyph>
<glyph name="braceright" format="1">
  <advance width="425"/>
  <unicode hex="007D"/>
  <outline>
    <contour>
      <point x="395" y="265" type="line"/>
      <point x="308" y="204" type="line"/>
      <point x="310" y="184"/>
      <point x="311" y="143"/>
      <point x="311" y="130" type="qcurve"/>
      <point x="311" y="77"/>
      <point x="282" y="-10"/>
      <point x="218" y="-77"/>
      <point x="117" y="-123"/>
      <point x="45" y="-135" type="qcurve"/>
      <point x="45" y="-74" type="line"/>
      <point x="69" y="-71"/>
      <point x="106" y="-57"/>
      <point x="118" y="-50" type="qcurve"/>
      <point x="132" y="-42"/>
      <point x="143" y="-32" type="qcurve"/>
      <point x="146" y="-14"/>
      <point x="149" y="9" type="qcurve"/>
      <point x="151" y="29"/>
      <point x="155" y="82"/>
      <point x="155" y="116" type="qcurve"/>
      <point x="155" y="135"/>
      <point x="169" y="166"/>
      <point x="191" y="191"/>
      <point x="218" y="213"/>
      <point x="231" y="222" type="qcurve"/>
      <point x="303" y="275" type="line"/>
      <point x="235" y="321" type="line"/>
      <point x="221" y="330"/>
      <point x="193" y="352"/>
      <point x="170" y="377"/>
      <point x="155" y="409"/>
      <point x="155" y="429" type="qcurve"/>
      <point x="155" y="462"/>
      <point x="151" y="516"/>
      <point x="149" y="536" type="qcurve"/>
      <point x="146" y="559"/>
      <point x="143" y="577" type="qcurve"/>
      <point x="132" y="587"/>
      <point x="118" y="595" type="qcurve"/>
      <point x="106" y="602"/>
      <point x="69" y="615"/>
      <point x="45" y="619" type="qcurve"/>
      <point x="45" y="680" type="line"/>
      <point x="117" y="668"/>
      <point x="218" y="622"/>
      <point x="282" y="555"/>
      <point x="311" y="468"/>
      <point x="311" y="415" type="qcurve"/>
      <point x="311" y="381"/>
      <point x="308" y="341" type="qcurve"/>
      <point x="395" y="281" type="line"/>
    </contour>
  </outline>
</glyph>
<glyph name="asciitilde" format="1">
  <advance width="510"/>
  <unicode hex="007E"/>
  <outline>
    <contour>
      <point x="50" y="270" type="line"/>
      <point x="64" y="311"/>
      <point x="125" y="343"/>
      <point x="170" y="343" type="qcurve"/>
      <point x="192" y="343"/>
      <point x="236" y="332"/>
      <point x="278" y="319"/>
      <point x="319" y="308"/>
      <point x="339" y="308" type="qcurve"/>
      <point x="364" y="308"/>
      <point x="400" y="322"/>
      <point x="411" y="344" type="qcurve"/>
      <point x="460" y="323" type="line"/>
      <point x="446" y="282"/>
      <point x="385" y="250"/>
      <point x="340" y="250" type="qcurve"/>
      <point x="319" y="250"/>
      <point x="275" y="261"/>
      <point x="231" y="274"/>
      <point x="190" y="285"/>
      <point x="171" y="285" type="qcurve"/>
      <point x="146" y="285"/>
      <point x="110" y="271"/>
      <point x="99" y="249" type="qcurve"/>
    </contour>
  </outline>
</glyph>
<glyph name="exclamdown" format="1">
  <advance width="312"/>
  <unicode hex="00A1"/>
  <outline>
    <contour>
      <point x="99" y="234" type="line"/>
      <point x="152" y="234" type="line"/>
      <point x="212" y="-60" type="line"/>
      <point x="212" y="-103"/>
      <point x="171" y="-154"/>
      <point x="126" y="-154" type="qcurve"/>
      <point x="84" y="-154"/>
      <point x="44" y="-102"/>
      <point x="44" y="-60" type="qcurve"/>
    </contour>
    <contour>
      <point x="206" y="370" type="qcurve"/>
      <point x="206" y="325"/>
      <point x="168" y="283"/>
      <point x="123" y="283" type="qcurve"/>
      <point x="75" y="283"/>
      <point x="40" y="325"/>
      <point x="40" y="370" type="qcurve"/>
      <point x="40" y="415"/>
      <point x="78" y="456"/>
      <point x="123" y="456" type="qcurve"/>
      <point x="168" y="456"/>
      <point x="206" y="415"/>
    </contour>
  </outline>
</glyph>
<glyph name="cent" format="1">
  <advance width="511"/>
  <unicode hex="00A2"/>
  <outline>
    <contour>
      <point x="267" y="31" type="line"/>
      <point x="209" y="33"/>
      <point x="127" y="61"/>
      <point x="74" y="117"/>
      <point x="50" y="203"/>
      <point x="50" y="264" type="qcurve"/>
      <point x="50" y="325"/>
      <point x="72" y="412"/>
      <point x="123" y="468"/>
      <point x="206" y="494"/>
      <point x="267" y="496" type="qcurve"/>
      <point x="267" y="624" type="line"/>
      <point x="329" y="624" type="line"/>
      <point x="329" y="495" type="line"/>
      <point x="363" y="493"/>
      <point x="426" y="485"/>
      <point x="442" y="483" type="qcurve"/>
      <point x="471" y="490" type="line"/>
      <point x="471" y="337" type="line"/>
      <point x="438" y="337"/>
      <point x="395" y="362"/>
      <point x="369" y="396"/>
      <point x="357" y="434"/>
      <point x="355" y="447" type="qcurve"/>
      <point x="329" y="449" type="line"/>
      <point x="329" y="81" type="line"/>
      <point x="365" y="86"/>
      <point x="417" y="125"/>
      <point x="417" y="172" type="qcurve"/>
      <point x="465" y="172" type="line"/>
      <point x="465" y="132"/>
      <point x="440" y="80"/>
      <point x="401" y="49"/>
      <point x="352" y="34"/>
      <point x="329" y="32" type="qcurve"/>
      <point x="329" y="-66" type="line"/>
      <point x="267" y="-66" type="line"/>
    </contour>
    <contour>
      <point x="267" y="80" type="line"/>
      <point x="267" y="452" type="line"/>
      <point x="232" y="446" type="line"/>
      <point x="227" y="422"/>
      <point x="223" y="394" type="qcurve"/>
      <point x="219" y="370"/>
      <point x="214" y="303"/>
      <point x="214" y="264" type="qcurve"/>
      <point x="214" y="225"/>
      <point x="219" y="159"/>
      <point x="223" y="135" type="qcurve"/>
      <point x="227" y="107"/>
      <point x="232" y="84" type="qcurve"/>
    </contour>
  </outline>
</glyph>
<glyph name="sterling" format="1">
  <advance width="617"/>
  <unicode hex="00A3"/>
  <outline>
    <contour>
      <point x="138" y="342" type="line"/>
      <point x="143" y="407"/>
      <point x="176" y="500"/>
      <point x="239" y="559"/>
      <point x="335" y="586"/>
      <point x="404" y="586" type="qcurve"/>
      <point x="438" y="586"/>
      <point x="491" y="581"/>
      <point x="509" y="578" type="qcurve"/>
      <point x="530" y="574"/>
      <point x="546" y="571" type="qcurve"/>
      <point x="546" y="367" type="line"/>
      <point x="486" y="367"/>
      <point x="415" y="412"/>
      <point x="376" y="471"/>
      <point x="364" y="525"/>
      <point x="363" y="534" type="qcurve"/>
      <point x="321" y="527" type="line"/>
      <point x="321" y="479" type="line"/>
      <point x="321" y="456"/>
      <point x="322" y="387"/>
      <point x="322" y="342" type="qcurve"/>
      <point x="462" y="342" type="line"/>
      <point x="462" y="284" type="line"/>
      <point x="322" y="284" type="line"/>
      <point x="320" y="190"/>
      <point x="277" y="79"/>
      <point x="230" y="51" type="qcurve"/>
      <point x="374" y="51" type="line"/>
      <point x="437" y="51"/>
      <point x="519" y="117"/>
      <point x="519" y="190" type="qcurve"/>
      <point x="519" y="221" type="line"/>
      <point x="577" y="221" type="line"/>
      <point x="577" y="193" type="line"/>
      <point x="577" y="142"/>
      <point x="543" y="69"/>
      <point x="485" y="22"/>
      <point x="410" y="0"/>
      <point x="368" y="0" type="qcurve"/>
      <point x="43" y="0" type="line"/>
      <point x="43" y="51" type="line"/>
      <point x="116" y="51" type="line"/>
      <point x="121" y="81"/>
      <point x="125" y="118" type="qcurve"/>
      <point x="128" y="150"/>
      <point x="134" y="233"/>
      <point x="135" y="284" type="qcurve"/>
      <point x="30" y="284" type="line"/>
      <point x="30" y="342" type="line"/>
    </contour>
  </outline>
</glyph>
<glyph name="currency" format="1">
  <advance width="628"/>
  <unicode hex="00A4"/>
  <outline>
    <contour>
      <point x="30" y="34" type="line"/>
      <point x="129" y="133" type="line"/>
      <point x="81" y="193"/>
      <point x="81" y="288" type="qcurve"/>
      <point x="81" y="382"/>
      <point x="129" y="442" type="qcurve"/>
      <point x="30" y="542" type="line"/>
      <point x="73" y="586" type="line"/>
      <point x="175" y="484" type="line"/>
      <point x="232" y="521"/>
      <point x="314" y="521" type="qcurve"/>
      <point x="396" y="521"/>
      <point x="453" y="484" type="qcurve"/>
      <point x="555" y="586" type="line"/>
      <point x="598" y="542" type="line"/>
      <point x="499" y="442" type="line"/>
      <point x="547" y="382"/>
      <point x="547" y="288" type="qcurve"/>
      <point x="547" y="193"/>
      <point x="499" y="133" type="qcurve"/>
      <point x="598" y="34" type="line"/>
      <point x="555" y="-10" type="line"/>
      <point x="453" y="92" type="line"/>
      <point x="396" y="55"/>
      <point x="314" y="55" type="qcurve"/>
      <point x="232" y="55"/>
      <point x="175" y="92" type="qcurve"/>
      <point x="73" y="-10" type="line"/>
    </contour>
    <contour>
      <point x="149" y="289" type="qcurve"/>
      <point x="149" y="199"/>
      <point x="234" y="113"/>
      <point x="314" y="113" type="qcurve"/>
      <point x="394" y="113"/>
      <point x="479" y="199"/>
      <point x="479" y="289" type="qcurve"/>
      <point x="479" y="377"/>
      <point x="394" y="463"/>
      <point x="314" y="463" type="qcurve"/>
      <point x="234" y="463"/>
      <point x="149" y="378"/>
    </contour>
  </outline>
</glyph>
<glyph name="yen" format="1">
  <advance width="598"/>
  <unicode hex="00A5"/>
  <outline>
    <contour>
      <point x="15" y="577" type="line"/>
      <point x="197" y="577" type="line"/>
      <point x="355" y="318" type="line"/>
      <point x="451" y="519" type="line"/>
      <point x="351" y="519" type="line"/>
      <point x="351" y="577" type="line"/>
      <point x="588" y="577" type="line"/>
      <point x="588" y="519" type="line"/>
      <point x="513" y="519" type="line"/>
      <point x="395" y="275" type="line"/>
      <point x="496" y="275" type="line"/>
      <point x="496" y="217" type="line"/>
      <point x="379" y="217" type="line"/>
      <point x="379" y="185" type="line"/>
      <point x="496" y="185" type="line"/>
      <point x="496" y="127" type="line"/>
      <point x="379" y="127" type="line"/>
      <point x="379" y="58" type="line"/>
      <point x="468" y="58" type="line"/>
      <point x="468" y="0" type="line"/>
      <point x="122" y="0" type="line"/>
      <point x="122" y="58" type="line"/>
      <point x="211" y="58" type="line"/>
      <point x="211" y="127" type="line"/>
      <point x="94" y="127" type="line"/>
      <point x="94" y="185" type="line"/>
      <point x="211" y="185" type="line"/>
      <point x="211" y="217" type="line"/>
      <point x="94" y="217" type="line"/>
      <point x="94" y="275" type="line"/>
      <point x="188" y="275" type="line"/>
      <point x="15" y="556" type="line"/>
    </contour>
  </outline>
</glyph>
<glyph name="section" format="1">
  <advance width="458"/>
  <unicode hex="00A7"/>
  <outline>
    <contour>
      <point x="223" y="-96" type="qcurve"/>
      <point x="193" y="-96"/>
      <point x="140" y="-88"/>
      <point x="100" y="-67"/>
      <point x="77" y="-28"/>
      <point x="77" y="3" type="qcurve"/>
      <point x="77" y="30" type="line"/>
      <point x="137" y="30" type="line"/>
      <point x="137" y="4" type="line"/>
      <point x="137" y="-17"/>
      <point x="173" y="-43"/>
      <point x="199" y="-43" type="qcurve"/>
      <point x="205" y="-43"/>
      <point x="218" y="-42"/>
      <point x="223" y="-41" type="qcurve"/>
      <point x="235" y="-39" type="line"/>
      <point x="237" y="-33"/>
      <point x="239" y="-25" type="qcurve"/>
      <point x="241" y="-19"/>
      <point x="244" y="-2"/>
      <point x="244" y="8" type="qcurve"/>
      <point x="244" y="24"/>
      <point x="234" y="47"/>
      <point x="215" y="63"/>
      <point x="187" y="76"/>
      <point x="170" y="83" type="qcurve"/>
      <point x="130" y="99" type="line"/>
      <point x="92" y="114"/>
      <point x="50" y="177"/>
      <point x="50" y="221" type="qcurve"/>
      <point x="50" y="265"/>
      <point x="78" y="337"/>
      <point x="101" y="362" type="qcurve"/>
      <point x="82" y="378"/>
      <point x="60" y="423"/>
      <point x="60" y="457" type="qcurve"/>
      <point x="60" y="486"/>
      <point x="79" y="534"/>
      <point x="121" y="569"/>
      <point x="188" y="588"/>
      <point x="235" y="588" type="qcurve"/>
      <point x="265" y="588"/>
      <point x="318" y="580"/>
      <point x="358" y="559"/>
      <point x="381" y="520"/>
      <point x="381" y="489" type="qcurve"/>
      <point x="381" y="462" type="line"/>
      <point x="321" y="462" type="line"/>
      <point x="321" y="488" type="line"/>
      <point x="321" y="509"/>
      <point x="285" y="535"/>
      <point x="259" y="535" type="qcurve"/>
      <point x="253" y="535"/>
      <point x="240" y="534"/>
      <point x="235" y="533" type="qcurve"/>
      <point x="223" y="531" type="line"/>
      <point x="220" y="527"/>
      <point x="218" y="522" type="qcurve"/>
      <point x="216" y="517"/>
      <point x="214" y="504"/>
      <point x="214" y="494" type="qcurve"/>
      <point x="214" y="461"/>
      <point x="253" y="432"/>
      <point x="288" y="419" type="qcurve"/>
      <point x="328" y="403" type="line"/>
      <point x="366" y="388"/>
      <point x="408" y="325"/>
      <point x="408" y="281" type="qcurve"/>
      <point x="408" y="238"/>
      <point x="381" y="164"/>
      <point x="359" y="137" type="qcurve"/>
      <point x="377" y="121"/>
      <point x="398" y="77"/>
      <point x="398" y="45" type="qcurve"/>
      <point x="398" y="16"/>
      <point x="379" y="-36"/>
      <point x="337" y="-74"/>
      <point x="270" y="-96"/>
    </contour>
    <contour>
      <point x="141" y="338" type="line"/>
      <point x="130" y="328"/>
      <point x="112" y="294"/>
      <point x="112" y="278" type="qcurve"/>
      <point x="124" y="261"/>
      <point x="175" y="227"/>
      <point x="207" y="213" type="qcurve"/>
      <point x="319" y="163" type="line"/>
      <point x="329" y="174"/>
      <point x="346" y="210"/>
      <point x="346" y="224" type="qcurve"/>
      <point x="334" y="241"/>
      <point x="283" y="275"/>
      <point x="251" y="289" type="qcurve"/>
    </contour>
  </outline>
</glyph>
<glyph name="dieresis" format="1">
  <advance width="520"/>
  <unicode hex="00A8"/>
  <outline>
    <contour>
      <point x="261" y="449" type="move" name="_top"/>
    </contour>
    <contour>
      <point x="86" y="597" type="qcurve"/>
      <point x="86" y="635"/>
      <point x="119" y="672"/>
      <point x="157" y="672" type="qcurve"/>
      <point x="198" y="672"/>
      <point x="228" y="635"/>
      <point x="228" y="597" type="qcurve"/>
      <point x="228" y="559"/>
      <point x="195" y="523"/>
      <point x="157" y="523" type="qcurve"/>
      <point x="119" y="523"/>
      <point x="86" y="559"/>
    </contour>
    <contour>
      <point x="291" y="597" type="qcurve"/>
      <point x="291" y="635"/>
      <point x="324" y="672"/>
      <point x="362" y="672" type="qcurve"/>
      <point x="403" y="672"/>
      <point x="433" y="635"/>
      <point x="433" y="597" type="qcurve"/>
      <point x="433" y="559"/>
      <point x="400" y="523"/>
      <point x="362" y="523" type="qcurve"/>
      <point x="324" y="523"/>
      <point x="291" y="559"/>
    </contour>
  </outline>
</glyph>
<glyph name="copyright" format="1">
  <advance width="570"/>
  <unicode hex="00A9"/>
  <outline>
    <contour>
      <point x="50" y="226" type="qcurve"/>
      <point x="50" y="278"/>
      <point x="84" y="363"/>
      <point x="146" y="425"/>
      <point x="233" y="459"/>
      <point x="285" y="459" type="qcurve"/>
      <point x="339" y="459"/>
      <point x="426" y="427"/>
      <point x="487" y="366"/>
      <point x="520" y="280"/>
      <point x="520" y="226" type="qcurve"/>
      <point x="520" y="174"/>
      <point x="486" y="88"/>
      <point x="424" y="27"/>
      <point x="337" y="-7"/>
      <point x="285" y="-7" type="qcurve"/>
      <point x="231" y="-7"/>
      <point x="144" y="25"/>
      <point x="83" y="86"/>
      <point x="50" y="172"/>
    </contour>
    <contour>
      <point x="118" y="227" type="qcurve"/>
      <point x="118" y="137"/>
      <point x="205" y="51"/>
      <point x="285" y="51" type="qcurve"/>
      <point x="360" y="51"/>
      <point x="452" y="142"/>
      <point x="452" y="227" type="qcurve"/>
      <point x="452" y="315"/>
      <point x="365" y="401"/>
      <point x="285" y="401" type="qcurve"/>
      <point x="210" y="401"/>
      <point x="118" y="312"/>
    </contour>
    <contour>
      <point x="288" y="318" type="line"/>
      <point x="285" y="307"/>
      <point x="283" y="293" type="qcurve"/>
      <point x="281" y="281"/>
      <point x="279" y="247"/>
      <point x="279" y="227" type="qcurve"/>
      <point x="279" y="208"/>
      <point x="281" y="175"/>
      <point x="283" y="162" type="qcurve"/>
      <point x="285" y="147"/>
      <point x="288" y="135" type="qcurve"/>
      <point x="310" y="135" type="line"/>
      <point x="328" y="135"/>
      <point x="346" y="157"/>
      <point x="346" y="185" type="qcurve"/>
      <point x="382" y="185" type="line"/>
      <point x="382" y="144"/>
      <point x="341" y="101"/>
      <point x="290" y="101" type="qcurve"/>
      <point x="227" y="101"/>
      <point x="174" y="157"/>
      <point x="174" y="227" type="qcurve"/>
      <point x="174" y="262"/>
      <point x="185" y="310"/>
      <point x="213" y="340"/>
      <point x="261" y="353"/>
      <point x="297" y="353" type="qcurve"/>
      <point x="310" y="353"/>
      <point x="338" y="351"/>
      <point x="349" y="349" type="qcurve"/>
      <point x="362" y="347"/>
      <point x="374" y="345" type="qcurve"/>
      <point x="374" y="256" type="line"/>
      <point x="353" y="256"/>
      <point x="326" y="271"/>
      <point x="310" y="292"/>
      <point x="303" y="314"/>
      <point x="302" y="322" type="qcurve"/>
    </contour>
  </outline>
</glyph>
<glyph name="ordfeminine" format="1">
  <advance width="430"/>
  <unicode hex="00AA"/>
  <outline>
    <contour>
      <point x="347" y="392" type="line"/>
      <point x="356" y="392" type="line"/>
      <point x="362" y="392"/>
      <point x="367" y="393" type="qcurve"/>
      <point x="373" y="393"/>
      <point x="380" y="394" type="qcurve"/>
      <point x="380" y="356" type="line"/>
      <point x="368" y="354"/>
      <point x="357" y="352" type="qcurve"/>
      <point x="347" y="350"/>
      <point x="325" y="349"/>
      <point x="317" y="349" type="qcurve"/>
      <point x="290" y="349"/>
      <point x="251" y="366"/>
      <point x="239" y="378" type="qcurve"/>
      <point x="225" y="363"/>
      <point x="188" y="346"/>
      <point x="164" y="346" type="qcurve"/>
      <point x="123" y="346"/>
      <point x="80" y="384"/>
      <point x="80" y="416" type="qcurve"/>
      <point x="80" y="430"/>
      <point x="81" y="453"/>
      <point x="82" y="463" type="qcurve"/>
      <point x="83" y="474"/>
      <point x="84" y="484" type="qcurve"/>
      <point x="221" y="517" type="line"/>
      <point x="220" y="534"/>
      <point x="220" y="560"/>
      <point x="219" y="569" type="qcurve"/>
      <point x="218" y="580"/>
      <point x="218" y="588" type="qcurve"/>
      <point x="217" y="588"/>
      <point x="213" y="589" type="qcurve"/>
      <point x="205" y="591"/>
      <point x="193" y="591" type="qcurve"/>
      <point x="186" y="591" type="line"/>
      <point x="183" y="591"/>
      <point x="180" y="590" type="qcurve"/>
      <point x="178" y="579"/>
      <point x="167" y="553"/>
      <point x="146" y="529"/>
      <point x="113" y="513"/>
      <point x="89" y="513" type="qcurve"/>
      <point x="89" y="622" type="line"/>
      <point x="113" y="624"/>
      <point x="138" y="626" type="qcurve"/>
      <point x="159" y="628"/>
      <point x="206" y="630"/>
      <point x="226" y="630" type="qcurve"/>
      <point x="267" y="630"/>
      <point x="315" y="616"/>
      <point x="340" y="583"/>
      <point x="347" y="528"/>
      <point x="347" y="487" type="qcurve"/>
    </contour>
    <contour>
      <point x="199" y="398" type="qcurve"/>
      <point x="209" y="401"/>
      <point x="221" y="416" type="qcurve"/>
      <point x="221" y="476" type="line"/>
      <point x="198" y="470" type="line"/>
      <point x="197" y="460"/>
      <point x="196" y="441"/>
      <point x="196" y="432" type="qcurve"/>
      <point x="196" y="409"/>
      <point x="197" y="404" type="qcurve"/>
      <point x="198" y="400"/>
    </contour>
  </outline>
</glyph>
<glyph name="guillemotleft" format="1">
  <advance width="518"/>
  <unicode hex="00AB"/>
  <outline>
    <contour>
      <point x="84" y="196" type="line"/>
      <point x="74" y="204"/>
      <point x="60" y="226"/>
      <point x="60" y="243" type="qcurve"/>
      <point x="60" y="248" type="line"/>
      <point x="61" y="261"/>
      <point x="79" y="284"/>
      <point x="95" y="298" type="qcurve"/>
      <point x="259" y="435" type="line"/>
      <point x="288" y="408" type="line"/>
      <point x="197" y="243" type="line"/>
      <point x="288" y="78" type="line"/>
      <point x="259" y="52" type="line"/>
    </contour>
    <contour>
      <point x="264" y="196" type="line"/>
      <point x="254" y="204"/>
      <point x="240" y="226"/>
      <point x="240" y="243" type="qcurve"/>
      <point x="240" y="248" type="line"/>
      <point x="241" y="261"/>
      <point x="259" y="284"/>
      <point x="275" y="298" type="qcurve"/>
      <point x="439" y="435" type="line"/>
      <point x="468" y="408" type="line"/>
      <point x="377" y="243" type="line"/>
      <point x="468" y="78" type="line"/>
      <point x="439" y="52" type="line"/>
    </contour>
  </outline>
</glyph>
<glyph name="logicalnot" format="1">
  <advance width="440"/>
  <unicode hex="00AC"/>
  <outline>
    <contour>
      <point x="338" y="264" type="line"/>
      <point x="40" y="264" type="line"/>
      <point x="40" y="322" type="line"/>
      <point x="400" y="322" type="line"/>
      <point x="400" y="147" type="line"/>
      <point x="338" y="147" type="line"/>
    </contour>
  </outline>
</glyph>
<glyph name="registered" format="1">
  <advance width="570"/>
  <unicode hex="00AE"/>
  <outline>
    <contour>
      <point x="50" y="397" type="qcurve"/>
      <point x="50" y="449"/>
      <point x="84" y="534"/>
      <point x="146" y="596"/>
      <point x="233" y="630"/>
      <point x="285" y="630" type="qcurve"/>
      <point x="339" y="630"/>
      <point x="426" y="598"/>
      <point x="487" y="537"/>
      <point x="520" y="451"/>
      <point x="520" y="397" type="qcurve"/>
      <point x="520" y="345"/>
      <point x="486" y="259"/>
      <point x="424" y="198"/>
      <point x="337" y="164"/>
      <point x="285" y="164" type="qcurve"/>
      <point x="231" y="164"/>
      <point x="144" y="196"/>
      <point x="83" y="257"/>
      <point x="50" y="343"/>
    </contour>
    <contour>
      <point x="118" y="398" type="qcurve"/>
      <point x="118" y="308"/>
      <point x="205" y="222"/>
      <point x="285" y="222" type="qcurve"/>
      <point x="360" y="222"/>
      <point x="452" y="313"/>
      <point x="452" y="398" type="qcurve"/>
      <point x="452" y="486"/>
      <point x="365" y="572"/>
      <point x="285" y="572" type="qcurve"/>
      <point x="210" y="572"/>
      <point x="118" y="483"/>
    </contour>
    <contour>
      <point x="194" y="315" type="line"/>
      <point x="194" y="491" type="line"/>
      <point x="176" y="491" type="line"/>
      <point x="176" y="517" type="line"/>
      <point x="268" y="517" type="line"/>
      <point x="274" y="517"/>
      <point x="284" y="518"/>
      <point x="286" y="518" type="qcurve"/>
      <point x="334" y="518"/>
      <point x="390" y="487"/>
      <point x="390" y="455" type="qcurve"/>
      <point x="390" y="435"/>
      <point x="370" y="408"/>
      <point x="355" y="400" type="qcurve"/>
      <point x="415" y="310" type="line"/>
      <point x="409" y="289" type="line"/>
      <point x="330" y="289" type="line"/>
      <point x="281" y="384" type="line"/>
      <point x="271" y="384" type="line"/>
      <point x="271" y="315" type="line"/>
      <point x="297" y="315" type="line"/>
      <point x="297" y="289" type="line"/>
      <point x="176" y="289" type="line"/>
      <point x="176" y="315" type="line"/>
    </contour>
    <contour>
      <point x="303" y="454" type="qcurve"/>
      <point x="303" y="462"/>
      <point x="301" y="475"/>
      <point x="300" y="480" type="qcurve"/>
      <point x="299" y="485"/>
      <point x="298" y="489" type="qcurve"/>
      <point x="296" y="489"/>
      <point x="294" y="490" type="qcurve"/>
      <point x="292" y="490"/>
      <point x="288" y="491"/>
      <point x="286" y="491" type="qcurve"/>
      <point x="283" y="491"/>
      <point x="278" y="490"/>
      <point x="276" y="490" type="qcurve"/>
      <point x="271" y="490" type="line"/>
      <point x="271" y="415" type="line"/>
      <point x="300" y="415" type="line"/>
      <point x="300" y="421"/>
      <point x="301" y="427" type="qcurve"/>
      <point x="302" y="432"/>
      <point x="303" y="446"/>
    </contour>
  </outline>
</glyph>
<glyph name="macron" format="1">
  <advance width="520"/>
  <unicode hex="00AF"/>
  <outline>
    <contour>
      <point x="263" y="449" type="move" name="_top"/>
    </contour>
    <contour>
      <point x="431" y="624" type="line"/>
      <point x="431" y="566" type="line"/>
      <point x="89" y="566" type="line"/>
      <point x="89" y="624" type="line"/>
    </contour>
  </outline>
</glyph>
<glyph name="degree" format="1">
  <advance width="378"/>
  <unicode hex="00B0"/>
  <outline>
    <contour>
      <point x="50" y="448" type="qcurve"/>
      <point x="50" y="509"/>
      <point x="127" y="586"/>
      <point x="189" y="586" type="qcurve"/>
      <point x="254" y="586"/>
      <point x="328" y="513"/>
      <point x="328" y="448" type="qcurve"/>
      <point x="328" y="387"/>
      <point x="251" y="310"/>
      <point x="189" y="310" type="qcurve"/>
      <point x="124" y="310"/>
      <point x="50" y="384"/>
    </contour>
    <contour>
      <point x="118" y="449" type="qcurve"/>
      <point x="118" y="408"/>
      <point x="155" y="368"/>
      <point x="189" y="368" type="qcurve"/>
      <point x="221" y="368"/>
      <point x="260" y="411"/>
      <point x="260" y="449" type="qcurve"/>
      <point x="260" y="528"/>
      <point x="189" y="528" type="qcurve"/>
      <point x="157" y="528"/>
      <point x="118" y="487"/>
    </contour>
  </outline>
</glyph>
<glyph name="plusminus" format="1">
  <advance width="472"/>
  <unicode hex="00B1"/>
  <outline>
    <contour>
      <point x="205" y="238" type="line"/>
      <point x="50" y="238" type="line"/>
      <point x="50" y="296" type="line"/>
      <point x="205" y="296" type="line"/>
      <point x="205" y="449" type="line"/>
      <point x="267" y="449" type="line"/>
      <point x="267" y="296" type="line"/>
      <point x="422" y="296" type="line"/>
      <point x="422" y="238" type="line"/>
      <point x="267" y="238" type="line"/>
      <point x="267" y="92" type="line"/>
      <point x="205" y="92" type="line"/>
    </contour>
    <contour>
      <point x="422" y="58" type="line"/>
      <point x="422" y="0" type="line"/>
      <point x="50" y="0" type="line"/>
      <point x="50" y="58" type="line"/>
    </contour>
  </outline>
</glyph>
<glyph name="uni00B2" format="1">
  <advance width="336"/>
  <unicode hex="00B2"/>
  <outline>
    <contour>
      <point x="179" y="630" type="qcurve"/>
      <point x="231" y="630"/>
      <point x="280" y="594"/>
      <point x="280" y="567" type="qcurve"/>
      <point x="280" y="541"/>
      <point x="258" y="512"/>
      <point x="224" y="494"/>
      <point x="183" y="481"/>
      <point x="163" y="473" type="qcurve"/>
      <point x="154" y="469"/>
      <point x="133" y="456"/>
      <point x="128" y="446" type="qcurve"/>
      <point x="241" y="446" type="line"/>
      <point x="241" y="478" type="line"/>
      <point x="281" y="478" type="line"/>
      <point x="282" y="464"/>
      <point x="283" y="452" type="qcurve"/>
      <point x="284" y="441"/>
      <point x="286" y="417"/>
      <point x="286" y="407" type="qcurve"/>
      <point x="286" y="378"/>
      <point x="252" y="357"/>
      <point x="220" y="357" type="qcurve"/>
      <point x="50" y="357" type="line"/>
      <point x="52" y="395"/>
      <point x="71" y="457"/>
      <point x="99" y="477" type="qcurve"/>
      <point x="117" y="490"/>
      <point x="139" y="498"/>
      <point x="151" y="505"/>
      <point x="155" y="522"/>
      <point x="155" y="543" type="qcurve"/>
      <point x="155" y="549"/>
      <point x="153" y="565"/>
      <point x="152" y="572" type="qcurve"/>
      <point x="151" y="580"/>
      <point x="150" y="589" type="qcurve"/>
      <point x="133" y="589"/>
      <point x="99" y="581"/>
      <point x="99" y="567" type="qcurve"/>
      <point x="99" y="551" type="line"/>
      <point x="51" y="551" type="line"/>
      <point x="51" y="569" type="line"/>
      <point x="51" y="587"/>
      <point x="79" y="611"/>
      <point x="119" y="624"/>
      <point x="163" y="630"/>
    </contour>
  </outline>
</glyph>
<glyph name="uni00B3" format="1">
  <advance width="339"/>
  <unicode hex="00B3"/>
  <outline>
    <contour>
      <point x="160" y="510" type="line"/>
      <point x="164" y="520"/>
      <point x="164" y="543" type="qcurve"/>
      <point x="164" y="549"/>
      <point x="162" y="565"/>
      <point x="161" y="572" type="qcurve"/>
      <point x="160" y="580"/>
      <point x="159" y="589" type="qcurve"/>
      <point x="142" y="589"/>
      <point x="108" y="581"/>
      <point x="108" y="567" type="qcurve"/>
      <point x="108" y="551" type="line"/>
      <point x="60" y="551" type="line"/>
      <point x="60" y="569" type="line"/>
      <point x="60" y="587"/>
      <point x="83" y="611"/>
      <point x="119" y="624"/>
      <point x="160" y="630"/>
      <point x="178" y="630" type="qcurve"/>
      <point x="227" y="630"/>
      <point x="284" y="591"/>
      <point x="284" y="558" type="qcurve"/>
      <point x="284" y="530"/>
      <point x="263" y="497"/>
      <point x="245" y="488" type="qcurve"/>
      <point x="265" y="478"/>
      <point x="289" y="443"/>
      <point x="289" y="416" type="qcurve"/>
      <point x="289" y="386"/>
      <point x="230" y="345"/>
      <point x="173" y="345" type="qcurve"/>
      <point x="153" y="345"/>
      <point x="111" y="351"/>
      <point x="77" y="364"/>
      <point x="55" y="388"/>
      <point x="55" y="406" type="qcurve"/>
      <point x="55" y="424" type="line"/>
      <point x="103" y="424" type="line"/>
      <point x="103" y="408" type="line"/>
      <point x="103" y="394"/>
      <point x="137" y="386"/>
      <point x="154" y="386" type="qcurve"/>
      <point x="155" y="395"/>
      <point x="156" y="403" type="qcurve"/>
      <point x="157" y="410"/>
      <point x="159" y="425"/>
      <point x="159" y="432" type="qcurve"/>
      <point x="159" y="440"/>
      <point x="157" y="454"/>
      <point x="156" y="459" type="qcurve"/>
      <point x="154" y="469" type="line"/>
      <point x="108" y="469" type="line"/>
      <point x="108" y="510" type="line"/>
    </contour>
  </outline>
</glyph>
<glyph name="acute" format="1">
  <advance width="520"/>
  <unicode hex="00B4"/>
  <outline>
    <contour>
      <point x="164" y="449" type="move" name="_top"/>
    </contour>
    <contour>
      <point x="284" y="689" type="line"/>
      <point x="301" y="703"/>
      <point x="321" y="703" type="qcurve"/>
      <point x="332" y="703"/>
      <point x="354" y="692"/>
      <point x="371" y="673"/>
      <point x="382" y="650"/>
      <point x="382" y="638" type="qcurve"/>
      <point x="382" y="613"/>
      <point x="361" y="595" type="qcurve"/>
      <point x="164" y="486" type="line"/>
      <point x="139" y="514" type="line"/>
    </contour>
  </outline>
</glyph>
<glyph name="uni00B5" format="1">
  <advance width="596"/>
  <unicode hex="00B5"/>
  <outline>
    <contour>
      <point x="31" y="431" type="line"/>
      <point x="90" y="431" type="line"/>
      <point x="241" y="460" type="line"/>
      <point x="241" y="48" type="line"/>
      <point x="267" y="48"/>
      <point x="310" y="67"/>
      <point x="341" y="92"/>
      <point x="362" y="116"/>
      <point x="365" y="121" type="qcurve"/>
      <point x="365" y="449" type="line"/>
      <point x="523" y="449" type="line"/>
      <point x="523" y="50" type="line"/>
      <point x="536" y="50" type="line"/>
      <point x="545" y="50"/>
      <point x="554" y="51" type="qcurve"/>
      <point x="576" y="53" type="line"/>
      <point x="576" y="5" type="line"/>
      <point x="558" y="2"/>
      <point x="541" y="0" type="qcurve"/>
      <point x="527" y="-2"/>
      <point x="495" y="-4"/>
      <point x="485" y="-4" type="qcurve"/>
      <point x="459" y="-4"/>
      <point x="421" y="7"/>
      <point x="394" y="25"/>
      <point x="376" y="48"/>
      <point x="372" y="59" type="qcurve"/>
      <point x="370" y="56"/>
      <point x="355" y="37"/>
      <point x="324" y="16"/>
      <point x="275" y="-3"/>
      <point x="241" y="-6" type="qcurve"/>
      <point x="241" y="-165" type="line"/>
      <point x="25" y="-165" type="line"/>
      <point x="25" y="-114" type="line"/>
      <point x="84" y="-114" type="line"/>
      <point x="84" y="381" type="line"/>
      <point x="31" y="381" type="line"/>
    </contour>
  </outline>
</glyph>
<glyph name="paragraph" format="1">
  <advance width="513"/>
  <unicode hex="00B6"/>
  <outline>
    <contour>
      <point x="337" y="557" type="line"/>
      <point x="259" y="557" type="line"/>
      <point x="259" y="-75" type="line"/>
      <point x="197" y="-75" type="line"/>
      <point x="197" y="250" type="line"/>
      <point x="106" y="261"/>
      <point x="20" y="346"/>
      <point x="20" y="431" type="qcurve"/>
      <point x="20" y="533"/>
      <point x="144" y="617"/>
      <point x="273" y="617" type="qcurve"/>
      <point x="295" y="617"/>
      <point x="330" y="615"/>
      <point x="353" y="615" type="qcurve"/>
      <point x="488" y="615" type="line"/>
      <point x="488" y="557" type="line"/>
      <point x="399" y="557" type="line"/>
      <point x="399" y="-75" type="line"/>
      <point x="337" y="-75" type="line"/>
    </contour>
  </outline>
</glyph>
<glyph name="periodcentered" format="1">
  <advance width="326"/>
  <unicode hex="00B7"/>
  <outline>
    <contour>
      <point x="80" y="294" type="qcurve"/>
      <point x="80" y="339"/>
      <point x="118" y="381"/>
      <point x="163" y="381" type="qcurve"/>
      <point x="211" y="381"/>
      <point x="246" y="339"/>
      <point x="246" y="294" type="qcurve"/>
      <point x="246" y="249"/>
      <point x="208" y="208"/>
      <point x="163" y="208" type="qcurve"/>
      <point x="118" y="208"/>
      <point x="80" y="249"/>
    </contour>
  </outline>
</glyph>
<glyph name="cedilla" format="1">
  <advance width="520"/>
  <unicode hex="00B8"/>
  <outline>
    <contour>
      <point x="247" y="0" type="move" name="_bottom"/>
    </contour>
    <contour>
      <point x="278" y="10" type="line"/>
      <point x="278" y="-34" type="line"/>
      <point x="285" y="-34" type="line"/>
      <point x="314" y="-34"/>
      <point x="350" y="-67"/>
      <point x="350" y="-94" type="qcurve"/>
      <point x="350" y="-126"/>
      <point x="308" y="-166"/>
      <point x="268" y="-166" type="qcurve"/>
      <point x="209" y="-166" type="line"/>
      <point x="209" y="-116" type="line"/>
      <point x="268" y="-116" type="line"/>
      <point x="279" y="-116"/>
      <point x="294" y="-108"/>
      <point x="294" y="-95" type="qcurve"/>
      <point x="294" y="-84"/>
      <point x="278" y="-74"/>
      <point x="266" y="-74" type="qcurve"/>
      <point x="216" y="-74" type="line"/>
      <point x="216" y="10" type="line"/>
    </contour>
  </outline>
</glyph>
<glyph name="uni00B9" format="1">
  <advance width="353"/>
  <unicode hex="00B9"/>
  <outline>
    <contour>
      <point x="127" y="599" type="line"/>
      <point x="230" y="630" type="line"/>
      <point x="247" y="630" type="line"/>
      <point x="247" y="404" type="line"/>
      <point x="308" y="404" type="line"/>
      <point x="308" y="357" type="line"/>
      <point x="60" y="357" type="line"/>
      <point x="60" y="404" type="line"/>
      <point x="121" y="404" type="line"/>
      <point x="121" y="552" type="line"/>
      <point x="60" y="552" type="line"/>
      <point x="60" y="599" type="line"/>
    </contour>
  </outline>
</glyph>
<glyph name="ordmasculine" format="1">
  <advance width="451"/>
  <unicode hex="00BA"/>
  <outline>
    <contour>
      <point x="191" y="487" type="qcurve"/>
      <point x="191" y="465"/>
      <point x="193" y="428"/>
      <point x="195" y="414" type="qcurve"/>
      <point x="197" y="398"/>
      <point x="200" y="385" type="qcurve"/>
      <point x="203" y="384"/>
      <point x="207" y="383" type="qcurve"/>
      <point x="215" y="381"/>
      <point x="225" y="381" type="qcurve"/>
      <point x="231" y="381"/>
      <point x="240" y="382"/>
      <point x="244" y="383" type="qcurve"/>
      <point x="248" y="384"/>
      <point x="251" y="385" type="qcurve"/>
      <point x="253" y="398"/>
      <point x="255" y="414" type="qcurve"/>
      <point x="257" y="428"/>
      <point x="259" y="465"/>
      <point x="259" y="487" type="qcurve"/>
      <point x="259" y="509"/>
      <point x="257" y="547"/>
      <point x="255" y="561" type="qcurve"/>
      <point x="253" y="577"/>
      <point x="251" y="590" type="qcurve"/>
      <point x="248" y="591"/>
      <point x="244" y="592" type="qcurve"/>
      <point x="234" y="594"/>
      <point x="225" y="594" type="qcurve"/>
      <point x="215" y="594"/>
      <point x="207" y="592" type="qcurve"/>
      <point x="203" y="591"/>
      <point x="200" y="590" type="qcurve"/>
      <point x="197" y="577"/>
      <point x="195" y="561" type="qcurve"/>
      <point x="193" y="547"/>
      <point x="191" y="509"/>
    </contour>
    <contour>
      <point x="60" y="487" type="qcurve"/>
      <point x="60" y="526"/>
      <point x="77" y="581"/>
      <point x="116" y="615"/>
      <point x="179" y="630"/>
      <point x="225" y="630" type="qcurve"/>
      <point x="271" y="630"/>
      <point x="335" y="615"/>
      <point x="374" y="581"/>
      <point x="391" y="526"/>
      <point x="391" y="487" type="qcurve"/>
      <point x="391" y="448"/>
      <point x="374" y="394"/>
      <point x="335" y="360"/>
      <point x="271" y="345"/>
      <point x="225" y="345" type="qcurve"/>
      <point x="179" y="345"/>
      <point x="116" y="360"/>
      <point x="77" y="394"/>
      <point x="60" y="448"/>
    </contour>
  </outline>
</glyph>
<glyph name="onequarter" format="1">
  <advance width="776"/>
  <unicode hex="00BC"/>
  <outline>
    <contour>
      <point x="278" y="0" type="line"/>
      <point x="212" y="0" type="line"/>
      <point x="492" y="577" type="line"/>
      <point x="558" y="577" type="line"/>
    </contour>
    <contour>
      <point x="147" y="555" type="line"/>
      <point x="250" y="586" type="line"/>
      <point x="267" y="586" type="line"/>
      <point x="267" y="360" type="line"/>
      <point x="328" y="360" type="line"/>
      <point x="328" y="313" type="line"/>
      <point x="80" y="313" type="line"/>
      <point x="80" y="360" type="line"/>
      <point x="141" y="360" type="line"/>
      <point x="141" y="508" type="line"/>
      <point x="80" y="508" type="line"/>
      <point x="80" y="555" type="line"/>
    </contour>
    <contour>
      <point x="405" y="97" type="line"/>
      <point x="519" y="261" type="line"/>
      <point x="645" y="273" type="line"/>
      <point x="645" y="125" type="line"/>
      <point x="706" y="125" type="line"/>
      <point x="706" y="80" type="line"/>
      <point x="645" y="80" type="line"/>
      <point x="645" y="47" type="line"/>
      <point x="706" y="47" type="line"/>
      <point x="706" y="0" type="line"/>
      <point x="458" y="0" type="line"/>
      <point x="458" y="47" type="line"/>
      <point x="519" y="47" type="line"/>
      <point x="519" y="80" type="line"/>
      <point x="405" y="80" type="line"/>
    </contour>
    <contour>
      <point x="520" y="125" type="line"/>
      <point x="532" y="209" type="line"/>
      <point x="480" y="125" type="line"/>
    </contour>
  </outline>
</glyph>
<glyph name="onehalf" format="1">
  <advance width="761"/>
  <unicode hex="00BD"/>
  <outline>
    <contour>
      <point x="278" y="0" type="line"/>
      <point x="212" y="0" type="line"/>
      <point x="492" y="577" type="line"/>
      <point x="558" y="577" type="line"/>
    </contour>
    <contour>
      <point x="147" y="555" type="line"/>
      <point x="250" y="586" type="line"/>
      <point x="267" y="586" type="line"/>
      <point x="267" y="360" type="line"/>
      <point x="328" y="360" type="line"/>
      <point x="328" y="313" type="line"/>
      <point x="80" y="313" type="line"/>
      <point x="80" y="360" type="line"/>
      <point x="141" y="360" type="line"/>
      <point x="141" y="508" type="line"/>
      <point x="80" y="508" type="line"/>
      <point x="80" y="555" type="line"/>
    </contour>
    <contour>
      <point x="579" y="273" type="qcurve"/>
      <point x="631" y="273"/>
      <point x="680" y="237"/>
      <point x="680" y="210" type="qcurve"/>
      <point x="680" y="184"/>
      <point x="658" y="155"/>
      <point x="624" y="137"/>
      <point x="583" y="124"/>
      <point x="563" y="116" type="qcurve"/>
      <point x="554" y="112"/>
      <point x="533" y="99"/>
      <point x="528" y="89" type="qcurve"/>
      <point x="641" y="89" type="line"/>
      <point x="641" y="121" type="line"/>
      <point x="681" y="121" type="line"/>
      <point x="682" y="107"/>
      <point x="683" y="95" type="qcurve"/>
      <point x="684" y="84"/>
      <point x="686" y="60"/>
      <point x="686" y="50" type="qcurve"/>
      <point x="686" y="21"/>
      <point x="652" y="0"/>
      <point x="620" y="0" type="qcurve"/>
      <point x="450" y="0" type="line"/>
      <point x="452" y="38"/>
      <point x="471" y="100"/>
      <point x="499" y="120" type="qcurve"/>
      <point x="517" y="133"/>
      <point x="539" y="141"/>
      <point x="551" y="148"/>
      <point x="555" y="165"/>
      <point x="555" y="186" type="qcurve"/>
      <point x="555" y="192"/>
      <point x="553" y="208"/>
      <point x="552" y="215" type="qcurve"/>
      <point x="551" y="223"/>
      <point x="550" y="232" type="qcurve"/>
      <point x="533" y="232"/>
      <point x="499" y="224"/>
      <point x="499" y="210" type="qcurve"/>
      <point x="499" y="194" type="line"/>
      <point x="451" y="194" type="line"/>
      <point x="451" y="212" type="line"/>
      <point x="451" y="230"/>
      <point x="479" y="254"/>
      <point x="519" y="267"/>
      <point x="563" y="273"/>
    </contour>
  </outline>
</glyph>
<glyph name="threequarters" format="1">
  <advance width="780"/>
  <unicode hex="00BE"/>
  <outline>
    <contour>
      <point x="409" y="97" type="line"/>
      <point x="523" y="261" type="line"/>
      <point x="649" y="273" type="line"/>
      <point x="649" y="125" type="line"/>
      <point x="710" y="125" type="line"/>
      <point x="710" y="80" type="line"/>
      <point x="649" y="80" type="line"/>
      <point x="649" y="47" type="line"/>
      <point x="710" y="47" type="line"/>
      <point x="710" y="0" type="line"/>
      <point x="462" y="0" type="line"/>
      <point x="462" y="47" type="line"/>
      <point x="523" y="47" type="line"/>
      <point x="523" y="80" type="line"/>
      <point x="409" y="80" type="line"/>
    </contour>
    <contour>
      <point x="165" y="466" type="line"/>
      <point x="169" y="476"/>
      <point x="169" y="499" type="qcurve"/>
      <point x="169" y="505"/>
      <point x="167" y="521"/>
      <point x="166" y="528" type="qcurve"/>
      <point x="165" y="536"/>
      <point x="164" y="545" type="qcurve"/>
      <point x="147" y="545"/>
      <point x="113" y="537"/>
      <point x="113" y="523" type="qcurve"/>
      <point x="113" y="507" type="line"/>
      <point x="65" y="507" type="line"/>
      <point x="65" y="525" type="line"/>
      <point x="65" y="543"/>
      <point x="88" y="567"/>
      <point x="124" y="580"/>
      <point x="165" y="586"/>
      <point x="183" y="586" type="qcurve"/>
      <point x="232" y="586"/>
      <point x="289" y="547"/>
      <point x="289" y="514" type="qcurve"/>
      <point x="289" y="486"/>
      <point x="268" y="453"/>
      <point x="250" y="444" type="qcurve"/>
      <point x="270" y="434"/>
      <point x="294" y="399"/>
      <point x="294" y="372" type="qcurve"/>
      <point x="294" y="342"/>
      <point x="235" y="301"/>
      <point x="178" y="301" type="qcurve"/>
      <point x="158" y="301"/>
      <point x="116" y="307"/>
      <point x="82" y="320"/>
      <point x="60" y="344"/>
      <point x="60" y="362" type="qcurve"/>
      <point x="60" y="380" type="line"/>
      <point x="108" y="380" type="line"/>
      <point x="108" y="364" type="line"/>
      <point x="108" y="350"/>
      <point x="142" y="342"/>
      <point x="159" y="342" type="qcurve"/>
      <point x="160" y="351"/>
      <point x="161" y="359" type="qcurve"/>
      <point x="162" y="366"/>
      <point x="164" y="381"/>
      <point x="164" y="388" type="qcurve"/>
      <point x="164" y="396"/>
      <point x="162" y="410"/>
      <point x="161" y="415" type="qcurve"/>
      <point x="159" y="425" type="line"/>
      <point x="113" y="425" type="line"/>
      <point x="113" y="466" type="line"/>
    </contour>
    <contour>
      <point x="263" y="0" type="line"/>
      <point x="197" y="0" type="line"/>
      <point x="477" y="577" type="line"/>
      <point x="543" y="577" type="line"/>
    </contour>
    <contour>
      <point x="524" y="125" type="line"/>
      <point x="536" y="209" type="line"/>
      <point x="484" y="125" type="line"/>
    </contour>
  </outline>
</glyph>
<glyph name="questiondown" format="1">
  <advance width="394"/>
  <unicode hex="00BF"/>
  <outline>
    <contour>
      <point x="289" y="371" type="qcurve"/>
      <point x="289" y="326"/>
      <point x="251" y="284"/>
      <point x="206" y="284" type="qcurve"/>
      <point x="158" y="284"/>
      <point x="123" y="326"/>
      <point x="123" y="371" type="qcurve"/>
      <point x="123" y="416"/>
      <point x="161" y="457"/>
      <point x="206" y="457" type="qcurve"/>
      <point x="251" y="457"/>
      <point x="289" y="416"/>
    </contour>
    <contour>
      <point x="235" y="235" type="line"/>
      <point x="235" y="139" type="line"/>
      <point x="224" y="127"/>
      <point x="215" y="109" type="qcurve"/>
      <point x="207" y="93"/>
      <point x="195" y="46"/>
      <point x="195" y="14" type="qcurve"/>
      <point x="195" y="-12"/>
      <point x="198" y="-53"/>
      <point x="200" y="-69" type="qcurve"/>
      <point x="202" y="-87"/>
      <point x="205" y="-102" type="qcurve"/>
      <point x="253" y="-102"/>
      <point x="314" y="-78"/>
      <point x="314" y="-45" type="qcurve"/>
      <point x="314" y="-19" type="line"/>
      <point x="374" y="-19" type="line"/>
      <point x="374" y="-46" type="line"/>
      <point x="374" y="-83"/>
      <point x="336" y="-126"/>
      <point x="281" y="-149"/>
      <point x="217" y="-155"/>
      <point x="190" y="-155" type="qcurve"/>
      <point x="142" y="-155"/>
      <point x="76" y="-130"/>
      <point x="37" y="-86"/>
      <point x="20" y="-26"/>
      <point x="20" y="8" type="qcurve"/>
      <point x="20" y="42"/>
      <point x="40" y="102"/>
      <point x="81" y="147"/>
      <point x="141" y="173"/>
      <point x="182" y="173" type="qcurve"/>
      <point x="182" y="235" type="line"/>
    </contour>
  </outline>
</glyph>
<glyph name="Agrave" format="1">
  <advance width="628"/>
  <unicode hex="00C0"/>
  <outline>
    <contour>
      <point x="77" y="58" type="line"/>
      <point x="265" y="598" type="line"/>
      <point x="393" y="621" type="line"/>
      <point x="618" y="21" type="line"/>
      <point x="618" y="0" type="line"/>
      <point x="436" y="0" type="line"/>
      <point x="365" y="197" type="line"/>
      <point x="187" y="197" type="line"/>
      <point x="139" y="58" type="line"/>
      <point x="247" y="58" type="line"/>
      <point x="247" y="0" type="line"/>
      <point x="10" y="0" type="line"/>
      <point x="10" y="58" type="line"/>
    </contour>
    <contour>
      <point x="207" y="255" type="line"/>
      <point x="344" y="255" type="line"/>
      <point x="275" y="448" type="line"/>
    </contour>
    <contour>
      <point x="353" y="682" type="line"/>
      <point x="331" y="653" type="line"/>
      <point x="122" y="739" type="line"/>
      <point x="97" y="759"/>
      <point x="97" y="789" type="qcurve"/>
      <point x="97" y="804"/>
      <point x="109" y="828"/>
      <point x="127" y="844"/>
      <point x="148" y="853"/>
      <point x="156" y="853" type="qcurve"/>
      <point x="170" y="853"/>
      <point x="190" y="842" type="qcurve"/>
    </contour>
  </outline>
</glyph>
<glyph name="Aacute" format="1">
  <advance width="628"/>
  <unicode hex="00C1"/>
  <outline>
    <contour>
      <point x="77" y="58" type="line"/>
      <point x="265" y="598" type="line"/>
      <point x="393" y="621" type="line"/>
      <point x="618" y="21" type="line"/>
      <point x="618" y="0" type="line"/>
      <point x="436" y="0" type="line"/>
      <point x="365" y="197" type="line"/>
      <point x="187" y="197" type="line"/>
      <point x="139" y="58" type="line"/>
      <point x="247" y="58" type="line"/>
      <point x="247" y="0" type="line"/>
      <point x="10" y="0" type="line"/>
      <point x="10" y="58" type="line"/>
    </contour>
    <contour>
      <point x="207" y="255" type="line"/>
      <point x="344" y="255" type="line"/>
      <point x="275" y="448" type="line"/>
    </contour>
    <contour>
      <point x="472" y="842" type="line"/>
      <point x="492" y="853"/>
      <point x="506" y="853" type="qcurve"/>
      <point x="514" y="853"/>
      <point x="534" y="844"/>
      <point x="552" y="828"/>
      <point x="565" y="804"/>
      <point x="565" y="789" type="qcurve"/>
      <point x="565" y="759"/>
      <point x="540" y="739" type="qcurve"/>
      <point x="331" y="653" type="line"/>
      <point x="309" y="682" type="line"/>
    </contour>
  </outline>
</glyph>
<glyph name="Acircumflex" format="1">
  <advance width="628"/>
  <unicode hex="00C2"/>
  <outline>
    <contour>
      <point x="77" y="58" type="line"/>
      <point x="265" y="598" type="line"/>
      <point x="393" y="621" type="line"/>
      <point x="618" y="21" type="line"/>
      <point x="618" y="0" type="line"/>
      <point x="436" y="0" type="line"/>
      <point x="365" y="197" type="line"/>
      <point x="187" y="197" type="line"/>
      <point x="139" y="58" type="line"/>
      <point x="247" y="58" type="line"/>
      <point x="247" y="0" type="line"/>
      <point x="10" y="0" type="line"/>
      <point x="10" y="58" type="line"/>
    </contour>
    <contour>
      <point x="297" y="842" type="line"/>
      <point x="312" y="850"/>
      <point x="324" y="852" type="qcurve"/>
      <point x="327" y="853"/>
      <point x="330" y="853" type="qcurve"/>
      <point x="333" y="853" type="line"/>
      <point x="335" y="852"/>
      <point x="336" y="852" type="qcurve"/>
      <point x="341" y="851" type="line"/>
      <point x="342" y="851"/>
      <point x="343" y="851" type="qcurve"/>
      <point x="352" y="848"/>
      <point x="364" y="842" type="qcurve"/>
      <point x="527" y="682" type="line"/>
      <point x="505" y="653" type="line"/>
      <point x="330" y="725" type="line"/>
      <point x="156" y="653" type="line"/>
      <point x="134" y="682" type="line"/>
    </contour>
    <contour>
      <point x="207" y="255" type="line"/>
      <point x="344" y="255" type="line"/>
      <point x="275" y="448" type="line"/>
    </contour>
  </outline>
</glyph>
<glyph name="Atilde" format="1">
  <advance width="628"/>
  <unicode hex="00C3"/>
  <outline>
    <contour>
      <point x="77" y="58" type="line"/>
      <point x="265" y="598" type="line"/>
      <point x="393" y="621" type="line"/>
      <point x="618" y="21" type="line"/>
      <point x="618" y="0" type="line"/>
      <point x="436" y="0" type="line"/>
      <point x="365" y="197" type="line"/>
      <point x="187" y="197" type="line"/>
      <point x="139" y="58" type="line"/>
      <point x="247" y="58" type="line"/>
      <point x="247" y="0" type="line"/>
      <point x="10" y="0" type="line"/>
      <point x="10" y="58" type="line"/>
    </contour>
    <contour>
      <point x="207" y="255" type="line"/>
      <point x="344" y="255" type="line"/>
      <point x="275" y="448" type="line"/>
    </contour>
    <contour>
      <point x="167" y="723" type="line"/>
      <point x="177" y="764"/>
      <point x="218" y="796"/>
      <point x="249" y="796" type="qcurve"/>
      <point x="265" y="796"/>
      <point x="297" y="785"/>
      <point x="328" y="772"/>
      <point x="358" y="761"/>
      <point x="372" y="761" type="qcurve"/>
      <point x="389" y="761"/>
      <point x="406" y="782"/>
      <point x="411" y="797" type="qcurve"/>
      <point x="460" y="776" type="line"/>
      <point x="450" y="735"/>
      <point x="409" y="703"/>
      <point x="379" y="703" type="qcurve"/>
      <point x="362" y="703"/>
      <point x="330" y="714"/>
      <point x="299" y="727"/>
      <point x="269" y="738"/>
      <point x="255" y="738" type="qcurve"/>
      <point x="238" y="738"/>
      <point x="221" y="717"/>
      <point x="216" y="702" type="qcurve"/>
    </contour>
  </outline>
</glyph>
<glyph name="Adieresis" format="1">
  <advance width="628"/>
  <unicode hex="00C4"/>
  <outline>
    <contour>
      <point x="77" y="58" type="line"/>
      <point x="265" y="598" type="line"/>
      <point x="393" y="621" type="line"/>
      <point x="618" y="21" type="line"/>
      <point x="618" y="0" type="line"/>
      <point x="436" y="0" type="line"/>
      <point x="365" y="197" type="line"/>
      <point x="187" y="197" type="line"/>
      <point x="139" y="58" type="line"/>
      <point x="247" y="58" type="line"/>
      <point x="247" y="0" type="line"/>
      <point x="10" y="0" type="line"/>
      <point x="10" y="58" type="line"/>
    </contour>
    <contour>
      <point x="207" y="255" type="line"/>
      <point x="344" y="255" type="line"/>
      <point x="275" y="448" type="line"/>
    </contour>
    <contour>
      <point x="140" y="763" type="qcurve"/>
      <point x="140" y="801"/>
      <point x="173" y="838"/>
      <point x="211" y="838" type="qcurve"/>
      <point x="252" y="838"/>
      <point x="282" y="801"/>
      <point x="282" y="763" type="qcurve"/>
      <point x="282" y="725"/>
      <point x="249" y="689"/>
      <point x="211" y="689" type="qcurve"/>
      <point x="173" y="689"/>
      <point x="140" y="725"/>
    </contour>
    <contour>
      <point x="345" y="763" type="qcurve"/>
      <point x="345" y="801"/>
      <point x="378" y="838"/>
      <point x="416" y="838" type="qcurve"/>
      <point x="457" y="838"/>
      <point x="487" y="801"/>
      <point x="487" y="763" type="qcurve"/>
      <point x="487" y="725"/>
      <point x="454" y="689"/>
      <point x="416" y="689" type="qcurve"/>
      <point x="378" y="689"/>
      <point x="345" y="725"/>
    </contour>
  </outline>
</glyph>
<glyph name="Aring" format="1">
  <advance width="628"/>
  <unicode hex="00C5"/>
  <outline>
    <contour>
      <point x="77" y="58" type="line"/>
      <point x="258" y="578" type="line"/>
      <point x="250" y="583"/>
      <point x="244" y="589" type="qcurve"/>
      <point x="215" y="619"/>
      <point x="215" y="670" type="qcurve"/>
      <point x="215" y="719"/>
      <point x="276" y="780"/>
      <point x="326" y="780" type="qcurve"/>
      <point x="378" y="780"/>
      <point x="437" y="722"/>
      <point x="437" y="670" type="qcurve"/>
      <point x="437" y="621"/>
      <point x="406" y="590" type="qcurve"/>
      <point x="405" y="589" type="line"/>
      <point x="618" y="21" type="line"/>
      <point x="618" y="0" type="line"/>
      <point x="436" y="0" type="line"/>
      <point x="365" y="197" type="line"/>
      <point x="187" y="197" type="line"/>
      <point x="139" y="58" type="line"/>
      <point x="247" y="58" type="line"/>
      <point x="247" y="0" type="line"/>
      <point x="10" y="0" type="line"/>
      <point x="10" y="58" type="line"/>
    </contour>
    <contour>
      <point x="207" y="255" type="line"/>
      <point x="344" y="255" type="line"/>
      <point x="275" y="448" type="line"/>
    </contour>
    <contour>
      <point x="275" y="671" type="qcurve"/>
      <point x="275" y="642"/>
      <point x="302" y="612"/>
      <point x="326" y="612" type="qcurve"/>
      <point x="349" y="612"/>
      <point x="377" y="643"/>
      <point x="377" y="671" type="qcurve"/>
      <point x="377" y="728"/>
      <point x="326" y="728" type="qcurve"/>
      <point x="303" y="728"/>
      <point x="275" y="698"/>
    </contour>
  </outline>
</glyph>
<glyph name="AE" format="1">
  <advance width="905"/>
  <unicode hex="00C6"/>
  <outline>
    <contour>
      <point x="402" y="58" type="line"/>
      <point x="402" y="227" type="line"/>
      <point x="230" y="227" type="line"/>
      <point x="142" y="58" type="line"/>
      <point x="237" y="58" type="line"/>
      <point x="237" y="0" type="line"/>
      <point x="0" y="0" type="line"/>
      <point x="0" y="58" type="line"/>
      <point x="72" y="58" type="line"/>
      <point x="334" y="557" type="line"/>
      <point x="244" y="557" type="line"/>
      <point x="244" y="615" type="line"/>
      <point x="840" y="615" type="line"/>
      <point x="840" y="411" type="line"/>
      <point x="790" y="411"/>
      <point x="725" y="443"/>
      <point x="684" y="489"/>
      <point x="664" y="539"/>
      <point x="660" y="557" type="qcurve"/>
      <point x="570" y="557" type="line"/>
      <point x="570" y="335" type="line"/>
      <point x="745" y="335" type="line"/>
      <point x="745" y="277" type="line"/>
      <point x="570" y="277" type="line"/>
      <point x="570" y="58" type="line"/>
      <point x="675" y="58" type="line"/>
      <point x="679" y="76"/>
      <point x="699" y="126"/>
      <point x="739" y="172"/>
      <point x="805" y="205"/>
      <point x="855" y="205" type="qcurve"/>
      <point x="855" y="0" type="line"/>
      <point x="313" y="0" type="line"/>
      <point x="313" y="58" type="line"/>
    </contour>
    <contour>
      <point x="402" y="285" type="line"/>
      <point x="402" y="555" type="line"/>
      <point x="261" y="285" type="line"/>
    </contour>
  </outline>
</glyph>
<glyph name="Egrave" format="1">
  <advance width="617"/>
  <unicode hex="00C8"/>
  <outline>
    <contour>
      <point x="552" y="615" type="line"/>
      <point x="552" y="411" type="line"/>
      <point x="502" y="411"/>
      <point x="437" y="443"/>
      <point x="396" y="489"/>
      <point x="376" y="539"/>
      <point x="372" y="557" type="qcurve"/>
      <point x="282" y="557" type="line"/>
      <point x="282" y="335" type="line"/>
      <point x="457" y="335" type="line"/>
      <point x="457" y="277" type="line"/>
      <point x="282" y="277" type="line"/>
      <point x="282" y="58" type="line"/>
      <point x="387" y="58" type="line"/>
      <point x="391" y="76"/>
      <point x="411" y="126"/>
      <point x="451" y="172"/>
      <point x="517" y="205"/>
      <point x="567" y="205" type="qcurve"/>
      <point x="567" y="0" type="line"/>
      <point x="25" y="0" type="line"/>
      <point x="25" y="58" type="line"/>
      <point x="114" y="58" type="line"/>
      <point x="114" y="557" type="line"/>
      <point x="25" y="557" type="line"/>
      <point x="25" y="615" type="line"/>
    </contour>
    <contour>
      <point x="338" y="682" type="line"/>
      <point x="316" y="653" type="line"/>
      <point x="107" y="739" type="line"/>
      <point x="82" y="759"/>
      <point x="82" y="789" type="qcurve"/>
      <point x="82" y="804"/>
      <point x="94" y="828"/>
      <point x="112" y="844"/>
      <point x="133" y="853"/>
      <point x="141" y="853" type="qcurve"/>
      <point x="155" y="853"/>
      <point x="175" y="842" type="qcurve"/>
    </contour>
  </outline>
</glyph>
<glyph name="Eacute" format="1">
  <advance width="617"/>
  <unicode hex="00C9"/>
  <outline>
    <contour>
      <point x="552" y="615" type="line"/>
      <point x="552" y="411" type="line"/>
      <point x="502" y="411"/>
      <point x="437" y="443"/>
      <point x="396" y="489"/>
      <point x="376" y="539"/>
      <point x="372" y="557" type="qcurve"/>
      <point x="282" y="557" type="line"/>
      <point x="282" y="335" type="line"/>
      <point x="457" y="335" type="line"/>
      <point x="457" y="277" type="line"/>
      <point x="282" y="277" type="line"/>
      <point x="282" y="58" type="line"/>
      <point x="387" y="58" type="line"/>
      <point x="391" y="76"/>
      <point x="411" y="126"/>
      <point x="451" y="172"/>
      <point x="517" y="205"/>
      <point x="567" y="205" type="qcurve"/>
      <point x="567" y="0" type="line"/>
      <point x="25" y="0" type="line"/>
      <point x="25" y="58" type="line"/>
      <point x="114" y="58" type="line"/>
      <point x="114" y="557" type="line"/>
      <point x="25" y="557" type="line"/>
      <point x="25" y="615" type="line"/>
    </contour>
    <contour>
      <point x="457" y="842" type="line"/>
      <point x="477" y="853"/>
      <point x="491" y="853" type="qcurve"/>
      <point x="499" y="853"/>
      <point x="519" y="844"/>
      <point x="537" y="828"/>
      <point x="550" y="804"/>
      <point x="550" y="789" type="qcurve"/>
      <point x="550" y="759"/>
      <point x="525" y="739" type="qcurve"/>
      <point x="316" y="653" type="line"/>
      <point x="294" y="682" type="line"/>
    </contour>
  </outline>
</glyph>
<glyph name="Ecircumflex" format="1">
  <advance width="617"/>
  <unicode hex="00CA"/>
  <outline>
    <contour>
      <point x="552" y="615" type="line"/>
      <point x="552" y="411" type="line"/>
      <point x="502" y="411"/>
      <point x="437" y="443"/>
      <point x="396" y="489"/>
      <point x="376" y="539"/>
      <point x="372" y="557" type="qcurve"/>
      <point x="282" y="557" type="line"/>
      <point x="282" y="335" type="line"/>
      <point x="457" y="335" type="line"/>
      <point x="457" y="277" type="line"/>
      <point x="282" y="277" type="line"/>
      <point x="282" y="58" type="line"/>
      <point x="387" y="58" type="line"/>
      <point x="391" y="76"/>
      <point x="411" y="126"/>
      <point x="451" y="172"/>
      <point x="517" y="205"/>
      <point x="567" y="205" type="qcurve"/>
      <point x="567" y="0" type="line"/>
      <point x="25" y="0" type="line"/>
      <point x="25" y="58" type="line"/>
      <point x="114" y="58" type="line"/>
      <point x="114" y="557" type="line"/>
      <point x="25" y="557" type="line"/>
      <point x="25" y="615" type="line"/>
    </contour>
    <contour>
      <point x="282" y="842" type="line"/>
      <point x="293" y="848"/>
      <point x="302" y="851" type="qcurve"/>
      <point x="303" y="851"/>
      <point x="304" y="851" type="qcurve"/>
      <point x="309" y="852" type="line"/>
      <point x="311" y="853"/>
      <point x="312" y="853" type="qcurve"/>
      <point x="315" y="853" type="line"/>
      <point x="316" y="853" type="line"/>
      <point x="319" y="853"/>
      <point x="321" y="852" type="qcurve"/>
      <point x="333" y="850"/>
      <point x="349" y="842" type="qcurve"/>
      <point x="512" y="682" type="line"/>
      <point x="490" y="653" type="line"/>
      <point x="315" y="725" type="line"/>
      <point x="141" y="653" type="line"/>
      <point x="119" y="682" type="line"/>
    </contour>
  </outline>
</glyph>
<glyph name="Edieresis" format="1">
  <advance width="617"/>
  <unicode hex="00CB"/>
  <outline>
    <contour>
      <point x="552" y="615" type="line"/>
      <point x="552" y="411" type="line"/>
      <point x="502" y="411"/>
      <point x="437" y="443"/>
      <point x="396" y="489"/>
      <point x="376" y="539"/>
      <point x="372" y="557" type="qcurve"/>
      <point x="282" y="557" type="line"/>
      <point x="282" y="335" type="line"/>
      <point x="457" y="335" type="line"/>
      <point x="457" y="277" type="line"/>
      <point x="282" y="277" type="line"/>
      <point x="282" y="58" type="line"/>
      <point x="387" y="58" type="line"/>
      <point x="391" y="76"/>
      <point x="411" y="126"/>
      <point x="451" y="172"/>
      <point x="517" y="205"/>
      <point x="567" y="205" type="qcurve"/>
      <point x="567" y="0" type="line"/>
      <point x="25" y="0" type="line"/>
      <point x="25" y="58" type="line"/>
      <point x="114" y="58" type="line"/>
      <point x="114" y="557" type="line"/>
      <point x="25" y="557" type="line"/>
      <point x="25" y="615" type="line"/>
    </contour>
    <contour>
      <point x="135" y="763" type="qcurve"/>
      <point x="135" y="801"/>
      <point x="168" y="838"/>
      <point x="206" y="838" type="qcurve"/>
      <point x="247" y="838"/>
      <point x="277" y="801"/>
      <point x="277" y="763" type="qcurve"/>
      <point x="277" y="725"/>
      <point x="244" y="689"/>
      <point x="206" y="689" type="qcurve"/>
      <point x="168" y="689"/>
      <point x="135" y="725"/>
    </contour>
    <contour>
      <point x="340" y="763" type="qcurve"/>
      <point x="340" y="801"/>
      <point x="373" y="838"/>
      <point x="411" y="838" type="qcurve"/>
      <point x="452" y="838"/>
      <point x="482" y="801"/>
      <point x="482" y="763" type="qcurve"/>
      <point x="482" y="725"/>
      <point x="449" y="689"/>
      <point x="411" y="689" type="qcurve"/>
      <point x="373" y="689"/>
      <point x="340" y="725"/>
    </contour>
  </outline>
</glyph>
<glyph name="Igrave" format="1">
  <advance width="396"/>
  <unicode hex="00CC"/>
  <outline>
    <contour>
      <point x="371" y="615" type="line"/>
      <point x="371" y="557" type="line"/>
      <point x="282" y="557" type="line"/>
      <point x="282" y="58" type="line"/>
      <point x="371" y="58" type="line"/>
      <point x="371" y="0" type="line"/>
      <point x="25" y="0" type="line"/>
      <point x="25" y="58" type="line"/>
      <point x="114" y="58" type="line"/>
      <point x="114" y="557" type="line"/>
      <point x="25" y="557" type="line"/>
      <point x="25" y="615" type="line"/>
    </contour>
    <contour>
      <point x="221" y="682" type="line"/>
      <point x="199" y="653" type="line"/>
      <point x="-10" y="739" type="line"/>
      <point x="-35" y="759"/>
      <point x="-35" y="789" type="qcurve"/>
      <point x="-35" y="804"/>
      <point x="-23" y="828"/>
      <point x="-5" y="844"/>
      <point x="16" y="853"/>
      <point x="24" y="853" type="qcurve"/>
      <point x="38" y="853"/>
      <point x="58" y="842" type="qcurve"/>
    </contour>
  </outline>
</glyph>
<glyph name="Iacute" format="1">
  <advance width="396"/>
  <unicode hex="00CD"/>
  <outline>
    <contour>
      <point x="371" y="615" type="line"/>
      <point x="371" y="557" type="line"/>
      <point x="282" y="557" type="line"/>
      <point x="282" y="58" type="line"/>
      <point x="371" y="58" type="line"/>
      <point x="371" y="0" type="line"/>
      <point x="25" y="0" type="line"/>
      <point x="25" y="58" type="line"/>
      <point x="114" y="58" type="line"/>
      <point x="114" y="557" type="line"/>
      <point x="25" y="557" type="line"/>
      <point x="25" y="615" type="line"/>
    </contour>
    <contour>
      <point x="340" y="842" type="line"/>
      <point x="360" y="853"/>
      <point x="374" y="853" type="qcurve"/>
      <point x="382" y="853"/>
      <point x="402" y="844"/>
      <point x="420" y="828"/>
      <point x="433" y="804"/>
      <point x="433" y="789" type="qcurve"/>
      <point x="433" y="759"/>
      <point x="408" y="739" type="qcurve"/>
      <point x="199" y="653" type="line"/>
      <point x="177" y="682" type="line"/>
    </contour>
  </outline>
</glyph>
<glyph name="Icircumflex" format="1">
  <advance width="396"/>
  <unicode hex="00CE"/>
  <outline>
    <contour>
      <point x="371" y="615" type="line"/>
      <point x="371" y="557" type="line"/>
      <point x="282" y="557" type="line"/>
      <point x="282" y="58" type="line"/>
      <point x="371" y="58" type="line"/>
      <point x="371" y="0" type="line"/>
      <point x="25" y="0" type="line"/>
      <point x="25" y="58" type="line"/>
      <point x="114" y="58" type="line"/>
      <point x="114" y="557" type="line"/>
      <point x="25" y="557" type="line"/>
      <point x="25" y="615" type="line"/>
    </contour>
    <contour>
      <point x="165" y="842" type="line"/>
      <point x="176" y="848"/>
      <point x="185" y="851" type="qcurve"/>
      <point x="186" y="851"/>
      <point x="187" y="851" type="qcurve"/>
      <point x="192" y="852" type="line"/>
      <point x="194" y="853"/>
      <point x="195" y="853" type="qcurve"/>
      <point x="199" y="853" type="line"/>
      <point x="202" y="853"/>
      <point x="207" y="852"/>
      <point x="209" y="851" type="qcurve"/>
      <point x="210" y="851"/>
      <point x="211" y="851" type="qcurve"/>
      <point x="220" y="848"/>
      <point x="232" y="842" type="qcurve"/>
      <point x="395" y="682" type="line"/>
      <point x="373" y="653" type="line"/>
      <point x="198" y="725" type="line"/>
      <point x="24" y="653" type="line"/>
      <point x="2" y="682" type="line"/>
    </contour>
  </outline>
</glyph>
<glyph name="Idieresis" format="1">
  <advance width="396"/>
  <unicode hex="00CF"/>
  <outline>
    <contour>
      <point x="371" y="615" type="line"/>
      <point x="371" y="557" type="line"/>
      <point x="282" y="557" type="line"/>
      <point x="282" y="58" type="line"/>
      <point x="371" y="58" type="line"/>
      <point x="371" y="0" type="line"/>
      <point x="25" y="0" type="line"/>
      <point x="25" y="58" type="line"/>
      <point x="114" y="58" type="line"/>
      <point x="114" y="557" type="line"/>
      <point x="25" y="557" type="line"/>
      <point x="25" y="615" type="line"/>
    </contour>
    <contour>
      <point x="25" y="763" type="qcurve"/>
      <point x="25" y="801"/>
      <point x="58" y="838"/>
      <point x="96" y="838" type="qcurve"/>
      <point x="137" y="838"/>
      <point x="167" y="801"/>
      <point x="167" y="763" type="qcurve"/>
      <point x="167" y="725"/>
      <point x="134" y="689"/>
      <point x="96" y="689" type="qcurve"/>
      <point x="58" y="689"/>
      <point x="25" y="725"/>
    </contour>
    <contour>
      <point x="230" y="763" type="qcurve"/>
      <point x="230" y="801"/>
      <point x="263" y="838"/>
      <point x="301" y="838" type="qcurve"/>
      <point x="342" y="838"/>
      <point x="372" y="801"/>
      <point x="372" y="763" type="qcurve"/>
      <point x="372" y="725"/>
      <point x="339" y="689"/>
      <point x="301" y="689" type="qcurve"/>
      <point x="263" y="689"/>
      <point x="230" y="725"/>
    </contour>
  </outline>
</glyph>
<glyph name="Eth" format="1">
  <advance width="710"/>
  <unicode hex="00D0"/>
  <outline>
    <contour>
      <point x="151" y="615" type="line"/>
      <point x="168" y="615"/>
      <point x="223" y="617"/>
      <point x="283" y="618"/>
      <point x="343" y="620"/>
      <point x="365" y="620" type="qcurve"/>
      <point x="443" y="620"/>
      <point x="557" y="588"/>
      <point x="630" y="514"/>
      <point x="665" y="395"/>
      <point x="665" y="308" type="qcurve"/>
      <point x="665" y="221"/>
      <point x="630" y="101"/>
      <point x="557" y="28"/>
      <point x="443" y="-4"/>
      <point x="365" y="-4" type="qcurve"/>
      <point x="337" y="-4"/>
      <point x="276" y="-3"/>
      <point x="218" y="-1"/>
      <point x="167" y="0"/>
      <point x="151" y="0" type="qcurve"/>
      <point x="25" y="0" type="line"/>
      <point x="25" y="58" type="line"/>
      <point x="114" y="58" type="line"/>
      <point x="114" y="330" type="line"/>
      <point x="50" y="330" type="line"/>
      <point x="50" y="388" type="line"/>
      <point x="114" y="388" type="line"/>
      <point x="114" y="557" type="line"/>
      <point x="25" y="557" type="line"/>
      <point x="25" y="615" type="line"/>
    </contour>
    <contour>
      <point x="282" y="570" type="line"/>
      <point x="282" y="388" type="line"/>
      <point x="342" y="388" type="line"/>
      <point x="342" y="330" type="line"/>
      <point x="282" y="330" type="line"/>
      <point x="282" y="49" type="line"/>
      <point x="325" y="46"/>
      <point x="365" y="46" type="qcurve"/>
      <point x="401" y="46" type="line"/>
      <point x="417" y="46"/>
      <point x="428" y="47" type="qcurve"/>
      <point x="440" y="48"/>
      <point x="449" y="49" type="qcurve"/>
      <point x="457" y="84"/>
      <point x="463" y="125" type="qcurve"/>
      <point x="468" y="160"/>
      <point x="478" y="254"/>
      <point x="478" y="308" type="qcurve"/>
      <point x="478" y="364"/>
      <point x="468" y="457"/>
      <point x="463" y="492" type="qcurve"/>
      <point x="457" y="532"/>
      <point x="449" y="566" type="qcurve"/>
      <point x="439" y="567"/>
      <point x="427" y="568" type="qcurve"/>
      <point x="416" y="569"/>
      <point x="385" y="570"/>
      <point x="365" y="570" type="qcurve"/>
    </contour>
  </outline>
</glyph>
<glyph name="Ntilde" format="1">
  <advance width="676"/>
  <unicode hex="00D1"/>
  <outline>
    <contour>
      <point x="178" y="615" type="line"/>
      <point x="504" y="285" type="line"/>
      <point x="504" y="557" type="line"/>
      <point x="415" y="557" type="line"/>
      <point x="415" y="615" type="line"/>
      <point x="656" y="615" type="line"/>
      <point x="656" y="557" type="line"/>
      <point x="567" y="557" type="line"/>
      <point x="567" y="0" type="line"/>
      <point x="536" y="0" type="line"/>
      <point x="177" y="378" type="line"/>
      <point x="177" y="58" type="line"/>
      <point x="266" y="58" type="line"/>
      <point x="266" y="0" type="line"/>
      <point x="25" y="0" type="line"/>
      <point x="25" y="58" type="line"/>
      <point x="114" y="58" type="line"/>
      <point x="114" y="557" type="line"/>
      <point x="25" y="557" type="line"/>
      <point x="25" y="615" type="line"/>
    </contour>
    <contour>
      <point x="184" y="723" type="line"/>
      <point x="194" y="764"/>
      <point x="235" y="796"/>
      <point x="266" y="796" type="qcurve"/>
      <point x="282" y="796"/>
      <point x="314" y="785"/>
      <point x="345" y="772"/>
      <point x="375" y="761"/>
      <point x="389" y="761" type="qcurve"/>
      <point x="406" y="761"/>
      <point x="423" y="782"/>
      <point x="428" y="797" type="qcurve"/>
      <point x="477" y="776" type="line"/>
      <point x="467" y="735"/>
      <point x="426" y="703"/>
      <point x="396" y="703" type="qcurve"/>
      <point x="379" y="703"/>
      <point x="347" y="714"/>
      <point x="316" y="727"/>
      <point x="286" y="738"/>
      <point x="272" y="738" type="qcurve"/>
      <point x="255" y="738"/>
      <point x="238" y="717"/>
      <point x="233" y="702" type="qcurve"/>
    </contour>
  </outline>
</glyph>
